<svg id="Layer_1" data-name="Layer 1" xmlns="http://www.w3.org/2000/svg" viewBox="0 0 310 310"><defs><style>.cls-1{fill:#012e68;}.cls-1,.cls-2{fill-rule:evenodd;}.cls-2{fill:#015895;}</style></defs><path class="cls-1" d="M229.34,197.93V161.05l-74.19-42.83-21.28,12.29,74.19,42.83v12.3l-53.21,30.72L38.09,148.94V222.5L155,290l116.91-67.5V185.63l-21.29-12.29q0,18.45,0,36.87l-95.78,55.3L59.37,210.39V185.81l95.48,55.12,74.49-43Z"/><path class="cls-2" d="M80.66,112.07v36.87l74.19,42.84,21.28-12.29-74.19-42.83v-12.3l53.21-30.72,116.76,67.42V87.5L155,20,38.09,87.5v36.87l21.29,12.29q0-18.45,0-36.87l95.78-55.3,95.48,55.12v24.58L155.15,69.07l-74.49,43Z"/></svg>