<svg id="Layer_1" data-name="Layer 1" xmlns="http://www.w3.org/2000/svg" xmlns:xlink="http://www.w3.org/1999/xlink" viewBox="0 0 1200 628"><defs><style>.cls-1,.cls-2,.cls-3{fill-rule:evenodd;}.cls-1{fill:url(#linear-gradient);}.cls-2,.cls-4{fill:#fff;}.cls-3{fill:#e6e6e6;}.cls-4{font-size:50px;font-family:MyriadPro-Semibold, Myriad Pro;font-weight:600;}.cls-5{letter-spacing:-0.01em;}.cls-6{letter-spacing:-0.01em;}.cls-7{letter-spacing:-0.01em;}.cls-8{letter-spacing:0em;}.cls-9{letter-spacing:-0.01em;}.cls-10{letter-spacing:0em;}</style><linearGradient id="linear-gradient" x1="600" x2="600" y2="628" gradientUnits="userSpaceOnUse"><stop offset="0" stop-color="#015895"/><stop offset="1" stop-color="#012e68"/></linearGradient></defs><polygon class="cls-1" points="0 0 1200 0 1200 628 0 628 0 0 0 0"/><path class="cls-2" d="M484.69,214.82a21.49,21.49,0,0,0-9.31-11.72,29.63,29.63,0,0,0-16.74-4.71c-7.33,0-13.29,2.1-18,6.18s-6.91,9.41-6.91,16c0,7.42,3.56,13.08,10.57,16.84,3,1.57,8.9,3.67,17.69,6.28a35.38,35.38,0,0,1,5.86,2.2,14.53,14.53,0,0,1,3,1.78,7.4,7.4,0,0,1,2.62,5.12c0,5-5.76,8.48-13.19,8.48-7.64,0-13.5-3.87-14.65-8.48l-14,4.19c1.57,5.13,4.92,9.31,10.05,12.77s11.4,5,18.62,5c8.06,0,14.55-2.09,19.57-6.28s7.64-9.94,7.64-16.95a19.86,19.86,0,0,0-4.92-13.29,19.58,19.58,0,0,0-5.23-3.87c-4.5-2.41-6.39-2.83-10.88-4.08-6.07-1.78-10.05-3-12-3.87-4.5-1.89-6.69-4.19-6.69-6.91,0-4.29,4.91-7.74,11.09-7.74,5.86,0,10.67,3.24,11.82,7.11l14-4.08Zm65.09,20.41c-4.19-10.89-14.44-18-26.9-18-8.26,0-15.06,2.72-20.61,8.26s-8.16,12.25-8.16,20.51a27.91,27.91,0,0,0,28.77,28.78c12.46,0,22.71-7.12,26.9-18l-13.08-3.87a14.76,14.76,0,0,1-13.82,8.79A14.54,14.54,0,0,1,512,257.2a16.47,16.47,0,0,1,0-22.39,14.5,14.5,0,0,1,10.88-4.5,14.76,14.76,0,0,1,13.82,8.79l13.08-3.87Zm32.54-18a24.7,24.7,0,0,0-18.94,8.26c-5,5.44-7.53,12.25-7.53,20.51s2.51,15.07,7.53,20.62a25,25,0,0,0,18.94,8.16,25.76,25.76,0,0,0,16.53-5.86v4.29h13V218.8h-13v4.29a25.76,25.76,0,0,0-16.53-5.86Zm12,17.58a16.75,16.75,0,0,1,0,22.39A13.58,13.58,0,0,1,584,261.7a13.79,13.79,0,0,1-10.46-4.5,17.05,17.05,0,0,1,0-22.39,13.75,13.75,0,0,1,10.46-4.5,13.54,13.54,0,0,1,10.36,4.5ZM636,273.21V198.5H622.92v74.71Zm35.57-56a24.67,24.67,0,0,0-18.93,8.26c-5,5.44-7.54,12.25-7.54,20.51s2.51,15.07,7.54,20.62a24.92,24.92,0,0,0,18.93,8.16,25.77,25.77,0,0,0,16.54-5.86v4.29h13V218.8h-13v4.29a25.77,25.77,0,0,0-16.54-5.86Zm12,17.58a16.75,16.75,0,0,1,0,22.39,13.59,13.59,0,0,1-10.36,4.5,13.79,13.79,0,0,1-10.46-4.5,17.05,17.05,0,0,1,0-22.39,13.75,13.75,0,0,1,10.46-4.5,13.56,13.56,0,0,1,10.36,4.5Zm41.65-16H712.17v54.41h13.09V243.28a12.29,12.29,0,0,1,12.55-12.66,13.27,13.27,0,0,1,5.34,1.15V217.23c-8.16,0-14.13,2.72-17.89,8.26V218.8Zm76.49-4a21.55,21.55,0,0,0-9.32-11.72,29.63,29.63,0,0,0-16.74-4.71c-7.32,0-13.29,2.1-18,6.18s-6.9,9.41-6.9,16c0,7.42,3.55,13.08,10.56,16.84,3,1.57,8.9,3.67,17.69,6.28a35.38,35.38,0,0,1,5.86,2.2,14,14,0,0,1,3,1.78,7.4,7.4,0,0,1,2.62,5.12c0,5-5.76,8.48-13.19,8.48-7.63,0-13.49-3.87-14.65-8.48l-14,4.19c1.57,5.13,4.92,9.31,10,12.77s11.4,5,18.62,5c8.06,0,14.55-2.09,19.57-6.28s7.64-9.94,7.64-16.95a19.86,19.86,0,0,0-4.92-13.29,19.26,19.26,0,0,0-5.23-3.87c-4.5-2.41-6.38-2.83-10.88-4.08-6.07-1.78-10-3-12-3.87-4.5-1.89-6.7-4.19-6.7-6.91,0-4.29,4.92-7.74,11.09-7.74,5.86,0,10.67,3.24,11.82,7.11l14-4.08Zm6.8,15.38h7.74v25.85a15.84,15.84,0,0,0,5.34,12.24,18.88,18.88,0,0,0,13.18,4.92h8.06V260.76h-6.8a6.47,6.47,0,0,1-6.7-6.6v-24h13.5V218.8h-13.5V208.12H816.29V218.8h-7.74v11.4Zm48.55,36.42a30.12,30.12,0,0,0,41.23,0c5.54-5.55,8.26-12.35,8.26-20.62s-2.72-15.07-8.26-20.51-12.35-8.26-20.62-8.26-15.07,2.72-20.61,8.26-8.16,12.25-8.16,20.51a28.18,28.18,0,0,0,8.16,20.62Zm9.73-31.81a15.4,15.4,0,0,1,21.76,0,16.44,16.44,0,0,1,0,22.39,15.4,15.4,0,0,1-21.76,0,16.47,16.47,0,0,1,0-22.39Zm61.84,61.94V268.92a25.5,25.5,0,0,0,16.43,5.86A25,25,0,0,0,964,266.62c5.13-5.55,7.64-12.35,7.64-20.62s-2.51-15.07-7.64-20.51a24.7,24.7,0,0,0-18.94-8.26,25.5,25.5,0,0,0-16.43,5.86V218.8H915.59v77.95Zm25.11-61.94a16.75,16.75,0,0,1,0,22.39,14.16,14.16,0,0,1-20.71,0,17.05,17.05,0,0,1,0-22.39,14.16,14.16,0,0,1,20.71,0Z"/><path class="cls-3" d="M358.48,265.8V240.71L308,211.56l-14.48,8.36L344,249.07v8.36l-36.21,20.91-79.46-45.88v50.06l79.57,45.94,79.56-45.94V257.43L373,249.06q0,12.56,0,25.1l-65.18,37.63-65-37.51V257.55l65,37.51,50.7-29.26Z"/><path class="cls-2" d="M257.29,207.37v25.09l50.49,29.15,14.49-8.36L271.78,224.1v-8.36L308,194.83l79.46,45.88V190.65l-79.56-45.94-79.57,45.94v25.09l14.5,8.37q0-12.56,0-25.1L308,161.38l65,37.51v16.73l-65-37.51-50.7,29.26Z"/><text class="cls-4" transform="translate(404.15 410.79)"><tspan class="cls-5">K</tspan><tspan x="28.65" y="0">eep t</tspan><tspan class="cls-6" x="137.4" y="0">r</tspan><tspan x="154.75" y="0">ack of </tspan><tspan class="cls-7" x="292.89" y="0">y</tspan><tspan class="cls-8" x="317.25" y="0">our</tspan><tspan x="-133.12" y="60">machine learning </tspan><tspan class="cls-9" x="254.12" y="60">e</tspan><tspan x="279.52" y="60">xperime</tspan><tspan class="cls-10" x="458.07" y="60">n</tspan><tspan x="486.42" y="60">ts</tspan></text></svg>