<svg xmlns="http://www.w3.org/2000/svg" viewBox="0 0 1200 628"><defs><style>.cls-1{fill:#303335;}.cls-2{fill:#ededec;}.cls-3{fill:#1a1a1a;}.cls-4{fill:#4d4d4d;}.cls-5{fill:#a0afba;}.cls-6{fill:#78848c;}.cls-7{fill:#dcf1ff;}.cls-8{fill:#9cadb5;}.cls-15,.cls-9{stroke:#000;stroke-miterlimit:22.93;stroke-width:0.57px;}.cls-10,.cls-15,.cls-9{fill-rule:evenodd;}.cls-11{fill:#b3b3b3;}.cls-12{fill:#f74343;}.cls-13{fill:#333;}.cls-14{fill:#666;}.cls-15{fill:#fff;}</style></defs><g id="Layer_1" data-name="Layer 1"><rect class="cls-1" width="1200" height="628"/><path class="cls-2" d="M535.35,313.12h-.44l-1.54,5.94H518.63V242.5h18.92v17.82l-.44,7.92a20.24,20.24,0,0,1,13.53-5.5c13,0,21.45,11,21.45,27.83,0,19-11.22,29.81-22.88,29.81C544.37,320.38,539.53,318,535.35,313.12Zm17.38-22.22c0-9-2.64-12.76-7.7-12.76-2.86,0-5.06,1.1-7.48,4v20.24a10.1,10.1,0,0,0,7,2.64C549,305,552.73,301.46,552.73,290.9Z"/><path class="cls-2" d="M579.13,303.44c0-11.44,8.8-17.82,29.92-20-.44-4-2.86-5.72-7.7-5.72-4,0-8.14,1.54-13.86,4.62L580.89,270c7.7-4.62,15.62-7.26,24.2-7.26,14.3,0,22.88,7.7,22.88,25.74v30.58h-15.4l-1.32-5.28h-.44c-4.4,4-9.24,6.6-15.18,6.6C585.29,320.38,579.13,312.46,579.13,303.44Zm29.92-1.32v-7.48c-9,1.32-11.88,4.18-11.88,7.26,0,2.53,1.76,4,5.06,4C605.31,305.86,607.07,304.32,609.05,302.12Z"/><path class="cls-2" d="M657,313.12h-.44L655,319.06H640.29V242.5h18.92v17.82l-.44,7.92a20.24,20.24,0,0,1,13.53-5.5c13,0,21.45,11,21.45,27.83,0,19-11.22,29.81-22.88,29.81C666,320.38,661.19,318,657,313.12Zm17.38-22.22c0-9-2.64-12.76-7.7-12.76-2.86,0-5.06,1.1-7.48,4v20.24a10.1,10.1,0,0,0,7,2.64C670.65,305,674.39,301.46,674.39,290.9Z"/><path class="cls-2" d="M702.77,338.64l3.3-14.3a18.12,18.12,0,0,0,3.52.66c5.06,0,7.48-2.2,8.58-5.5l.66-2.42-20.9-53h18.92l6.6,21.12c1.54,5.06,2.64,10.12,4,15.62h.44c1.1-5.28,2.2-10.34,3.52-15.62l5.5-21.12h18l-18.48,54.12c-5.72,14.85-11.66,21.56-25.3,21.56A28.49,28.49,0,0,1,702.77,338.64Z"/><path class="cls-2" d="M758.65,291.56c0-18.26,13.86-28.82,29.48-28.82a24.19,24.19,0,0,1,16.06,5.72l-8.8,12.1c-2.42-2-4.18-2.64-6.16-2.64-7,0-11.22,5.28-11.22,13.64s4.62,13.64,10.56,13.64c3.08,0,6.16-1.54,8.8-3.52L804.63,314c-5.5,4.84-12.54,6.38-18.26,6.38C770.75,320.38,758.65,309.82,758.65,291.56Z"/><path class="cls-2" d="M810.13,303.44c0-11.44,8.8-17.82,29.92-20-.44-4-2.86-5.72-7.7-5.72-4,0-8.14,1.54-13.86,4.62L811.89,270c7.7-4.62,15.62-7.26,24.2-7.26,14.3,0,22.88,7.7,22.88,25.74v30.58h-15.4l-1.32-5.28h-.44c-4.4,4-9.24,6.6-15.18,6.6C816.29,320.38,810.13,312.46,810.13,303.44Zm29.92-1.32v-7.48c-9,1.32-11.88,4.18-11.88,7.26,0,2.53,1.76,4,5.06,4C836.31,305.86,838.07,304.32,840.05,302.12Z"/><path class="cls-2" d="M871.51,297.94V278.8h-7.26V264.72l8.36-.66,2.2-14.3h15.62v14.3H903V278.8H890.43v18.81c0,6.05,3.08,8,6.6,8a15.82,15.82,0,0,0,4.84-.88l2.86,13.64a41.54,41.54,0,0,1-13,2C877.45,320.38,871.51,311.36,871.51,297.94Z"/><path class="cls-2" d="M911.11,308.94c0-6.38,4.62-11.44,11-11.44s11,5.06,11,11.44-4.62,11.44-11,11.44S911.11,315.32,911.11,308.94Z"/><path class="cls-2" d="M945,247.78c0-5.5,4.4-9.46,10.56-9.46s10.56,4,10.56,9.46-4.4,9.46-10.56,9.46S945,253.28,945,247.78Zm1.1,16.28H965v55H946.09Z"/><path class="cls-2" d="M974.91,291.56c0-18.26,13.2-28.82,27.28-28.82s27.28,10.56,27.28,28.82-13.2,28.82-27.28,28.82S974.91,309.82,974.91,291.56Zm35.2,0c0-8.36-2.2-13.64-7.92-13.64s-7.92,5.28-7.92,13.64,2.2,13.64,7.92,13.64S1010.11,299.92,1010.11,291.56Z"/><path class="cls-2" d="M564,362.47h3.77l8.88,26.25h-3.54l-4.58-14.66c-.94-2.94-1.78-5.82-2.63-8.85h-.16c-.81,3.05-1.65,5.91-2.59,8.85l-4.63,14.66h-3.4Zm-4.21,15.59h12.08v2.66H559.81Z"/><path class="cls-2" d="M579.57,381.59V369.28h3.29v11.89c0,3.62,1.1,5.17,3.67,5.17,2,0,3.36-1,5.2-3.27V369.28H595v19.44h-2.71l-.28-3.05h-.11c-1.8,2.13-3.74,3.53-6.41,3.53C581.41,389.2,579.57,386.55,579.57,381.59Z"/><path class="cls-2" d="M600.21,379c0-6.3,4-10.22,8.41-10.22a8,8,0,0,1,5.45,2.25l-.14-3.34v-7.48h3.29v28.49H614.5l-.28-2.3h-.11a8.61,8.61,0,0,1-5.9,2.78C603.36,389.2,600.21,385.5,600.21,379Zm13.72,4.76V373.59a6.85,6.85,0,0,0-4.74-2c-3.11,0-5.58,3-5.58,7.42,0,4.66,1.92,7.44,5.33,7.44C610.74,386.43,612.3,385.55,613.93,383.78Z"/><path class="cls-2" d="M623.19,363.16a2.27,2.27,0,0,1,4.54,0,2.28,2.28,0,0,1-4.54,0Zm.6,6.12h3.29v19.44h-3.29Z"/><path class="cls-2" d="M632.19,379c0-6.48,4.24-10.22,9-10.22s9,3.74,9,10.22-4.24,10.18-9,10.18S632.19,385.46,632.19,379Zm14.61,0c0-4.45-2.26-7.48-5.6-7.48s-5.61,3-5.61,7.48,2.26,7.44,5.61,7.44S646.8,383.48,646.8,379Z"/><path class="cls-2" d="M662,383.67c0-4.23,3.65-6.35,11.94-7.25,0-2.5-.84-4.91-4-4.91a10.69,10.69,0,0,0-5.79,2.08l-1.29-2.25a14.23,14.23,0,0,1,7.63-2.54c4.75,0,6.76,3.15,6.76,8v11.93h-2.72l-.28-2.33h-.11a10.32,10.32,0,0,1-6.43,2.81C664.39,389.2,662,387.18,662,383.67Zm11.94.3v-5.39c-6.52.78-8.72,2.37-8.72,4.86,0,2.21,1.5,3.11,3.41,3.11S672,385.63,673.89,384Z"/><path class="cls-2" d="M683.31,369.28H686l.28,2.8h.11c1.85-1.82,3.85-3.28,6.52-3.28,4.09,0,5.93,2.64,5.93,7.6v12.32h-3.29V376.83c0-3.63-1.09-5.18-3.66-5.18-2,0-3.37,1-5.32,3v14.08h-3.29Z"/><path class="cls-2" d="M704,383.67c0-4.23,3.65-6.35,11.94-7.25,0-2.5-.84-4.91-4-4.91a10.69,10.69,0,0,0-5.79,2.08l-1.29-2.25a14.2,14.2,0,0,1,7.63-2.54c4.75,0,6.76,3.15,6.76,8v11.93H716.5l-.28-2.33h-.11a10.34,10.34,0,0,1-6.43,2.81C706.43,389.2,704,387.18,704,383.67Zm11.94.3v-5.39c-6.52.78-8.72,2.37-8.72,4.86,0,2.21,1.5,3.11,3.41,3.11S714,385.63,715.93,384Z"/><path class="cls-2" d="M725.35,384.81V360.23h3.29v24.82c0,1,.44,1.41.92,1.41a2.83,2.83,0,0,0,.72-.08l.44,2.51a5.2,5.2,0,0,1-1.89.31C726.37,389.2,725.35,387.62,725.35,384.81Z"/><path class="cls-2" d="M733.6,396.7l.64-2.62a5.12,5.12,0,0,0,1.49.29c2.19,0,3.57-1.76,4.38-4.18l.44-1.43-7.8-19.48h3.39l4,10.76c.61,1.69,1.26,3.68,1.89,5.48h.16c.55-1.77,1.11-3.76,1.64-5.48l3.46-10.76h3.22l-7.32,21c-1.37,3.86-3.38,6.78-7.28,6.78A6.33,6.33,0,0,1,733.6,396.7Z"/><path class="cls-2" d="M752.07,386.5l1.63-2.17a8.76,8.76,0,0,0,5.74,2.31c2.55,0,3.82-1.36,3.82-3,0-2-2.3-2.89-4.45-3.69-2.72-1-5.8-2.34-5.8-5.61,0-3.11,2.49-5.52,6.71-5.52a9.84,9.84,0,0,1,6,2.18l-1.57,2.11a7.31,7.31,0,0,0-4.43-1.73c-2.45,0-3.58,1.31-3.58,2.79,0,1.85,2.11,2.55,4.31,3.37,2.81,1.06,5.93,2.2,5.93,5.9,0,3.15-2.5,5.78-7.09,5.78A11.69,11.69,0,0,1,752.07,386.5Z"/><path class="cls-2" d="M770.39,363.16a2.27,2.27,0,0,1,4.54,0,2.28,2.28,0,0,1-4.54,0Zm.6,6.12h3.29v19.44H771Z"/><path class="cls-2" d="M778.67,386.5l1.63-2.17a8.76,8.76,0,0,0,5.74,2.31c2.55,0,3.82-1.36,3.82-3,0-2-2.3-2.89-4.45-3.69-2.72-1-5.8-2.34-5.8-5.61,0-3.11,2.49-5.52,6.71-5.52a9.87,9.87,0,0,1,6,2.18l-1.57,2.11a7.31,7.31,0,0,0-4.43-1.73c-2.45,0-3.58,1.31-3.58,2.79,0,1.85,2.11,2.55,4.31,3.37,2.81,1.06,5.93,2.2,5.93,5.9,0,3.15-2.51,5.78-7.09,5.78A11.69,11.69,0,0,1,778.67,386.5Z"/><path class="cls-2" d="M805.59,369.28h2.72l.27,2.82h.11c1.7-1.84,3.74-3.3,6-3.3a5.12,5.12,0,0,1,5.37,3.7c2-2.18,4-3.7,6.41-3.7,4,0,5.92,2.64,5.92,7.6v12.32h-3.29V376.83c0-3.63-1.15-5.18-3.62-5.18-1.51,0-3.07,1-4.87,3v14.08h-3.29V376.83c0-3.63-1.15-5.18-3.62-5.18-1.46,0-3.07,1-4.87,3v14.08h-3.29Z"/><path class="cls-2" d="M837.54,383.67c0-4.23,3.66-6.35,11.94-7.25,0-2.5-.83-4.91-4-4.91a10.73,10.73,0,0,0-5.8,2.08l-1.28-2.25A14.17,14.17,0,0,1,846,368.8c4.75,0,6.75,3.15,6.75,8v11.93h-2.71l-.28-2.33h-.11a10.34,10.34,0,0,1-6.43,2.81C840,389.2,837.54,387.18,837.54,383.67Zm11.94.3v-5.39c-6.51.78-8.71,2.37-8.71,4.86,0,2.21,1.5,3.11,3.4,3.11S847.6,385.63,849.48,384Z"/><path class="cls-2" d="M857.52,379c0-6.3,4-10.22,8.41-10.22a8,8,0,0,1,5.45,2.25l-.14-3.34v-7.48h3.29v28.49h-2.71l-.28-2.3h-.11a8.61,8.61,0,0,1-5.9,2.78C860.67,389.2,857.52,385.5,857.52,379Zm13.72,4.76V373.59a6.83,6.83,0,0,0-4.74-2c-3.11,0-5.58,3-5.58,7.42,0,4.66,1.93,7.44,5.34,7.44C868.06,386.43,869.61,385.55,871.24,383.78Z"/><path class="cls-2" d="M879.66,379c0-6.32,4.27-10.22,8.74-10.22,5,0,7.76,3.56,7.76,9.12a11,11,0,0,1-.15,1.87H882.92c.23,4.12,2.75,6.79,6.46,6.79a8.5,8.5,0,0,0,4.83-1.56l1.18,2.16a11.37,11.37,0,0,1-6.42,2C883.79,389.2,879.66,385.41,879.66,379Zm13.59-1.59c0-3.89-1.75-6-4.79-6-2.73,0-5.17,2.19-5.57,6Z"/><path class="cls-2" d="M907.5,379c0-6.32,4.27-10.22,8.74-10.22,5,0,7.76,3.56,7.76,9.12a11,11,0,0,1-.15,1.87H910.76c.23,4.12,2.75,6.79,6.45,6.79a8.51,8.51,0,0,0,4.84-1.56l1.18,2.16a11.42,11.42,0,0,1-6.42,2C911.63,389.2,907.5,385.41,907.5,379Zm13.59-1.59c0-3.89-1.75-6-4.79-6-2.73,0-5.17,2.19-5.57,6Z"/><path class="cls-2" d="M927,383.67c0-4.23,3.66-6.35,11.94-7.25,0-2.5-.83-4.91-4-4.91a10.73,10.73,0,0,0-5.8,2.08l-1.28-2.25a14.17,14.17,0,0,1,7.63-2.54c4.75,0,6.75,3.15,6.75,8v11.93h-2.71l-.28-2.33h-.11a10.34,10.34,0,0,1-6.43,2.81C929.47,389.2,927,387.18,927,383.67ZM939,384v-5.39c-6.51.78-8.71,2.37-8.71,4.86,0,2.21,1.5,3.11,3.4,3.11S937.08,385.63,939,384Z"/><path class="cls-2" d="M946.23,386.5l1.62-2.17a8.78,8.78,0,0,0,5.74,2.31c2.56,0,3.82-1.36,3.82-3,0-2-2.29-2.89-4.44-3.69-2.73-1-5.8-2.34-5.8-5.61,0-3.11,2.49-5.52,6.71-5.52a9.87,9.87,0,0,1,6,2.18l-1.57,2.11a7.34,7.34,0,0,0-4.44-1.73c-2.45,0-3.58,1.31-3.58,2.79,0,1.85,2.12,2.55,4.32,3.37,2.8,1.06,5.93,2.2,5.93,5.9,0,3.15-2.51,5.78-7.1,5.78A11.66,11.66,0,0,1,946.23,386.5Z"/><path class="cls-2" d="M963.2,396.7l.64-2.62a5.12,5.12,0,0,0,1.48.29c2.2,0,3.58-1.76,4.39-4.18l.44-1.43-7.8-19.48h3.39l4,10.76c.61,1.69,1.27,3.68,1.9,5.48h.16c.55-1.77,1.1-3.76,1.63-5.48l3.47-10.76h3.22l-7.32,21c-1.38,3.86-3.38,6.78-7.28,6.78A6.25,6.25,0,0,1,963.2,396.7Z"/><path class="cls-2" d="M981.75,386.71a2.38,2.38,0,1,1,2.38,2.49A2.4,2.4,0,0,1,981.75,386.71Z"/><path class="cls-3" d="M267.82,407.82l-2.21-4.25-.23-.06a19.81,19.81,0,0,1-6.07-2.54l-8-.52a1.88,1.88,0,0,1-.58.19,258.9,258.9,0,0,0-28.65,5.84l-.21.06a123.72,123.72,0,0,0-17.18,5.89c-7.36,3.24-12.39,6.74-14.53,10.33l-.61,1.33-.06.43a1.88,1.88,0,0,1-.38.93,6.31,6.31,0,0,0-.12,1.22c0,8,14.18,15.54,37.09,21.23,23.68,5.87,56.43,9.51,92.64,9.51s69-3.64,92.64-9.51c22.92-5.69,37.1-13.21,37.1-21.23,0-3.13-2.33-6.25-6.62-9.27-4.5-3.18-11.05-6.14-19.26-8.79-4.57,7.9-15.9,14.48-41,14.48-15.64,0-25.35-2.81-30.8-7.16a14.77,14.77,0,0,1-5.9-11.12,21,21,0,0,1,1.34-8.17q-6.07-.31-12.24-.5c-4.84-.14-9.94-.21-15.27-.21-5.09,0-9.95.07-14.55.19q-6.57.18-13.06.53a6.77,6.77,0,0,1-1.37,2.4,12.32,12.32,0,0,1-4,2.92,22.55,22.55,0,0,1-4.56,1.6l-6.07,11.71a1.9,1.9,0,0,1-.83.83,1.92,1.92,0,0,1-2.59-.83l-3.87-7.46Z"/><path class="cls-4" d="M356.12,448.93c-11.59,1-24.21,1.59-37.42,1.59-14,0-27.34-.64-39.53-1.78a264.29,264.29,0,0,1-33.48-5.11c-9.29-2.12-16.78-4.65-21.91-7.47-1.89-1-9.16-6.09-5.89-9.61,0,2.62,2.47,5.22,7,7.68,5,2.72,12.25,5.18,21.34,7.26a262.72,262.72,0,0,0,33.19,5.06c12.07,1.13,25.36,1.76,39.33,1.76,13.15,0,25.7-.56,37.23-1.57a278.89,278.89,0,0,0,32-4.54c-3.9,4.59-27.13,6.32-31.84,6.73Zm-24.29-36.09q-3.25-.09-6.54-.14c-2,0-4.16,0-6.59,0-6.62,0-13,.13-19.08.38-6.26.26-12.29.65-18,1.15,6.6-4.61,42.89-4.7,50.23-1.35Zm57.61,23.1c-5,1.32-30.82,6.66-39.88,3.56,6.72-.48,26-2.19,39.32-5.69,7.49-2,13-4.38,13-7.21,2.34,5.95-11.29,9-12.48,9.34Zm-145.93-1.36c-6.54-2.24-10.23-4.95-10.23-8,0-4.8,11.92-8.58,16.73-7.59a47.23,47.23,0,0,0-11.17,4h0c-2.17,1.23-3.34,2.44-3.34,3.59,0,2,3.15,4,8.73,5.89,6.21,2.13,15.26,4,26.26,5.34-5.23,1.87-22.5-1.72-27-3.25Zm19.68-28.32c5.11-.74,27-3.09,33.54-.93-12,.59-23.22,1.66-33.23,3.12A184.89,184.89,0,0,0,237.2,414c5.48-4.21,21.78-7.1,26-7.72ZM397,410.79c1,.25,21.5,4.64,22.49,15.76,0-5-8.67-9.8-23-13.63-15.07-4-36.24-6.86-60.32-7.79,13.37-3.62,53.25,3.62,60.88,5.66Z"/><path class="cls-5" d="M278.23,302.83a1.83,1.83,0,0,1,1,.35c8.29,2.69,17.2,4.26,26,3.46,14.64-1.33,30.61-7.59,45.7-16.24a203.77,203.77,0,0,0,24.87-16.89,1.91,1.91,0,0,1,1.07-.85A192.63,192.63,0,0,0,396,255.25a26.44,26.44,0,0,1-4.9-6.36,30,30,0,0,1-2.78-7.33c-6.44,1.89-13.61,1.32-20.62-1.37-9.28-3.57-18.3-10.87-24.88-21.08a3.45,3.45,0,0,1-.2-.32c-6.51-10.25-9.36-21.49-8.71-31.41a34.91,34.91,0,0,1,3.68-13.8l-1.08-.34c-1.15-.36-2.28-.69-3.38-1l-.31-.11a1.93,1.93,0,0,1-1-2.55,123.77,123.77,0,0,1,9.58-16.9q-3.18-1.51-6.6-2.78C329,158.35,324,167.42,324,167.44a1.94,1.94,0,0,1-2.11,1c-9.59-2.08-20.77-1.57-31.08.9s-19.76,6.89-25.79,12.62a1.93,1.93,0,0,1-1.89.45A210.89,210.89,0,0,0,241.33,177a90.27,90.27,0,0,0-6,8.47c1.93.42,3.94,1,5.93,1.59a78.31,78.31,0,0,1,8.71,3.29l.08,0a1.93,1.93,0,0,1,.86,2.58c-.32.63-.62,1.24-.91,1.85a2,2,0,0,1-.18.36c-13.15,27.32-10.34,42.17-7.81,55.6,1.86,9.86,3.59,19-.72,31.5,3.95,3.15,18.86,14.43,37,20.56Z"/><path class="cls-6" d="M278.23,302.83a1.83,1.83,0,0,1,1,.35c8.29,2.69,17.2,4.26,26,3.46,14.64-1.33,30.61-7.59,45.7-16.24a203.77,203.77,0,0,0,24.87-16.89,1.91,1.91,0,0,1,1.07-.85A192.63,192.63,0,0,0,396,255.25a26.44,26.44,0,0,1-4.9-6.36,30,30,0,0,1-2.78-7.33c-6.44,1.89-13.61,1.32-20.62-1.37-9.28-3.57-18.3-10.87-24.88-21.08a3.45,3.45,0,0,1-.2-.32c-6.51-10.25-9.36-21.49-8.71-31.41a34.91,34.91,0,0,1,3.68-13.8l-1.08-.34c-1.15-.36-2.28-.69-3.38-1,0,0-7.22,25.48.85,45.55s33.1,33.51,32.07,44.68-28.7,30.93-59,35.38c-27,4-52.9-13-64.07-21.74a50.23,50.23,0,0,1-1.71,6.14c3.95,3.15,18.86,14.43,37,20.56Z"/><path class="cls-7" d="M278.23,302.83a1.83,1.83,0,0,1,1,.35c8.29,2.69,17.2,4.26,26,3.46,14.64-1.33,30.61-7.59,45.7-16.24.49-.28,1-.56,1.46-.85a13.67,13.67,0,0,0-.1-4.36c-2.57-14.3-25.74-29.7-50.45-27.18s-41.63,22-39.06,36.31a14.71,14.71,0,0,0,.55,2.15,109.26,109.26,0,0,0,14.85,6.36Z"/><path class="cls-8" d="M278.23,302.83a1.83,1.83,0,0,1,1,.35c8.29,2.69,17.2,4.26,26,3.46,14.64-1.33,30.61-7.59,45.7-16.24.49-.28,1-.56,1.46-.85a13.67,13.67,0,0,0-.1-4.36,18.3,18.3,0,0,0-1.55-4.69,106.07,106.07,0,0,1-43.73,17.37c-16.12,2.38-31.86-2.72-44.31-9.08a17.63,17.63,0,0,0,.08,5.53,14.71,14.71,0,0,0,.55,2.15,109.26,109.26,0,0,0,14.85,6.36Z"/><path class="cls-7" d="M307.44,167.13a78.22,78.22,0,0,0-8.61.69c-.89,5.43-1.14,10.69.74,12.36,2.41,2.15,5.15-5.2,7.87-13.05Zm-11.79,1.18c-1.61.28-3.22.62-4.81,1s-3,.76-4.44,1.2c-1,5.67-1.34,11.33.62,13.08,2.64,2.35,5.66-6.68,8.63-15.28Zm-13.2,3.51a62.36,62.36,0,0,0-9.78,4.51c-.77,5.13-.91,9.95.87,11.53,2.72,2.43,5.85-7.22,8.91-16Z"/><path d="M278.23,302.83a1.83,1.83,0,0,1,1,.35c8.29,2.69,17.2,4.26,26,3.46,14.64-1.33,30.61-7.59,45.7-16.24a203.77,203.77,0,0,0,24.87-16.89,1.91,1.91,0,0,1,1.07-.85A192.63,192.63,0,0,0,396,255.25a26.44,26.44,0,0,1-4.9-6.36,30,30,0,0,1-2.78-7.33c-6.44,1.89-13.61,1.32-20.62-1.37-9.28-3.57-18.3-10.87-24.88-21.08a3.45,3.45,0,0,1-.2-.32c-6.51-10.25-9.36-21.49-8.71-31.41a34.91,34.91,0,0,1,3.68-13.8l-1.08-.34c-1.15-.36-2.28-.69-3.38-1l-.31-.11a1.93,1.93,0,0,1-1-2.55,123.77,123.77,0,0,1,9.58-16.9q-3.18-1.51-6.6-2.78C329,158.35,324,167.42,324,167.44a1.94,1.94,0,0,1-2.11,1c-9.59-2.08-20.77-1.57-31.08.9s-19.76,6.89-25.79,12.62a1.93,1.93,0,0,1-1.89.45A210.89,210.89,0,0,0,241.33,177a90.27,90.27,0,0,0-6,8.47c1.93.42,3.94,1,5.93,1.59a78.31,78.31,0,0,1,8.71,3.29l.08,0a1.93,1.93,0,0,1,.86,2.58c-.32.63-.62,1.24-.91,1.85a2,2,0,0,1-.18.36c-13.15,27.32-10.34,42.17-7.81,55.6,1.86,9.86,3.59,19-.72,31.5,3.95,3.15,18.86,14.43,37,20.56Zm.61,4.22a78,78,0,0,1-13.59,14,37,37,0,0,1-14.77,7.31c-7.17,1.49-14.81-1.5-23.24-4.8-12.79-5-27.52-10.8-43.88-1.17a16.53,16.53,0,0,0-7.66,9.73,21.34,21.34,0,0,0,.26,12.07,26.54,26.54,0,0,0,6.93,11.32,27.56,27.56,0,0,0,18.66,7.68,42.91,42.91,0,0,0,14.08-1.82,35.39,35.39,0,0,0,13.79-8.07,1.93,1.93,0,0,1,2.64,2.81,39.69,39.69,0,0,1-8.8,6.26c7.78,3.07,24.67,9.07,33.32,7a48.13,48.13,0,0,0,12.95-5.67,78.2,78.2,0,0,0,13-9.76,300.2,300.2,0,0,1,5.79-32.17,1.93,1.93,0,0,1,3.75.93,291.33,291.33,0,0,0-5.78,32.25l0,.23a262.54,262.54,0,0,0-2.13,32.12c.49.19,1,.39,1.42.6,2.67,1.27,4.58,3,5.39,5q6.38-.35,13.1-.53,7.48-.19,14.66-.2,7.56,0,15.38.23,7.07.19,13.78.57l.25-.47c5-9.42,15.09-18.41,23.6-22.12,7.28-6.65,11.48-13.71,16.14-21.55,1.21-2.05,2.45-4.14,3.79-6.29-3.76-7.83-13.76-21.62-13.79-21.66a1.92,1.92,0,1,1,3.12-2.25s8.62,11.88,13.07,20.15A124.5,124.5,0,0,1,404.38,325a1.92,1.92,0,1,1,2.89,2.53,125.41,125.41,0,0,0-11.78,16l-.06.1c-1.52,2.42-2.91,4.76-4.27,7-4.84,8.15-9.21,15.5-17.05,22.6a1.91,1.91,0,0,1-.6.4c-7.86,3.33-17.31,11.71-22,20.52-.21.38-.4.75-.58,1.13a1.91,1.91,0,0,1-.31.66,18.86,18.86,0,0,0-1.91,8.61,11.06,11.06,0,0,0,4.44,8.31c4.81,3.83,13.73,6.31,28.41,6.31,55,0,36.93-34,36.13-35.43a1.94,1.94,0,0,1,.22-2.24c.08-.1,30.53-34.61,22.92-52.39-4.11-9.58-11.3-19.56-22.9-29.17-9.89-8.19-22.95-16.09-40-23.24a207.78,207.78,0,0,1-25.05,17c-15.52,8.89-32,15.33-47.27,16.72-9.1.83-18.26-.72-26.79-3.42ZM262.9,318A72.79,72.79,0,0,0,275,305.74c-21-7.6-37.14-21.29-37.21-21.35a1.93,1.93,0,0,1-.53-2.26A43.37,43.37,0,0,0,240,264.24c-5.1-.21-9.17-3.78-12.1-9.27-5.8-1.08-9.79-7.62-11.68-16-1.81-2.12-8.17-11.57-1.91-34.34a66.53,66.53,0,0,1-4.25-16.5c-.46-4.76.17-8.71,2.27-11.2a14.22,14.22,0,0,1,7.95-4.28,39,39,0,0,1,9.47-.75,89.32,89.32,0,0,1,14.46-15.69c11-9.33,25.11-16.7,43.11-20.43a116.85,116.85,0,0,1,53.37.94l.78-.78c5.11-5.21,8.45-8.62,14.68-5.29a19.84,19.84,0,0,1,6.84,7,61.28,61.28,0,0,1,5.17,10.48A105.65,105.65,0,0,1,397,173h0c.54.61,1.07,1.24,1.58,1.9s1,1.28,1.42,1.94l.47.68.35.54a2.26,2.26,0,0,1,.16.26,35.67,35.67,0,0,1,5.78,18.51,24,24,0,0,1-.25,3.53,43.35,43.35,0,0,1-.13,22.34,27.61,27.61,0,0,1-11.46,15.84,25.75,25.75,0,0,1-2.95,1.62,26.19,26.19,0,0,0,2.52,6.85,23.36,23.36,0,0,0,5.51,6.63,1.93,1.93,0,0,1,.22,2.72l-.15.16A193.26,193.26,0,0,1,381.35,274c16.5,7.1,29.27,14.92,39,23,12.11,10,19.65,20.52,24,30.63,7.75,18.1-17.69,49.49-22.72,55.44,1.59,3.31,5.52,13,2.5,22,8.39,2.74,15.14,5.82,19.88,9.16,5.17,3.65,8.06,7.67,8.25,12l16.14,32.93a9.17,9.17,0,0,1,.85,2.73c.67,5-3.31,9.78-10.94,14.06-7,3.95-17.39,7.64-30.09,10.85-28.1,7.09-68,11.86-109.55,11.86-40.78,0-79.88-4.56-107.85-11.41-13.17-3.23-23.91-7-31.25-11-7.92-4.36-12.08-9.23-11.42-14.38a9.12,9.12,0,0,1,.77-2.65L185.79,423l1.67-12.84a9.08,9.08,0,0,1,2.49-5.27h0a7.17,7.17,0,0,1,5.14-2.14h5v-2.15a4.78,4.78,0,0,1-3.42-1.43l-.12-.14a6.08,6.08,0,0,1-1.53-3.25l-1.28-8a4.28,4.28,0,0,1,1.34-3.88,5.46,5.46,0,0,1,2.93-1.47,5,5,0,0,1,.82-.07h13.47a4.84,4.84,0,0,1,.81.07,5.41,5.41,0,0,1,2.94,1.48,4.27,4.27,0,0,1,1.33,3.87l-.2,1.25,43-.66c.34-.19.69-.37,1.05-.55a29.2,29.2,0,0,1,12.16-2.41,33.2,33.2,0,0,1,6.88.7,262.71,262.71,0,0,1,1.58-26.53,88,88,0,0,1-10.36,7.34,52.45,52.45,0,0,1-14,6.12c-11.52,2.8-34.77-6.7-39.14-8.56-.52.19-1,.37-1.57.53a46.44,46.44,0,0,1-15.34,2,31.28,31.28,0,0,1-21.23-8.76,30.45,30.45,0,0,1-8-13A25.17,25.17,0,0,1,172,331a20.26,20.26,0,0,1,9.4-12c18-10.58,33.64-4.43,47.24.9,7.87,3.08,15,5.88,21,4.62A33.31,33.31,0,0,0,262.9,318Zm7.45,86.37,3,5.87,3.05-5.87c-1,.08-2,.13-3.05.13s-2.06-.05-3-.13Zm-2.53,3.48-2.21-4.25-.23-.06a19.81,19.81,0,0,1-6.07-2.54l-8-.52a1.88,1.88,0,0,1-.58.19,258.9,258.9,0,0,0-28.65,5.84l-.21.06a123.72,123.72,0,0,0-17.18,5.89c-7.36,3.24-12.39,6.74-14.53,10.33l-.61,1.33-.06.43a1.88,1.88,0,0,1-.38.93,6.31,6.31,0,0,0-.12,1.22c0,8,14.18,15.54,37.09,21.23,23.68,5.87,56.43,9.51,92.64,9.51s69-3.64,92.64-9.51c22.92-5.69,37.1-13.21,37.1-21.23,0-3.13-2.33-6.25-6.62-9.27-4.5-3.18-11.05-6.14-19.26-8.79-4.57,7.9-15.9,14.48-41,14.48-15.64,0-25.35-2.81-30.8-7.16a14.77,14.77,0,0,1-5.9-11.12,21,21,0,0,1,1.34-8.17q-6.07-.31-12.24-.5c-4.84-.14-9.94-.21-15.27-.21-5.09,0-9.95.07-14.55.19q-6.57.18-13.06.53a6.77,6.77,0,0,1-1.37,2.4,12.32,12.32,0,0,1-4,2.92,22.55,22.55,0,0,1-4.56,1.6l-6.07,11.71a1.9,1.9,0,0,1-.83.83,1.92,1.92,0,0,1-2.59-.83l-3.87-7.46Zm-56.75-7.25v2.15h10.14c4.37-1.19,9.08-2.29,14.08-3.3l-20-1.29a5.22,5.22,0,0,1-1.14,1.33,4.72,4.72,0,0,1-3.1,1.11Zm-3.86,2.15v-2.15H204v2.15Zm54.56-10.81-.1.06c-1.49.91-2.37,1.95-2.37,3a2.11,2.11,0,0,0,.38,1.16,5.43,5.43,0,0,0,1.35,1.37l.14.1a15.65,15.65,0,0,0,5.14,2.19,29.21,29.21,0,0,0,7.09.84,30,30,0,0,0,5.86-.56,20.42,20.42,0,0,0,4.79-1.55,8.47,8.47,0,0,0,2.74-1.95,2.53,2.53,0,0,0,.7-1.6c0-1.29-1.37-2.58-3.58-3.63a28.09,28.09,0,0,0-21,0c-.4.19-.77.39-1.12.59Zm-5.67.38-47.83.73c-.64,0-1,.14-1.12.31h0c.13.24.53.44,1.21.48l47.43,3.06a5.54,5.54,0,0,1-.35-1.93,5.72,5.72,0,0,1,.66-2.66Zm-47.89-3.12,5.11-.07.3-1.92v-.06a.68.68,0,0,0-.23-.46h0a1.56,1.56,0,0,0-.83-.41h-13.9a1.54,1.54,0,0,0-.83.42.65.65,0,0,0-.24.45v.07l1.28,8a2.32,2.32,0,0,0,.51,1.19l.07.07a1,1,0,0,0,.7.29h5a4.39,4.39,0,0,1-1.37-1.49,3.8,3.8,0,0,1-.5-1.92h0a3.74,3.74,0,0,1,.56-1.95,5,5,0,0,1,4.35-2.16Zm-16.94,21.46-.76,5.9a47.66,47.66,0,0,1,12.6-7.63c1.81-.79,3.74-1.57,5.8-2.32H195.1a3.33,3.33,0,0,0-2.42,1h0a5.29,5.29,0,0,0-1.4,3ZM465,460.84,450.83,432c-4.38,7.81-18.31,14.63-38.57,19.66-24,5.95-57.06,9.63-93.56,9.63s-69.58-3.68-93.56-9.63c-20.89-5.18-35-12.27-38.94-20.39L172.46,460.8a5,5,0,0,0-.46,1.52c-.44,3.38,3,7,9.46,10.52,7,3.88,17.46,7.51,30.3,10.65,27.67,6.79,66.44,11.3,106.94,11.3,41.25,0,80.8-4.73,108.61-11.75,12.38-3.12,22.39-6.68,29.15-10.47,6.17-3.46,9.44-6.93,9-10.18a5,5,0,0,0-.49-1.55ZM326.06,276.29a1.92,1.92,0,0,1,3.56,1.46,14.14,14.14,0,0,1-5.75,6.22,27.43,27.43,0,0,1-9.91,3.7A18.5,18.5,0,0,1,304,287a10.43,10.43,0,0,1-2.22-1.25,10.22,10.22,0,0,1-2.42,2.09,17.61,17.61,0,0,1-8.4,2.37,24.2,24.2,0,0,1-9.06-1.28,13.7,13.7,0,0,1-7.19-5.22,1.93,1.93,0,0,1,3.26-2.05,10,10,0,0,0,5.21,3.64,20.39,20.39,0,0,0,7.6,1.06,13.64,13.64,0,0,0,6.53-1.78,5.2,5.2,0,0,0,2.28-2.67v0a35.34,35.34,0,0,0-.63-4.21,1.93,1.93,0,1,1,3.79-.75,37.72,37.72,0,0,1,.6,5,5.4,5.4,0,0,0,2.1,1.48,14.88,14.88,0,0,0,7.83.46,23.46,23.46,0,0,0,8.49-3.16,10.5,10.5,0,0,0,4.24-4.42ZM223.45,201.23c1.73-5.32,17-48,66.86-58.12A83.09,83.09,0,0,1,332.23,145c.65.2,1.3.41,1.94.63a1.9,1.9,0,0,1,1.1.36l.06,0A88.85,88.85,0,0,1,360,159.69l.15.12c.7.55,1.39,1.11,2.07,1.67a1.53,1.53,0,0,1,.31.26c2.34,1.95,4.5,3.95,6.49,5.94a1.94,1.94,0,0,1,.11,2.6c-2.38,2.93-3.32,7.27-2.84,12.11a33.56,33.56,0,0,0,5.9,15.38l.88,1.21.08.12a29.71,29.71,0,0,0,12.95,10.18c4.33,1.59,8.54,1.47,11.71-.71l.32-.23a12.13,12.13,0,0,0,4.4-7.6,2,2,0,0,1,.05-.26,20.27,20.27,0,0,0,.31-3.63,31.69,31.69,0,0,0-5.21-16.49l-.1-.15-.34-.54-.42-.62c-.43-.62-.86-1.21-1.29-1.76s-.95-1.17-1.43-1.72l-.12-.14A102.39,102.39,0,0,0,347,142.65c-2-.68-4.06-1.31-6.14-1.87l-.18-.05a112.66,112.66,0,0,0-52.59-1.16c-17.32,3.59-30.89,10.66-41.39,19.59A89.91,89.91,0,0,0,221,196.72c-3.61,9.73-5.12,17.27-5.49,23.05a46.22,46.22,0,0,1,1.39-6.74c1.39-4.79,3.56-9,6.59-11.8Zm67.63-54.35a83.67,83.67,0,0,0-46.89,26.73c7.7,1.49,16.12,3.91,19,4.77,6.53-5.83,16.22-10.3,26.73-12.82,10.35-2.47,21.55-3.07,31.38-1.21,1.5-2.68,5.27-9.25,9.7-15.72a79.32,79.32,0,0,0-39.95-1.75ZM233.23,189a86,86,0,0,0-4.45,9,14.51,14.51,0,0,1,3.85-.71,17.35,17.35,0,0,1,11.31-5.25c-1.26-.47-2.54-.91-3.84-1.31a63.8,63.8,0,0,0-6.87-1.77Zm131.88-19.71c-1.34-1.3-2.76-2.6-4.26-3.88l-.23.13a14.59,14.59,0,0,0-1.23.82c-4.55,3.41-6.72,9.45-6.53,16.47.19,7.27,2.89,15.52,8.07,23,.39.57.78,1.12,1.16,1.63,5.09,6.79,11.36,11.57,17.53,13.83,5.92,2.17,11.69,2,16.05-1l.45-.32h0a15.52,15.52,0,0,0,5.27-7.5,22.39,22.39,0,0,0,.71-2.53,14.82,14.82,0,0,1-1.68,1.48l-.45.33c-4.27,2.93-9.73,3.16-15.22,1.15a33.55,33.55,0,0,1-14.69-11.49l-.1-.12c-.28-.37-.6-.82-.95-1.34a37.29,37.29,0,0,1-6.57-17.18c-.51-5.14.38-9.89,2.67-13.51Zm-11-9.12a88.19,88.19,0,0,0-9.23-5.7,112.22,112.22,0,0,0-8.58,14.72l1.31.4,2,.64a25.83,25.83,0,0,1,7-6.74,2.11,2.11,0,0,1,.31-.21,25.68,25.68,0,0,1,5.51-2.61c.56-.18,1.12-.35,1.69-.5ZM348.26,139a106.6,106.6,0,0,1,14.44,6.12,47.09,47.09,0,0,0-2.93-5.38,16.19,16.19,0,0,0-5.4-5.67c-3.46-1.85-5.91.32-9.42,3.87,1.12.34,2.22.69,3.31,1.06ZM217.34,195.39a99,99,0,0,1,9.8-19.62,30.67,30.67,0,0,0-6,.66,10.51,10.51,0,0,0-5.84,3c-1.38,1.63-1.75,4.6-1.39,8.34a53.22,53.22,0,0,0,2.34,10.64q.5-1.48,1.08-3Zm11.55,6.76c-4,1.93-6.74,6.43-8.33,11.95a46.68,46.68,0,0,0-1.69,11.41,52,52,0,0,0,.93,11.61c1.11,5.57,3.12,10.27,5.87,12.59l-.13-.4a64.85,64.85,0,0,1-3-21.14,59.41,59.41,0,0,1,3.94-21.24,35.56,35.56,0,0,1,2.4-4.78Zm16.34-6.28c-7.18.09-12.17,5.23-15.18,12.53a55.44,55.44,0,0,0-3.66,19.82,61,61,0,0,0,2.8,19.87c2.28,6.79,5.87,11.68,10.5,12.24-.36-3-.91-5.87-1.48-8.85-2.57-13.62-5.4-28.65,7-55.61Zm158.44,21a18.52,18.52,0,0,1-5.24,6.18h0l-.57.4c-5.47,3.76-12.49,4.06-19.57,1.46-6.82-2.51-13.73-7.74-19.27-15.14-.44-.59-.86-1.17-1.26-1.75-5.61-8.15-8.54-17.16-8.75-25.14s2.35-15.15,7.75-19.39a24.69,24.69,0,0,0-3.1.79,22.12,22.12,0,0,0-4.81,2.3h0a22.07,22.07,0,0,0-6.39,6.27,2.37,2.37,0,0,1-.09.36,1.92,1.92,0,0,1-.73.94,30.37,30.37,0,0,0-3.91,13.46c-.61,9.2,2.08,19.68,8.2,29.26S360.44,233.29,369,236.6c8.4,3.22,17,3.05,23.77-1.28a23.87,23.87,0,0,0,9.84-13.69,33.21,33.21,0,0,0,1-4.76ZM318.7,417a106.21,106.21,0,0,1,19.81,1.71c5.83,1.14,10.18,2.85,12.11,4.88a5,5,0,0,1,1,1.4,4.08,4.08,0,0,1,.4,1.72c0,3.15-4.07,5.74-10.66,7.37a110.69,110.69,0,0,1-45.28,0c-6.58-1.63-10.65-4.22-10.65-7.37a4.25,4.25,0,0,1,.94-2.62,8.07,8.07,0,0,1,2.13-1.86c2.54-1.6,6.86-2.94,12.28-3.86A109.71,109.71,0,0,1,318.7,417Zm19.07,5.49a102.55,102.55,0,0,0-19.07-1.63,106.26,106.26,0,0,0-17.31,1.31c-4.93.84-8.75,2-10.85,3.32a4.15,4.15,0,0,0-1.12.93.6.6,0,0,0-.15.29c0,1.15,3,2.45,7.71,3.63a107.36,107.36,0,0,0,43.44,0c4.77-1.18,7.72-2.48,7.72-3.63a.16.16,0,0,0,0-.09,1.29,1.29,0,0,0-.28-.38c-1.36-1.44-5-2.75-10.06-3.75Z"/><path class="cls-9" d="M301,277.26s-11.7-3.4-13.21-9.29,20.94-11.1,23.84-5.78S301,277.26,301,277.26Z"/><path class="cls-10" d="M262.72,236c5.71-.92,11.16,3.6,12.17,10.09s-2.79,12.49-8.5,13.41-11.16-3.61-12.18-10.1,2.8-12.49,8.51-13.4Z"/><path class="cls-10" d="M331,225c5.71-.92,11.17,3.6,12.18,10.09s-2.8,12.49-8.51,13.41-11.16-3.61-12.17-10.09,2.79-12.5,8.5-13.41Z"/><path class="cls-11" d="M337.77,422.45a102.55,102.55,0,0,0-19.07-1.63,106.26,106.26,0,0,0-17.31,1.31c-4.93.84-8.75,2-10.85,3.32a4.15,4.15,0,0,0-1.12.93.6.6,0,0,0-.15.29c0,1.15,3,2.45,7.71,3.63a107.36,107.36,0,0,0,43.44,0c4.77-1.18,7.72-2.48,7.72-3.63a.16.16,0,0,0,0-.09,1.29,1.29,0,0,0-.28-.38c-1.36-1.44-5-2.75-10.06-3.75Z"/><path class="cls-4" d="M403.67,216.87a18.52,18.52,0,0,1-5.24,6.18h0l-.57.4c-5.47,3.76-12.49,4.06-19.57,1.46-6.82-2.51-13.73-7.74-19.27-15.14-.44-.59-.86-1.17-1.26-1.75-5.61-8.15-8.54-17.16-8.75-25.14s2.35-15.15,7.75-19.39a24.69,24.69,0,0,0-3.1.79,22.12,22.12,0,0,0-4.81,2.3h0a22.07,22.07,0,0,0-6.39,6.27,2.37,2.37,0,0,1-.09.36,1.92,1.92,0,0,1-.73.94,30.37,30.37,0,0,0-3.91,13.46c-.61,9.2,2.08,19.68,8.2,29.26S360.44,233.29,369,236.6c8.4,3.22,17,3.05,23.77-1.28a23.87,23.87,0,0,0,9.84-13.69,33.21,33.21,0,0,0,1-4.76Z"/><path class="cls-4" d="M245.23,195.87c-7.18.09-12.17,5.23-15.18,12.53a55.44,55.44,0,0,0-3.66,19.82,61,61,0,0,0,2.8,19.87c2.28,6.79,5.87,11.68,10.5,12.24-.36-3-.91-5.87-1.48-8.85-2.57-13.62-5.4-28.65,7-55.61Z"/><path class="cls-12" d="M228.89,202.15c-4,1.93-6.74,6.43-8.33,11.95a46.68,46.68,0,0,0-1.69,11.41,52,52,0,0,0,.93,11.61c1.11,5.57,3.12,10.27,5.87,12.59l-.13-.4a64.85,64.85,0,0,1-3-21.14,59.41,59.41,0,0,1,3.94-21.24,35.56,35.56,0,0,1,2.4-4.78Z"/><path class="cls-5" d="M217.34,195.39a99,99,0,0,1,9.8-19.62,30.67,30.67,0,0,0-6,.66,10.51,10.51,0,0,0-5.84,3c-1.38,1.63-1.75,4.6-1.39,8.34a53.22,53.22,0,0,0,2.34,10.64q.5-1.48,1.08-3Z"/><path class="cls-5" d="M348.26,139a106.6,106.6,0,0,1,14.44,6.12,47.09,47.09,0,0,0-2.93-5.38,16.19,16.19,0,0,0-5.4-5.67c-3.46-1.85-5.91.32-9.42,3.87,1.12.34,2.22.69,3.31,1.06Z"/><path class="cls-7" d="M354.13,160.14a88.19,88.19,0,0,0-9.23-5.7,112.22,112.22,0,0,0-8.58,14.72l1.31.4,2,.64a25.83,25.83,0,0,1,7-6.74,2.11,2.11,0,0,1,.31-.21,25.68,25.68,0,0,1,5.51-2.61c.56-.18,1.12-.35,1.69-.5Z"/><path class="cls-12" d="M365.11,169.26c-1.34-1.3-2.76-2.6-4.26-3.88l-.23.13a14.59,14.59,0,0,0-1.23.82c-4.55,3.41-6.72,9.45-6.53,16.47.19,7.27,2.89,15.52,8.07,23,.39.57.78,1.12,1.16,1.63,5.09,6.79,11.36,11.57,17.53,13.83,5.92,2.17,11.69,2,16.05-1l.45-.32h0a15.52,15.52,0,0,0,5.27-7.5,22.39,22.39,0,0,0,.71-2.53,14.82,14.82,0,0,1-1.68,1.48l-.45.33c-4.27,2.93-9.73,3.16-15.22,1.15a33.55,33.55,0,0,1-14.69-11.49l-.1-.12c-.28-.37-.6-.82-.95-1.34a37.29,37.29,0,0,1-6.57-17.18c-.51-5.14.38-9.89,2.67-13.51Z"/><path class="cls-7" d="M233.23,189a86,86,0,0,0-4.45,9,14.51,14.51,0,0,1,3.85-.71,17.35,17.35,0,0,1,11.31-5.25c-1.26-.47-2.54-.91-3.84-1.31a63.8,63.8,0,0,0-6.87-1.77Z"/><path class="cls-12" d="M223.45,201.23c1.73-5.32,17-48,66.86-58.12A83.09,83.09,0,0,1,332.23,145c.65.2,1.3.41,1.94.63a1.9,1.9,0,0,1,1.1.36l.06,0A88.85,88.85,0,0,1,360,159.69l.15.12c.7.55,1.39,1.11,2.07,1.67a1.53,1.53,0,0,1,.31.26c2.34,1.95,4.5,3.95,6.49,5.94a1.94,1.94,0,0,1,.11,2.6c-2.38,2.93-3.32,7.27-2.84,12.11a33.56,33.56,0,0,0,5.9,15.38l.88,1.21.08.12a29.71,29.71,0,0,0,12.95,10.18c4.33,1.59,8.54,1.47,11.71-.71l.32-.23a12.13,12.13,0,0,0,4.4-7.6,2,2,0,0,1,.05-.26,20.27,20.27,0,0,0,.31-3.63,31.69,31.69,0,0,0-5.21-16.49l-.1-.15-.34-.54-.42-.62c-.43-.62-.86-1.21-1.29-1.76s-.95-1.17-1.43-1.72l-.12-.14A102.39,102.39,0,0,0,347,142.65c-2-.68-4.06-1.31-6.14-1.87l-.18-.05a112.66,112.66,0,0,0-52.59-1.16c-17.32,3.59-30.89,10.66-41.39,19.59A89.91,89.91,0,0,0,221,196.72c-3.61,9.73-5.12,17.27-5.49,23.05a46.22,46.22,0,0,1,1.39-6.74c1.39-4.79,3.56-9,6.59-11.8Z"/><path class="cls-13" d="M465,460.84,450.83,432c-4.38,7.81-18.31,14.63-38.57,19.66-24,5.95-57.06,9.63-93.56,9.63s-69.58-3.68-93.56-9.63c-20.89-5.18-35-12.27-38.94-20.39L172.46,460.8a5,5,0,0,0-.46,1.52c-.44,3.38,3,7,9.46,10.52,7,3.88,17.46,7.51,30.3,10.65,27.67,6.79,66.44,11.3,106.94,11.3,41.25,0,80.8-4.73,108.61-11.75,12.38-3.12,22.39-6.68,29.15-10.47,6.17-3.46,9.44-6.93,9-10.18a5,5,0,0,0-.49-1.55Z"/><path class="cls-14" d="M446.17,437.34c-6.65,5.58-18.43,10.46-33.91,14.3-24,5.95-57.06,9.63-93.56,9.63s-69.58-3.68-93.56-9.63c-15.73-3.9-27.65-8.89-34.23-14.58L182.11,456a4.87,4.87,0,0,0-.43,1.42c-.41,3.16,2.81,6.51,8.84,9.83,6.58,3.62,16.31,7,28.3,9.95,25.84,6.33,62.05,10.54,99.88,10.54,38.53,0,75.47-4.41,101.45-11,11.56-2.92,20.91-6.25,27.22-9.78,5.76-3.24,8.82-6.48,8.41-9.51a4.79,4.79,0,0,0-.46-1.45l-9.15-18.68Z"/><path class="cls-14" d="M191.27,410.63l-.76,5.9a47.66,47.66,0,0,1,12.6-7.63c1.81-.79,3.74-1.57,5.8-2.32H195.1a3.33,3.33,0,0,0-2.42,1h0a5.29,5.29,0,0,0-1.4,3Z"/><path class="cls-14" d="M208.21,389.17l5.11-.07.3-1.92v-.06a.68.68,0,0,0-.23-.46h0a1.56,1.56,0,0,0-.83-.41h-13.9a1.54,1.54,0,0,0-.83.42.65.65,0,0,0-.24.45v.07l1.28,8a2.32,2.32,0,0,0,.51,1.19l.07.07a1,1,0,0,0,.7.29h5a4.39,4.39,0,0,1-1.37-1.49,3.8,3.8,0,0,1-.5-1.92h0a3.74,3.74,0,0,1,.56-1.95,5,5,0,0,1,4.35-2.16Z"/><path class="cls-14" d="M256.1,392.29l-47.83.73c-.64,0-1,.14-1.12.31h0c.13.24.53.44,1.21.48l47.43,3.06a5.54,5.54,0,0,1-.35-1.93,5.72,5.72,0,0,1,.66-2.66Z"/><path class="cls-14" d="M261.77,391.91l-.1.06c-1.49.91-2.37,1.95-2.37,3a2.11,2.11,0,0,0,.38,1.16,5.43,5.43,0,0,0,1.35,1.37l.14.1a15.65,15.65,0,0,0,5.14,2.19,29.21,29.21,0,0,0,7.09.84,30,30,0,0,0,5.86-.56,20.42,20.42,0,0,0,4.79-1.55,8.47,8.47,0,0,0,2.74-1.95,2.53,2.53,0,0,0,.7-1.6c0-1.29-1.37-2.58-3.58-3.63a28.09,28.09,0,0,0-21,0c-.4.19-.77.39-1.12.59Z"/><polygon class="cls-14" points="207.21 402.71 207.21 400.57 204 400.57 204 402.71 207.21 402.71 207.21 402.71"/><path class="cls-11" d="M270.35,404.34l3,5.87,3.05-5.87c-1,.08-2,.13-3.05.13s-2.06-.05-3-.13Z"/><path class="cls-5" d="M278.84,307.05a78,78,0,0,1-13.59,14,37,37,0,0,1-14.77,7.31c-7.17,1.49-14.81-1.5-23.24-4.8-12.79-5-27.52-10.8-43.88-1.17a16.53,16.53,0,0,0-7.66,9.73,21.34,21.34,0,0,0,.26,12.07,26.54,26.54,0,0,0,6.93,11.32,27.56,27.56,0,0,0,18.66,7.68,42.91,42.91,0,0,0,14.08-1.82,35.39,35.39,0,0,0,13.79-8.07,1.93,1.93,0,0,1,2.64,2.81,39.69,39.69,0,0,1-8.8,6.26c7.78,3.07,24.67,9.07,33.32,7a48.13,48.13,0,0,0,12.95-5.67,78.2,78.2,0,0,0,13-9.76,300.2,300.2,0,0,1,5.79-32.17,1.93,1.93,0,0,1,3.75.93,291.33,291.33,0,0,0-5.78,32.25l0,.23a262.54,262.54,0,0,0-2.13,32.12c.49.19,1,.39,1.42.6,2.67,1.27,4.58,3,5.39,5q6.38-.35,13.1-.53,7.48-.19,14.66-.2,7.56,0,15.38.23,7.07.19,13.78.57l.25-.47c5-9.42,15.09-18.41,23.6-22.12,7.28-6.65,11.48-13.71,16.14-21.55,1.21-2.05,2.45-4.14,3.79-6.29-3.76-7.83-13.76-21.62-13.79-21.66a1.92,1.92,0,1,1,3.12-2.25s8.62,11.88,13.07,20.15A124.5,124.5,0,0,1,404.38,325a1.92,1.92,0,1,1,2.89,2.53,125.41,125.41,0,0,0-11.78,16l-.06.1c-1.52,2.42-2.91,4.76-4.27,7-4.84,8.15-9.21,15.5-17.05,22.6a1.91,1.91,0,0,1-.6.4c-7.86,3.33-17.31,11.71-22,20.52-.21.38-.4.75-.58,1.13a1.91,1.91,0,0,1-.31.66,18.86,18.86,0,0,0-1.91,8.61,11.06,11.06,0,0,0,4.44,8.31c4.81,3.83,13.73,6.31,28.41,6.31,55,0,36.93-34,36.13-35.43a1.94,1.94,0,0,1,.22-2.24c.08-.1,30.53-34.61,22.92-52.39-4.11-9.58-11.3-19.56-22.9-29.17-9.89-8.19-22.95-16.09-40-23.24a207.78,207.78,0,0,1-25.05,17c-15.52,8.89-32,15.33-47.27,16.72-9.1.83-18.26-.72-26.79-3.42Z"/><path class="cls-6" d="M284.21,381.22c0,2-.08,4-.08,6,.49.19,1,.39,1.42.6,2.67,1.27,4.58,3,5.39,5q6.38-.35,13.1-.53,7.48-.19,14.66-.2,7.56,0,15.38.23,7.07.19,13.78.57l.25-.47c5-9.42,15.09-18.41,23.6-22.12,7.28-6.65,11.48-13.71,16.14-21.55,1.21-2.05,2.45-4.14,3.79-6.29-3.76-7.83-13.76-21.62-13.79-21.66s7.62,45.06-34.17,59.13c-30.32,10.2-48.11,4.3-59.47,1.31ZM381,318.53s8.62,11.88,13.07,20.15A127.58,127.58,0,0,1,401.89,328a17.63,17.63,0,0,1-9.9-1,34.93,34.93,0,0,1-11-8.41ZM349.16,400.2a15.34,15.34,0,0,0-.44,4.41,11.06,11.06,0,0,0,4.44,8.31c4.81,3.83,13.73,6.31,28.41,6.31,55,0,36.93-34,36.13-35.43a1.94,1.94,0,0,1,.22-2.24c.08-.1,30.53-34.61,22.92-52.39a64.33,64.33,0,0,0-4.42-8.47c7.5,25.31-26.54,63-26.54,63a26.39,26.39,0,0,1,2.49,11.79c-.21,6.62-5.18,16.34-33,15.92s-30.19-11.23-30.2-11.25Z"/><path class="cls-6" d="M179.46,325.46a16.48,16.48,0,0,0-3.76,6.63,21.34,21.34,0,0,0,.26,12.07,26.54,26.54,0,0,0,6.93,11.32,27.56,27.56,0,0,0,18.66,7.68,42.91,42.91,0,0,0,14.08-1.82,35.39,35.39,0,0,0,13.79-8.07c-24.07,9.85-54-1-50-27.81Zm53.12,28.67a1.94,1.94,0,0,1-.52,1.95,39.69,39.69,0,0,1-8.8,6.26c7.78,3.07,24.67,9.07,33.32,7a48.13,48.13,0,0,0,12.95-5.67,78.2,78.2,0,0,0,13-9.76c1.65-12.94,3.78-23.35,5-28.55,0,0-17.87,26.35-30.08,29.66-8.85,2.4-19.59.42-24.82-.85Z"/><path class="cls-6" d="M278.84,307.05c-1.24,1.61-2.73,3.44-4.43,5.34,2.69,1.18,5.49,2.29,8.37,3.27a2,2,0,0,1,1.05.34c8.28,2.7,17.19,4.27,26,3.47,14.64-1.33,30.61-7.6,45.7-16.24a203.07,203.07,0,0,0,24.87-16.9,2,2,0,0,1,1.07-.85q2.88-2.3,5.6-4.65c-2.91-1.38-5.94-2.74-9.12-4.07a207.78,207.78,0,0,1-25.05,17c-15.52,8.89-32,15.33-47.27,16.72-9.1.83-18.26-.72-26.79-3.42Z"/><path class="cls-10" d="M357.81,274.8a1.1,1.1,0,0,0,1.14-1.89s-8.36-5.12-21.78-6.79a1.1,1.1,0,1,0-.27,2.18c13,1.62,20.89,6.49,20.91,6.5Zm.8-10.66a1.08,1.08,0,0,0,1.31-.82,1.1,1.1,0,0,0-.83-1.32s-9.53-2.29-22.8.26a1.08,1.08,0,0,0-.87,1.28,1.1,1.1,0,0,0,1.28.88c12.82-2.46,21.88-.28,21.91-.28Zm-1.29-10.65a1.1,1.1,0,0,0-.12-2.19s-9.8.44-21.84,6.57a1.1,1.1,0,0,0,1,2c11.63-5.92,20.94-6.35,21-6.35ZM249.49,291.6a1.09,1.09,0,0,1-1.55.1,1.11,1.11,0,0,1-.1-1.56s6.42-7.41,18.69-13.07a1.12,1.12,0,0,1,1.47.54,1.1,1.1,0,0,1-.55,1.46c-11.84,5.47-17.94,12.51-18,12.53Zm-4-9.92a1.1,1.1,0,1,1-1.11-1.89s8.39-5.07,21.81-6.66a1.09,1.09,0,0,1,1.22,1,1.1,1.1,0,0,1-1,1.22c-13,1.54-20.94,6.36-21,6.37Zm-2-10.54A1.1,1.1,0,1,1,243,269s9.47-2.54,22.81-.35a1.1,1.1,0,1,1-.36,2.18c-12.87-2.12-21.87.3-21.9.3Z"/><path class="cls-15" d="M267.92,240c1.67,0,3,1.63,3,3.64s-1.35,3.65-3,3.65-3-1.63-3-3.65,1.35-3.64,3-3.64Z"/><path class="cls-15" d="M335.07,228.9c1.67,0,3,1.64,3,3.65s-1.35,3.65-3,3.65-3-1.64-3-3.65,1.36-3.65,3-3.65Z"/></g></svg>