<?xml version="1.0" encoding="UTF-8" standalone="no"?>
<svg
   xmlns:sketch="http://www.bohemiancoding.com/sketch/ns"
   xmlns:dc="http://purl.org/dc/elements/1.1/"
   xmlns:cc="http://creativecommons.org/ns#"
   xmlns:rdf="http://www.w3.org/1999/02/22-rdf-syntax-ns#"
   xmlns:svg="http://www.w3.org/2000/svg"
   xmlns="http://www.w3.org/2000/svg"
   id="svg15"
   version="1.1"
   viewBox="0 0 24 24"
   height="24px"
   width="24px">
  <metadata
     id="metadata19">
    <rdf:RDF>
      <cc:Work
         rdf:about="">
        <dc:format>image/svg+xml</dc:format>
        <dc:type
           rdf:resource="http://purl.org/dc/dcmitype/StillImage" />
        <dc:title>ic_cast_black_24dp</dc:title>
      </cc:Work>
    </rdf:RDF>
  </metadata>
  <!-- Generator: Sketch 3.2.2 (9983) - http://www.bohemiancoding.com/sketch -->
  <title
     id="title2">ic_cast_black_24dp</title>
  <desc
     id="desc4">Created with Sketch.</desc>
  <defs
     id="defs6" />
  <g
     fill="none"
     fill-rule="evenodd"
     stroke="none"
     stroke-width="1"
     sketch:type="MSPage"
     id="Page-1">
    <g
       sketch:type="MSArtboardGroup"
       id="ic_cast_black_24dp">
      <g
         sketch:type="MSLayerGroup"
         id="ic_remove_circle_white_24dp">
        <path
           style="fill:#ffffff;fill-opacity:1"
           fill="#000000"
           sketch:type="MSShapeGroup"
           id="cast"
           d="M1,18 L1,21 L4,21 C4,19.34 2.66,18 1,18 L1,18 Z M1,14 L1,16 C3.76,16 6,18.24 6,21 L8,21 C8,17.13 4.87,14 1,14 L1,14 Z M1,10 L1,12 C5.97,12 10,16.03 10,21 L12,21 C12,14.92 7.07,10 1,10 L1,10 Z M21,3 L3,3 C1.9,3 1,3.9 1,5 L1,8 L3,8 L3,5 L21,5 L21,19 L14,19 L14,21 L21,21 C22.1,21 23,20.1 23,19 L23,5 C23,3.9 22.1,3 21,3 L21,3 Z" />
        <rect
           height="24"
           width="24"
           y="0"
           x="0"
           sketch:type="MSShapeGroup"
           id="bounds" />
      </g>
    </g>
    <g
       transform="translate(-208.000000, -106.000000)"
       sketch:type="MSLayerGroup"
       id="assets">
      <g
         transform="translate(0.000000, 114.000000)"
         id="64px" />
    </g>
  </g>
</svg>
