<svg xmlns="http://www.w3.org/2000/svg" viewBox="0 0 800 800"><defs><style>.cls-1{fill:#303335;}.cls-2{fill:#1a1a1a;}.cls-3{fill:#4d4d4d;}.cls-4{fill:#a0afba;}.cls-5{fill:#78848c;}.cls-6{fill:#dcf1ff;}.cls-7{fill:#9cadb5;}.cls-14,.cls-8{stroke:#000;stroke-miterlimit:22.93;stroke-width:0.57px;}.cls-14,.cls-8,.cls-9{fill-rule:evenodd;}.cls-10{fill:#b3b3b3;}.cls-11{fill:#f74343;}.cls-12{fill:#333;}.cls-13{fill:#666;}.cls-14{fill:#fff;}</style></defs><g id="Layer_1" data-name="Layer 1"><rect class="cls-1" width="800" height="800"/><path class="cls-2" d="M307.36,570.7l-4-7.73-.43-.1a36.41,36.41,0,0,1-11-4.63l-14.59-.94a3.38,3.38,0,0,1-1.06.34,469.23,469.23,0,0,0-52.11,10.62,2.62,2.62,0,0,1-.4.11,224.25,224.25,0,0,0-31.26,10.73C179.08,585,169.93,591.35,166,597.89l-1.12,2.41-.1.79a3.41,3.41,0,0,1-.7,1.69,11.92,11.92,0,0,0-.21,2.22c0,14.59,25.79,28.28,67.49,38.63,43.08,10.69,102.67,17.3,168.56,17.3s125.48-6.61,168.56-17.3C610.2,633.28,636,619.59,636,605c0-5.69-4.24-11.38-12-16.87-8.21-5.78-20.12-11.17-35.05-16-8.32,14.38-28.94,26.35-74.59,26.35-28.45,0-46.12-5.12-56-13-7.08-5.64-10.32-12.64-10.73-20.25A38.24,38.24,0,0,1,450,550.37q-11-.58-22.27-.91-13.23-.39-27.78-.39-13.9,0-26.49.35-11.94.33-23.75,1a12.39,12.39,0,0,1-2.5,4.37,22.35,22.35,0,0,1-7.24,5.31,41.48,41.48,0,0,1-8.29,2.92l-11,21.29a3.51,3.51,0,0,1-6.24,0l-7-13.58Z"/><path class="cls-3" d="M468,645.51c-21.08,1.86-44,2.89-68.07,2.89-25.45,0-49.76-1.16-71.94-3.25a480.14,480.14,0,0,1-60.91-9.28c-16.89-3.87-30.52-8.48-39.86-13.6-3.45-1.9-16.67-11.08-10.72-17.48,0,4.76,4.5,9.49,12.65,14,9,5,22.29,9.43,38.82,13.21a475.75,475.75,0,0,0,60.4,9.21c22,2.07,46.13,3.21,71.56,3.21,23.91,0,46.76-1,67.73-2.87A505.88,505.88,0,0,0,526,633.26c-7.1,8.36-49.36,11.49-57.94,12.25Zm-44.19-65.68q-5.93-.17-11.9-.25-5.37-.08-12-.07c-12.05,0-23.67.24-34.72.7-11.39.47-22.37,1.18-32.78,2.09,12-8.39,78-8.55,91.38-2.47Zm104.82,42c-9.16,2.4-56.07,12.11-72.57,6.47,12.24-.86,47.27-4,71.56-10.35,13.63-3.57,23.72-8,23.72-13.12,4.25,10.82-20.54,16.43-22.71,17Zm-265.51-2.48c-11.9-4.07-18.62-9-18.62-14.52,0-8.73,21.7-15.61,30.44-13.81-8.78,2.22-15.69,4.68-20.33,7.29h0c-4,2.23-6.09,4.43-6.09,6.52,0,3.58,5.73,7.25,15.88,10.72,11.31,3.88,27.77,7.21,47.79,9.72-9.51,3.4-40.94-3.13-49.07-5.92Zm35.8-51.51c9.3-1.36,49.11-5.63,61-1.71-21.83,1.08-42.24,3-60.45,5.67-18.52,2.7-34.74,6.11-47.86,10.07,10-7.65,39.63-12.92,47.29-14Zm243.52,8.22c1.77.47,39.13,8.46,40.92,28.69,0-9.15-15.77-17.83-41.94-24.81C514,572.66,475.51,567.5,431.7,565.8c24.32-6.58,96.88,6.6,110.76,10.3Z"/><path class="cls-4" d="M326.3,379.67a3.47,3.47,0,0,1,1.91.64c15.07,4.89,31.29,7.76,47.31,6.3,26.65-2.42,55.69-13.82,83.16-29.55a371.5,371.5,0,0,0,45.25-30.74,3.57,3.57,0,0,1,1.94-1.55,348.53,348.53,0,0,0,34.67-31.67,48.19,48.19,0,0,1-8.92-11.57,54.56,54.56,0,0,1-5.06-13.34c-11.71,3.45-24.76,2.41-37.52-2.49-16.89-6.49-33.3-19.78-45.26-38.36a3.41,3.41,0,0,1-.36-.57c-11.85-18.65-17.05-39.11-15.85-57.15a63.52,63.52,0,0,1,6.68-25.11l-1.95-.63c-2.11-.65-4.16-1.25-6.16-1.78a3.73,3.73,0,0,1-.56-.2,3.51,3.51,0,0,1-1.73-4.64s7.86-17.13,17.44-30.75c-3.86-1.83-7.87-3.53-12-5.06-10.66,15.34-19.61,31.84-19.63,31.89a3.53,3.53,0,0,1-3.83,1.76c-17.46-3.78-37.79-2.85-56.55,1.63s-36,12.55-46.94,23a3.5,3.5,0,0,1-3.43.81c-.07,0-22-6.76-39.71-9.78a162.72,162.72,0,0,0-11,15.4c3.52.78,7.17,1.77,10.79,2.9a145.6,145.6,0,0,1,15.85,6l.14.07a3.49,3.49,0,0,1,1.56,4.69c-.56,1.14-1.11,2.25-1.65,3.36a4,4,0,0,1-.31.66C250.67,233.5,255.78,260.52,260.39,285c3.39,17.95,6.53,34.56-1.32,57.32,7.2,5.74,34.32,26.26,67.23,37.4Z"/><path class="cls-5" d="M326.3,379.67a3.47,3.47,0,0,1,1.91.64c15.07,4.89,31.29,7.76,47.31,6.3,26.65-2.42,55.69-13.82,83.16-29.55a371.5,371.5,0,0,0,45.25-30.74,3.57,3.57,0,0,1,1.94-1.55,348.53,348.53,0,0,0,34.67-31.67,48.19,48.19,0,0,1-8.92-11.57,54.56,54.56,0,0,1-5.06-13.34c-11.71,3.45-24.76,2.41-37.52-2.49-16.89-6.49-33.3-19.78-45.26-38.36a3.41,3.41,0,0,1-.36-.57c-11.85-18.65-17.05-39.11-15.85-57.15a63.52,63.52,0,0,1,6.68-25.11l-1.95-.63c-2.11-.65-4.16-1.25-6.16-1.78,0,0-13.13,46.36,1.55,82.87s60.23,61,58.35,81.32-52.22,56.26-107.28,64.37c-49.06,7.22-96.25-23.61-116.57-39.57a90.81,90.81,0,0,1-3.12,11.18c7.2,5.74,34.32,26.26,67.23,37.4Z"/><path class="cls-6" d="M326.3,379.67a3.47,3.47,0,0,1,1.91.64c15.07,4.89,31.29,7.76,47.31,6.3,26.65-2.42,55.69-13.82,83.16-29.55l2.65-1.54a24.49,24.49,0,0,0-.18-7.94c-4.67-26-46.82-54-91.8-49.45s-75.74,40.05-71.07,66.07a25.92,25.92,0,0,0,1,3.9,197.31,197.31,0,0,0,27,11.57Z"/><path class="cls-7" d="M326.3,379.67a3.47,3.47,0,0,1,1.91.64c15.07,4.89,31.29,7.76,47.31,6.3,26.65-2.42,55.69-13.82,83.16-29.55l2.65-1.54a24.49,24.49,0,0,0-.18-7.94,33.47,33.47,0,0,0-2.82-8.53,193.24,193.24,0,0,1-79.57,31.61c-29.32,4.32-58-5-80.62-16.53a32.3,32.3,0,0,0,.14,10.07,25.92,25.92,0,0,0,1,3.9,197.31,197.31,0,0,0,27,11.57Z"/><path class="cls-6" d="M379.45,132.78A138.18,138.18,0,0,0,363.79,134c-1.61,9.88-2.07,19.45,1.35,22.5,4.38,3.9,9.36-9.47,14.31-23.74ZM358,134.92c-2.94.51-5.87,1.12-8.75,1.81s-5.44,1.38-8.09,2.19c-1.79,10.32-2.44,20.62,1.13,23.79,4.8,4.28,10.31-12.15,15.71-27.79Zm-24,6.39a110.89,110.89,0,0,0-17.78,8.21c-1.42,9.33-1.66,18.09,1.58,21,5,4.4,10.64-13.15,16.2-29.19Z"/><path d="M326.3,379.67a3.47,3.47,0,0,1,1.91.64c15.07,4.89,31.29,7.76,47.31,6.3,26.65-2.42,55.69-13.82,83.16-29.55a371.5,371.5,0,0,0,45.25-30.74,3.57,3.57,0,0,1,1.94-1.55,348.53,348.53,0,0,0,34.67-31.67,48.19,48.19,0,0,1-8.92-11.57,54.56,54.56,0,0,1-5.06-13.34c-11.71,3.45-24.76,2.41-37.52-2.49-16.89-6.49-33.3-19.78-45.26-38.36a3.41,3.41,0,0,1-.36-.57c-11.85-18.65-17.05-39.11-15.85-57.15a63.52,63.52,0,0,1,6.68-25.11l-1.95-.63c-2.11-.65-4.16-1.25-6.16-1.78a3.73,3.73,0,0,1-.56-.2,3.51,3.51,0,0,1-1.73-4.64s7.86-17.13,17.44-30.75c-3.86-1.83-7.87-3.53-12-5.06-10.66,15.34-19.61,31.84-19.63,31.89a3.53,3.53,0,0,1-3.83,1.76c-17.46-3.78-37.79-2.85-56.55,1.63s-36,12.55-46.94,23a3.5,3.5,0,0,1-3.43.81c-.07,0-22-6.76-39.71-9.78a162.72,162.72,0,0,0-11,15.4c3.52.78,7.17,1.77,10.79,2.9a145.6,145.6,0,0,1,15.85,6l.14.07a3.49,3.49,0,0,1,1.56,4.69c-.56,1.14-1.11,2.25-1.65,3.36a4,4,0,0,1-.31.66C250.67,233.5,255.78,260.52,260.39,285c3.39,17.95,6.53,34.56-1.32,57.32,7.2,5.74,34.32,26.26,67.23,37.4Zm1.13,7.69c-5.71,7.41-14.32,17.36-24.73,25.41-8,6.2-17.15,11.29-26.88,13.31-13.05,2.71-26.95-2.74-42.28-8.75-23.27-9.12-50.09-19.63-79.85-2.12a30.06,30.06,0,0,0-13.93,17.71,38.7,38.7,0,0,0,.47,21.95,48.33,48.33,0,0,0,12.61,20.61,50.09,50.09,0,0,0,33.95,14,77.43,77.43,0,0,0,25.62-3.31,64.47,64.47,0,0,0,25.08-14.67,3.51,3.51,0,1,1,4.81,5.1,72.34,72.34,0,0,1-16,11.4c14.14,5.58,44.88,16.49,60.62,12.67,8-1.94,16.19-5.91,23.56-10.33a142.2,142.2,0,0,0,23.66-17.76A539,539,0,0,1,344.68,414a3.5,3.5,0,1,1,6.8,1.7A535.94,535.94,0,0,0,341,474.38a3,3,0,0,1-.06.42A478,478,0,0,0,337,533.24c.9.34,1.77.71,2.6,1.1,4.85,2.3,8.32,5.41,9.79,9q11.6-.61,23.84-1c9.07-.25,18-.38,26.68-.38q13.74,0,28,.42,12.85.36,25.07,1l.45-.86c9.11-17.14,27.47-33.5,42.94-40.25,13.25-12.1,20.88-24.95,29.36-39.22,2.21-3.71,4.47-7.52,6.91-11.44-6.85-14.24-25-39.33-25.1-39.41a3.5,3.5,0,1,1,5.68-4.09c0,.07,15.68,21.62,23.79,36.66a225.53,225.53,0,0,1,18.8-24.85,3.5,3.5,0,0,1,5.27,4.61,226.84,226.84,0,0,0-21.44,29.11l-.11.18c-2.76,4.39-5.3,8.66-7.76,12.8-8.82,14.84-16.76,28.2-31,41.13a3.48,3.48,0,0,1-1.09.73c-14.3,6-31.49,21.31-40,37.33-.36.69-.71,1.37-1,2.06a3.41,3.41,0,0,1-.57,1.2c-2.43,5.39-3.75,10.73-3.48,15.66A20.12,20.12,0,0,0,462.65,580c8.75,7,25,11.48,51.68,11.48,100.06,0,67.2-61.82,65.75-64.46a3.51,3.51,0,0,1,.39-4.08c.16-.18,55.56-63,41.7-95.31-7.47-17.44-20.56-35.59-41.66-53.08-18-14.9-41.76-29.28-72.77-42.3a375,375,0,0,1-45.57,30.92c-28.24,16.18-58.25,27.91-86,30.43-16.55,1.51-33.22-1.32-48.72-6.22Zm-29,19.86a132.35,132.35,0,0,0,22-22.25c-38.12-13.83-67.58-38.74-67.71-38.85a3.51,3.51,0,0,1-.95-4.12,79.12,79.12,0,0,0,5.07-32.53c-9.29-.39-16.69-6.89-22-16.88-10.56-1.95-17.83-13.85-21.26-29.06-3.3-3.87-14.86-21.07-3.49-62.49-4-10.71-6.89-21.21-7.73-30-.82-8.65.32-15.84,4.15-20.37,3.35-4,8.4-6.43,14.45-7.79a71.43,71.43,0,0,1,17.23-1.36,162.24,162.24,0,0,1,26.32-28.55c19.95-17,45.68-30.4,78.43-37.17,35-7.24,67.74-5.93,97.11,1.71l1.42-1.43c9.3-9.48,15.37-15.67,26.7-9.61,4.56,2.44,8.7,6.88,12.45,12.7A112,112,0,0,1,490,98.22a192.67,192.67,0,0,1,52.33,45.26h0c1,1.11,1.95,2.26,2.88,3.46s1.77,2.32,2.59,3.52l.85,1.25.64,1a2.92,2.92,0,0,1,.29.48c7,11.06,10.49,23.07,10.51,33.68a44.84,44.84,0,0,1-.44,6.42c3.47,14.37,3.35,28.49-.24,40.64s-10.56,22.24-20.86,28.83a47.73,47.73,0,0,1-5.37,2.95,48.21,48.21,0,0,0,4.59,12.46,42.45,42.45,0,0,0,10,12.06,3.5,3.5,0,0,1,.41,4.94,2.06,2.06,0,0,1-.29.3,348.14,348.14,0,0,1-34,31.8c30,12.92,53.27,27.15,71.05,41.88,22,18.25,35.76,37.33,43.64,55.73,14.11,32.92-32.18,90-41.34,100.87,2.89,6,10.05,23.61,4.55,40,15.26,5,27.55,10.59,36.17,16.67,9.4,6.63,14.66,14,15,21.79l29.36,59.92a16.24,16.24,0,0,1,1.55,5c1.23,9.13-6,17.79-19.9,25.57-12.83,7.2-31.64,13.91-54.75,19.74C548.13,727.28,475.55,736,400,736c-74.2,0-145.34-8.29-196.23-20.77-24-5.87-43.52-12.69-56.86-20-14.41-7.93-22-16.79-20.79-26.17a16.3,16.3,0,0,1,1.41-4.82l30.64-65.88,3-23.36a16.56,16.56,0,0,1,4.53-9.59l0,0a13,13,0,0,1,9.36-3.9h9.15v-3.91A8.64,8.64,0,0,1,178,554.9l-.22-.24a11.35,11.35,0,0,1-2.79-5.92l-2.32-14.49a7.75,7.75,0,0,1,2.43-7,9.92,9.92,0,0,1,5.34-2.69,9.11,9.11,0,0,1,1.49-.13h24.5a9.11,9.11,0,0,1,1.49.13,9.92,9.92,0,0,1,5.34,2.69,8.17,8.17,0,0,1,2.54,5.82,7.06,7.06,0,0,1-.11,1.22l-.36,2.28,78.18-1.2c.61-.34,1.25-.67,1.91-1,5.73-2.71,13.55-4.39,22.12-4.39A61.12,61.12,0,0,1,330,531.21,477.23,477.23,0,0,1,332.91,483a159.61,159.61,0,0,1-18.84,13.35c-7.88,4.73-16.75,9-25.5,11.12-21,5.1-63.26-12.18-71.22-15.56q-1.42.51-2.85,1a84.61,84.61,0,0,1-27.9,3.61A57.05,57.05,0,0,1,148,480.5a55.45,55.45,0,0,1-14.45-23.62A45.67,45.67,0,0,1,133,431a36.92,36.92,0,0,1,17.11-21.78c32.7-19.24,61.2-8.07,85.94,1.63,14.32,5.61,27.3,10.7,38.3,8.42,8.58-1.78,16.75-6.38,24-12ZM312,564.37l5.55,10.69,5.55-10.69c-1.81.15-3.66.24-5.55.24s-3.74-.09-5.55-.24Zm-4.61,6.33-4-7.73-.43-.1a36.41,36.41,0,0,1-11-4.63l-14.59-.94a3.38,3.38,0,0,1-1.06.34,469.23,469.23,0,0,0-52.11,10.62,2.62,2.62,0,0,1-.4.11,224.25,224.25,0,0,0-31.26,10.73C179.08,585,169.93,591.35,166,597.89l-1.12,2.41-.1.79a3.41,3.41,0,0,1-.7,1.69,11.92,11.92,0,0,0-.21,2.22c0,14.59,25.79,28.28,67.49,38.63,43.08,10.69,102.67,17.3,168.56,17.3s125.48-6.61,168.56-17.3C610.2,633.28,636,619.59,636,605c0-5.69-4.24-11.38-12-16.87-8.21-5.78-20.12-11.17-35.05-16-8.32,14.38-28.94,26.35-74.59,26.35-28.45,0-46.12-5.12-56-13-7.08-5.64-10.32-12.64-10.73-20.25A38.24,38.24,0,0,1,450,550.37q-11-.58-22.27-.91-13.23-.39-27.78-.39-13.9,0-26.49.35-11.94.33-23.75,1a12.39,12.39,0,0,1-2.5,4.37,22.35,22.35,0,0,1-7.24,5.31,41.48,41.48,0,0,1-8.29,2.92l-11,21.29a3.51,3.51,0,0,1-6.24,0l-7-13.58ZM204.11,557.51v3.91h18.45c7.95-2.15,16.52-4.15,25.63-6l-36.37-2.35a9.39,9.39,0,0,1-2.06,2.42,8.77,8.77,0,0,1-5.65,2Zm-7,3.91v-3.91h-5.84v3.91Zm99.29-19.66-.18.11c-2.71,1.65-4.32,3.54-4.32,5.41a4,4,0,0,0,.68,2.12,9.82,9.82,0,0,0,2.47,2.49l.25.19a28.65,28.65,0,0,0,9.35,4,52.9,52.9,0,0,0,12.9,1.52,54.18,54.18,0,0,0,10.66-1,36.38,36.38,0,0,0,8.71-2.81,15.5,15.5,0,0,0,5-3.56,4.6,4.6,0,0,0,1.28-2.91c0-2.34-2.5-4.69-6.53-6.6-4.83-2.28-11.58-3.7-19.12-3.7s-14.3,1.42-19.12,3.7c-.73.35-1.41.71-2,1.08Zm-10.33.68-87,1.34c-1.18,0-1.83.26-2.05.56v0c.24.43,1,.8,2.19.88l86.31,5.56a10.05,10.05,0,0,1-.63-3.52,10.5,10.5,0,0,1,1.19-4.84Zm-87.13-5.66,9.29-.14.56-3.48V533a1.23,1.23,0,0,0-.43-.82v0a2.88,2.88,0,0,0-1.52-.75,2,2,0,0,0-.39,0h-24.5a2,2,0,0,0-.39,0,2.77,2.77,0,0,0-1.52.77,1.21,1.21,0,0,0-.43.82v.13l2.32,14.48a4.31,4.31,0,0,0,.94,2.18l.12.12a1.81,1.81,0,0,0,1.28.54h9.13a8,8,0,0,1-2.5-2.72,7.08,7.08,0,0,1-.9-3.5h0a6.76,6.76,0,0,1,1-3.56c1.33-2.17,4-3.83,7.92-3.91Zm-30.82,39-1.39,10.75c5.52-5,13.26-9.62,22.93-13.89,3.29-1.44,6.81-2.86,10.55-4.23H175.06a6.14,6.14,0,0,0-4.41,1.84h0a9.56,9.56,0,0,0-2.54,5.52Zm498,91.36-25.74-52.5c-8,14.21-33.3,26.62-70.17,35.77C526.56,661.26,466.36,668,400,668s-126.61-6.7-170.23-17.52c-38-9.43-63.78-22.33-70.87-37.1l-25,53.76a9.45,9.45,0,0,0-.83,2.77c-.79,6.15,5.47,12.68,17.22,19.15,12.82,7.05,31.77,13.65,55.12,19.38,50.35,12.34,120.89,20.54,194.59,20.54,75.05,0,147-8.6,197.62-21.36,22.51-5.69,40.73-12.17,53-19.06,11.23-6.3,17.18-12.61,16.38-18.52a9.15,9.15,0,0,0-.88-2.83ZM413.33,331.39a3.5,3.5,0,0,1,6.48,2.66c-1.82,4.41-5.64,8.27-10.46,11.31a50.35,50.35,0,0,1-18,6.74c-6.51,1.09-13,.81-18.06-1.28a18.51,18.51,0,0,1-4-2.28,18.23,18.23,0,0,1-4.4,3.81c-4.15,2.62-9.6,4-15.28,4.3a44,44,0,0,1-16.49-2.32c-5.57-2-10.34-5.15-13.08-9.49a3.51,3.51,0,1,1,5.93-3.74c1.83,2.91,5.31,5.15,9.49,6.62a37.18,37.18,0,0,0,13.82,1.94,25.13,25.13,0,0,0,11.88-3.24,9.64,9.64,0,0,0,4.15-4.86l0,0c.18-.9-1.14-7.65-1.15-7.67a3.51,3.51,0,1,1,6.89-1.37,67.84,67.84,0,0,1,1.09,9.16,9.71,9.71,0,0,0,3.83,2.69c3.79,1.57,8.93,1.74,14.24.84a43,43,0,0,0,15.45-5.75c3.66-2.31,6.48-5.07,7.71-8ZM226.64,194.82c3.14-9.68,31-87.31,121.64-105.76,28.7-5.84,54.23-3.51,76.29,3.38,1.18.37,2.36.76,3.53,1.16a3.45,3.45,0,0,1,2,.65l.11.08a161.15,161.15,0,0,1,44.86,24.91l.26.21c1.28,1,2.54,2,3.77,3a2.85,2.85,0,0,1,.57.47c4.25,3.56,8.19,7.19,11.8,10.82a3.5,3.5,0,0,1,.2,4.72c-4.33,5.34-6,13.24-5.16,22a60.85,60.85,0,0,0,10.74,28c.43.64,1,1.38,1.59,2.21l.15.21c6.86,9.09,15.29,15.49,23.56,18.53,7.88,2.89,15.54,2.68,21.31-1.29l.58-.42c4.2-3.14,6.86-8,8-13.83a3.55,3.55,0,0,1,.09-.47,36.2,36.2,0,0,0,.56-6.6c0-9.37-3.19-20.07-9.47-30l-.19-.28-.62-1-.77-1.14c-.77-1.12-1.56-2.18-2.35-3.19s-1.71-2.13-2.6-3.13l-.21-.26a186.26,186.26,0,0,0-85.4-59.64q-5.49-1.86-11.17-3.41l-.32-.08c-28.83-7.8-61.13-9.26-95.69-2.11C312.79,89.15,288.1,102,269,118.27c-23,19.54-37.91,44.05-46.9,68.34-6.55,17.69-9.3,31.43-10,41.94a83.56,83.56,0,0,1,2.53-12.27c2.52-8.72,6.47-16.29,12-21.46Zm123-98.9c-40.08,8.15-67.31,28.35-85.31,48.64,14,2.71,29.34,7.11,34.63,8.68,11.88-10.6,29.5-18.74,48.64-23.32,18.83-4.5,39.21-5.59,57.08-2.2,2.73-4.88,9.6-16.84,17.66-28.61-21-6.55-45.34-8.76-72.7-3.19ZM244.43,172.51A153,153,0,0,0,236.34,189a25.93,25.93,0,0,1,7-1.29,31.58,31.58,0,0,1,20.56-9.56c-2.28-.85-4.62-1.64-7-2.38a119.5,119.5,0,0,0-12.51-3.22Zm240-35.87c-2.45-2.36-5-4.73-7.75-7.06l-.43.25a25.37,25.37,0,0,0-2.23,1.48c-8.29,6.2-12.22,17.2-11.89,30,.35,13.22,5.27,28.25,14.68,41.92q1.08,1.58,2.13,3c9.24,12.35,20.67,21,31.89,25.16,10.76,3.95,21.26,3.63,29.21-1.83l.81-.6h0a28.25,28.25,0,0,0,9.58-13.63,39.69,39.69,0,0,0,1.28-4.62,24.55,24.55,0,0,1-3,2.69c-.34.26-.62.46-.82.6-7.77,5.33-17.7,5.76-27.68,2.09-9.47-3.47-19-10.69-26.74-20.89l-.18-.23c-.51-.67-1.08-1.48-1.74-2.43a68,68,0,0,1-11.94-31.27c-.93-9.34.68-18,4.86-24.58Zm-20-16.59a158.63,158.63,0,0,0-16.8-10.36c-6.77,9.43-12.75,21-15.61,26.77l2.38.73c1.23.38,2.43.77,3.62,1.17a47,47,0,0,1,12.74-12.27,2.92,2.92,0,0,1,.57-.37,46.17,46.17,0,0,1,10-4.75c1-.34,2-.65,3.07-.92ZM453.73,81.59A194.93,194.93,0,0,1,480,92.72a87.86,87.86,0,0,0-5.33-9.79c-3.13-4.87-6.43-8.49-9.84-10.32-6.29-3.36-10.75.58-17.13,7q3,.93,6,1.94ZM215.51,184.19a181,181,0,0,1,17.85-35.71,56.69,56.69,0,0,0-10.9,1.21c-4.62,1-8.36,2.78-10.64,5.48-2.5,3-3.18,8.36-2.53,15.18a97.45,97.45,0,0,0,4.26,19.36c.61-1.8,1.27-3.64,2-5.52Zm21,12.29c-7.27,3.52-12.26,11.72-15.16,21.75A84.92,84.92,0,0,0,218.3,239a95.64,95.64,0,0,0,1.7,21.12c2,10.14,5.67,18.68,10.68,22.9l-.25-.72c-3.76-11.19-5.65-24.84-5.44-38.46s2.53-27.38,7.18-38.65a66.15,66.15,0,0,1,4.36-8.71Zm29.74-11.41c-13.07.16-22.14,9.51-27.62,22.79-4.31,10.44-6.46,23.24-6.66,36.06s1.57,25.69,5.08,36.16c4.16,12.35,10.68,21.25,19.11,22.28-.65-5.39-1.65-10.69-2.68-16.12-4.68-24.78-9.84-52.12,12.77-101.17Zm288.27,38.2A33.63,33.63,0,0,1,545,234.52h0c-.22.17-.56.41-1,.73-10,6.85-22.73,7.39-35.61,2.66-12.42-4.56-25-14.08-35.07-27.55-.8-1.07-1.57-2.13-2.29-3.19-10.2-14.82-15.54-31.21-15.92-45.74-.38-14.69,4.29-27.57,14.1-35.27a40.38,40.38,0,0,0-5.63,1.44,39,39,0,0,0-8.75,4.18h0a40.08,40.08,0,0,0-11.62,11.4,3.75,3.75,0,0,1-.16.64,3.52,3.52,0,0,1-1.34,1.73,55.35,55.35,0,0,0-7.1,24.49c-1.11,16.74,3.78,35.8,14.93,53.23s26.4,29.87,42,35.87c15.29,5.88,30.91,5.56,43.25-2.33,8.8-5.62,14.8-14.4,17.9-24.9a59.87,59.87,0,0,0,1.85-8.66ZM400,587.33a192.77,192.77,0,0,1,36,3.11c10.62,2.08,18.54,5.19,22,8.88a9.89,9.89,0,0,1,1.78,2.55,7.48,7.48,0,0,1,.72,3.13c0,5.74-7.41,10.45-19.39,13.42-10.6,2.63-25.17,4.26-41.19,4.26s-30.59-1.63-41.19-4.26c-12-3-19.39-7.68-19.39-13.42a7.76,7.76,0,0,1,1.72-4.77,14.68,14.68,0,0,1,3.87-3.38c4.63-2.91,12.48-5.35,22.34-7a200.09,200.09,0,0,1,32.65-2.5Zm34.69,10a186.12,186.12,0,0,0-34.69-3,193.23,193.23,0,0,0-31.5,2.39c-9,1.51-15.91,3.61-19.75,6a7.92,7.92,0,0,0-2,1.7,1.15,1.15,0,0,0-.27.52c0,2.09,5.37,4.46,14,6.61,10.06,2.5,24,4,39.52,4s29.46-1.54,39.52-4c8.67-2.15,14-4.52,14-6.61a.32.32,0,0,0,0-.16,2.62,2.62,0,0,0-.51-.69c-2.49-2.61-9.08-5-18.31-6.82Z"/><path class="cls-8" d="M367.65,333.16s-21.3-6.2-24-16.9,38.09-20.2,43.37-10.53-19.34,27.43-19.34,27.43Z"/><path class="cls-9" d="M298.08,258.07c10.39-1.66,20.31,6.56,22.16,18.37s-5.09,22.73-15.48,24.39-20.31-6.55-22.15-18.36,5.08-22.73,15.47-24.4Z"/><path class="cls-9" d="M422.4,238c10.39-1.66,20.31,6.56,22.15,18.37s-5.08,22.73-15.47,24.4-20.31-6.56-22.15-18.37S412,239.67,422.4,238Z"/><path class="cls-10" d="M434.64,597.33a186.12,186.12,0,0,0-34.69-3,193.23,193.23,0,0,0-31.5,2.39c-9,1.51-15.91,3.61-19.75,6a7.92,7.92,0,0,0-2,1.7,1.15,1.15,0,0,0-.27.52c0,2.09,5.37,4.46,14,6.61,10.06,2.5,24,4,39.52,4s29.46-1.54,39.52-4c8.67-2.15,14-4.52,14-6.61a.32.32,0,0,0,0-.16,2.62,2.62,0,0,0-.51-.69c-2.49-2.61-9.08-5-18.31-6.82Z"/><path class="cls-3" d="M554.54,223.27A33.63,33.63,0,0,1,545,234.52h0c-.22.17-.56.41-1,.73-10,6.85-22.73,7.39-35.61,2.66-12.42-4.56-25-14.08-35.07-27.55-.8-1.07-1.57-2.13-2.29-3.19-10.2-14.82-15.54-31.21-15.92-45.74-.38-14.69,4.29-27.57,14.1-35.27a40.38,40.38,0,0,0-5.63,1.44,39,39,0,0,0-8.75,4.18h0a40.08,40.08,0,0,0-11.62,11.4,3.75,3.75,0,0,1-.16.64,3.52,3.52,0,0,1-1.34,1.73,55.35,55.35,0,0,0-7.1,24.49c-1.11,16.74,3.78,35.8,14.93,53.23s26.4,29.87,42,35.87c15.29,5.88,30.91,5.56,43.25-2.33,8.8-5.62,14.8-14.4,17.9-24.9a59.87,59.87,0,0,0,1.85-8.66Z"/><path class="cls-3" d="M266.27,185.07c-13.07.16-22.14,9.51-27.62,22.79-4.31,10.44-6.46,23.24-6.66,36.06s1.57,25.69,5.08,36.16c4.16,12.35,10.68,21.25,19.11,22.28-.65-5.39-1.65-10.69-2.68-16.12-4.68-24.78-9.84-52.12,12.77-101.17Z"/><path class="cls-11" d="M236.53,196.48c-7.27,3.52-12.26,11.72-15.16,21.75A84.92,84.92,0,0,0,218.3,239a95.64,95.64,0,0,0,1.7,21.12c2,10.14,5.67,18.68,10.68,22.9l-.25-.72c-3.76-11.19-5.65-24.84-5.44-38.46s2.53-27.38,7.18-38.65a66.15,66.15,0,0,1,4.36-8.71Z"/><path class="cls-4" d="M215.51,184.19a181,181,0,0,1,17.85-35.71,56.69,56.69,0,0,0-10.9,1.21c-4.62,1-8.36,2.78-10.64,5.48-2.5,3-3.18,8.36-2.53,15.18a97.45,97.45,0,0,0,4.26,19.36c.61-1.8,1.27-3.64,2-5.52Z"/><path class="cls-4" d="M453.73,81.59A194.93,194.93,0,0,1,480,92.72a87.86,87.86,0,0,0-5.33-9.79c-3.13-4.87-6.43-8.49-9.84-10.32-6.29-3.36-10.75.58-17.13,7q3,.93,6,1.94Z"/><path class="cls-6" d="M464.41,120.05a158.63,158.63,0,0,0-16.8-10.36c-6.77,9.43-12.75,21-15.61,26.77l2.38.73c1.23.38,2.43.77,3.62,1.17a47,47,0,0,1,12.74-12.27,2.92,2.92,0,0,1,.57-.37,46.17,46.17,0,0,1,10-4.75c1-.34,2-.65,3.07-.92Z"/><path class="cls-11" d="M484.39,136.64c-2.45-2.36-5-4.73-7.75-7.06l-.43.25a25.37,25.37,0,0,0-2.23,1.48c-8.29,6.2-12.22,17.2-11.89,30,.35,13.22,5.27,28.25,14.68,41.92q1.08,1.58,2.13,3c9.24,12.35,20.67,21,31.89,25.16,10.76,3.95,21.26,3.63,29.21-1.83l.81-.6h0a28.25,28.25,0,0,0,9.58-13.63,39.69,39.69,0,0,0,1.28-4.62,24.55,24.55,0,0,1-3,2.69c-.34.26-.62.46-.82.6-7.77,5.33-17.7,5.76-27.68,2.09-9.47-3.47-19-10.69-26.74-20.89l-.18-.23c-.51-.67-1.08-1.48-1.74-2.43a68,68,0,0,1-11.94-31.27c-.93-9.34.68-18,4.86-24.58Z"/><path class="cls-6" d="M244.43,172.51A153,153,0,0,0,236.34,189a25.93,25.93,0,0,1,7-1.29,31.58,31.58,0,0,1,20.56-9.56c-2.28-.85-4.62-1.64-7-2.38a119.5,119.5,0,0,0-12.51-3.22Z"/><path class="cls-11" d="M226.64,194.82c3.14-9.68,31-87.31,121.64-105.76,28.7-5.84,54.23-3.51,76.29,3.38,1.18.37,2.36.76,3.53,1.16a3.45,3.45,0,0,1,2,.65l.11.08a161.15,161.15,0,0,1,44.86,24.91l.26.21c1.28,1,2.54,2,3.77,3a2.85,2.85,0,0,1,.57.47c4.25,3.56,8.19,7.19,11.8,10.82a3.5,3.5,0,0,1,.2,4.72c-4.33,5.34-6,13.24-5.16,22a60.85,60.85,0,0,0,10.74,28c.43.64,1,1.38,1.59,2.21l.15.21c6.86,9.09,15.29,15.49,23.56,18.53,7.88,2.89,15.54,2.68,21.31-1.29l.58-.42c4.2-3.14,6.86-8,8-13.83a3.55,3.55,0,0,1,.09-.47,36.2,36.2,0,0,0,.56-6.6c0-9.37-3.19-20.07-9.47-30l-.19-.28-.62-1-.77-1.14c-.77-1.12-1.56-2.18-2.35-3.19s-1.71-2.13-2.6-3.13l-.21-.26a186.26,186.26,0,0,0-85.4-59.64q-5.49-1.86-11.17-3.41l-.32-.08c-28.83-7.8-61.13-9.26-95.69-2.11C312.79,89.15,288.1,102,269,118.27c-23,19.54-37.91,44.05-46.9,68.34-6.55,17.69-9.3,31.43-10,41.94a83.56,83.56,0,0,1,2.53-12.27c2.52-8.72,6.47-16.29,12-21.46Z"/><path class="cls-12" d="M666.09,667.17l-25.74-52.5c-8,14.21-33.3,26.62-70.17,35.77C526.56,661.26,466.36,668,400,668s-126.61-6.7-170.23-17.52c-38-9.43-63.78-22.33-70.87-37.1l-25,53.76a9.45,9.45,0,0,0-.83,2.77c-.79,6.15,5.47,12.68,17.22,19.15,12.82,7.05,31.77,13.65,55.12,19.38,50.35,12.34,120.89,20.54,194.59,20.54,75.05,0,147-8.6,197.62-21.36,22.51-5.69,40.73-12.17,53-19.06,11.23-6.3,17.18-12.61,16.38-18.52a9.15,9.15,0,0,0-.88-2.83Z"/><path class="cls-13" d="M631.87,624.42c-12.1,10.14-33.53,19-61.69,26C526.56,661.26,466.36,668,400,668s-126.61-6.7-170.23-17.52c-28.63-7.11-50.31-16.18-62.3-26.53l-16,34.43a8.42,8.42,0,0,0-.78,2.58c-.74,5.75,5.11,11.84,16.08,17.88,12,6.59,29.68,12.76,51.49,18.1,47,11.53,112.9,19.19,181.74,19.19,70.1,0,137.3-8,184.58-20,21-5.31,38.05-11.37,49.52-17.8,10.49-5.88,16.05-11.78,15.3-17.3a8.55,8.55,0,0,0-.82-2.64l-16.66-34Z"/><path class="cls-13" d="M168.09,575.81l-1.39,10.75c5.52-5,13.26-9.62,22.93-13.89,3.29-1.44,6.81-2.86,10.55-4.23H175.06a6.14,6.14,0,0,0-4.41,1.84h0a9.56,9.56,0,0,0-2.54,5.52Z"/><path class="cls-13" d="M198.91,536.78l9.29-.14.56-3.48V533a1.23,1.23,0,0,0-.43-.82v0a2.88,2.88,0,0,0-1.52-.75,2,2,0,0,0-.39,0h-24.5a2,2,0,0,0-.39,0,2.77,2.77,0,0,0-1.52.77,1.21,1.21,0,0,0-.43.82v.13l2.32,14.48a4.31,4.31,0,0,0,.94,2.18l.12.12a1.81,1.81,0,0,0,1.28.54h9.13a8,8,0,0,1-2.5-2.72,7.08,7.08,0,0,1-.9-3.5h0a6.76,6.76,0,0,1,1-3.56c1.33-2.17,4-3.83,7.92-3.91Z"/><path class="cls-13" d="M286,542.44l-87,1.34c-1.18,0-1.83.26-2.05.56v0c.24.43,1,.8,2.19.88l86.31,5.56a10.05,10.05,0,0,1-.63-3.52,10.5,10.5,0,0,1,1.19-4.84Z"/><path class="cls-13" d="M296.37,541.76l-.18.11c-2.71,1.65-4.32,3.54-4.32,5.41a4,4,0,0,0,.68,2.12,9.82,9.82,0,0,0,2.47,2.49l.25.19a28.65,28.65,0,0,0,9.35,4,52.9,52.9,0,0,0,12.9,1.52,54.18,54.18,0,0,0,10.66-1,36.38,36.38,0,0,0,8.71-2.81,15.5,15.5,0,0,0,5-3.56,4.6,4.6,0,0,0,1.28-2.91c0-2.34-2.5-4.69-6.53-6.6-4.83-2.28-11.58-3.7-19.12-3.7s-14.3,1.42-19.12,3.7c-.73.35-1.41.71-2,1.08Z"/><polygon class="cls-13" points="197.08 561.42 197.08 557.51 191.24 557.51 191.24 561.42 197.08 561.42 197.08 561.42"/><path class="cls-10" d="M312,564.37l5.55,10.69,5.55-10.69c-1.81.15-3.66.24-5.55.24s-3.74-.09-5.55-.24Z"/><path class="cls-4" d="M327.43,387.36c-5.71,7.41-14.32,17.36-24.73,25.41-8,6.2-17.15,11.29-26.88,13.31-13.05,2.71-26.95-2.74-42.28-8.75-23.27-9.12-50.09-19.63-79.85-2.12a30.06,30.06,0,0,0-13.93,17.71,38.7,38.7,0,0,0,.47,21.95,48.33,48.33,0,0,0,12.61,20.61,50.09,50.09,0,0,0,33.95,14,77.43,77.43,0,0,0,25.62-3.31,64.47,64.47,0,0,0,25.08-14.67,3.51,3.51,0,1,1,4.81,5.1,72.34,72.34,0,0,1-16,11.4c14.14,5.58,44.88,16.49,60.62,12.67,8-1.94,16.19-5.91,23.56-10.33a142.2,142.2,0,0,0,23.66-17.76A539,539,0,0,1,344.68,414a3.5,3.5,0,1,1,6.8,1.7A535.94,535.94,0,0,0,341,474.38a3,3,0,0,1-.06.42A478,478,0,0,0,337,533.24c.9.34,1.77.71,2.6,1.1,4.85,2.3,8.32,5.41,9.79,9q11.6-.61,23.84-1c9.07-.25,18-.38,26.68-.38q13.74,0,28,.42,12.85.36,25.07,1l.45-.86c9.11-17.14,27.47-33.5,42.94-40.25,13.25-12.1,20.88-24.95,29.36-39.22,2.21-3.71,4.47-7.52,6.91-11.44-6.85-14.24-25-39.33-25.1-39.41a3.5,3.5,0,1,1,5.68-4.09c0,.07,15.68,21.62,23.79,36.66a225.53,225.53,0,0,1,18.8-24.85,3.5,3.5,0,0,1,5.27,4.61,226.84,226.84,0,0,0-21.44,29.11l-.11.18c-2.76,4.39-5.3,8.66-7.76,12.8-8.82,14.84-16.76,28.2-31,41.13a3.48,3.48,0,0,1-1.09.73c-14.3,6-31.49,21.31-40,37.33-.36.69-.71,1.37-1,2.06a3.41,3.41,0,0,1-.57,1.2c-2.43,5.39-3.75,10.73-3.48,15.66A20.12,20.12,0,0,0,462.65,580c8.75,7,25,11.48,51.68,11.48,100.06,0,67.2-61.82,65.75-64.46a3.51,3.51,0,0,1,.39-4.08c.16-.18,55.56-63,41.7-95.31-7.47-17.44-20.56-35.59-41.66-53.08-18-14.9-41.76-29.28-72.77-42.3a375,375,0,0,1-45.57,30.92c-28.24,16.18-58.25,27.91-86,30.43-16.55,1.51-33.22-1.32-48.72-6.22Z"/><path class="cls-5" d="M337.19,522.31c-.1,3.62-.15,7.27-.15,10.93.9.34,1.77.71,2.6,1.1,4.85,2.3,8.32,5.41,9.79,9q11.6-.61,23.84-1c9.07-.25,18-.38,26.68-.38q13.74,0,28,.42,12.85.36,25.07,1l.45-.86c9.11-17.14,27.47-33.5,42.94-40.25,13.25-12.1,20.88-24.95,29.36-39.22,2.21-3.71,4.47-7.52,6.91-11.44-6.85-14.24-25-39.33-25.1-39.41s13.87,82-62.17,107.59c-55.16,18.57-87.54,7.82-108.2,2.39ZM513.24,408.24c0,.07,15.68,21.62,23.79,36.66a228,228,0,0,1,14.29-19.51c-4.68.78-11.51,1.05-18-1.84-11.48-5.08-20-15.31-20-15.31Zm-57.87,148.6a27.94,27.94,0,0,0-.81,8A20.12,20.12,0,0,0,462.65,580c8.75,7,25,11.48,51.68,11.48,100.06,0,67.2-61.82,65.75-64.46a3.51,3.51,0,0,1,.39-4.08c.16-.18,55.56-63,41.7-95.31a116.93,116.93,0,0,0-8-15.42c13.64,46-48.28,114.69-48.28,114.69a47.88,47.88,0,0,1,4.52,21.46c-.38,12-9.41,29.74-60.06,29s-54.93-20.45-54.94-20.48Z"/><path class="cls-5" d="M146.6,420.85a29.82,29.82,0,0,0-6.84,12.07,38.7,38.7,0,0,0,.47,21.95,48.33,48.33,0,0,0,12.61,20.61,50.09,50.09,0,0,0,33.95,14,77.43,77.43,0,0,0,25.62-3.31,64.47,64.47,0,0,0,25.08-14.67c-43.79,17.92-98.26-1.86-90.89-50.61ZM243.26,473a3.51,3.51,0,0,1-1,3.54,72.34,72.34,0,0,1-16,11.4c14.14,5.58,44.88,16.49,60.62,12.67,8-1.94,16.19-5.91,23.56-10.33a142.2,142.2,0,0,0,23.66-17.76c3-23.54,6.88-42.48,9-52,0,0-32.51,47.94-54.72,54-16.11,4.37-35.64.76-45.15-1.54Z"/><path class="cls-5" d="M327.43,387.36c-2.26,2.93-5,6.26-8.07,9.71,4.89,2.16,10,4.17,15.23,5.94a3.53,3.53,0,0,1,1.9.63c15.07,4.9,31.29,7.77,47.32,6.31,26.64-2.42,55.69-13.82,83.15-29.55a371.5,371.5,0,0,0,45.25-30.74,3.55,3.55,0,0,1,1.95-1.55q5.22-4.19,10.18-8.46-7.92-3.76-16.6-7.42a375,375,0,0,1-45.57,30.92c-28.24,16.18-58.25,27.91-86,30.43-16.55,1.51-33.22-1.32-48.72-6.22Z"/><path class="cls-9" d="M471.11,328.67a2,2,0,0,0,2.07-3.43s-15.22-9.32-39.62-12.37a2,2,0,0,0-.5,4c23.56,2.94,38,11.79,38.05,11.81Zm1.44-19.38a2,2,0,1,0,.89-3.9c-.05,0-17.34-4.17-41.49.46a2,2,0,1,0,.75,3.93c23.32-4.46,39.8-.5,39.85-.49Zm-2.34-19.38a2,2,0,1,0-.22-4c-.06,0-17.82.82-39.74,12a2,2,0,0,0,1.81,3.58c21.17-10.77,38.1-11.54,38.15-11.54ZM274,359.24a2,2,0,0,1-3-2.64s11.68-13.49,34-23.79a2,2,0,1,1,1.67,3.64c-21.55,9.94-32.64,22.75-32.68,22.79Zm-7.24-18a2,2,0,1,1-2-3.45s15.26-9.22,39.68-12.12a2,2,0,1,1,.47,4c-23.57,2.81-38.08,11.58-38.12,11.6ZM263.14,322a2,2,0,0,1-1-3.88c.05,0,17.23-4.62,41.49-.63a2,2,0,0,1-.64,4c-23.43-3.85-39.8.54-39.85.55Z"/><path class="cls-14" d="M307.54,265.37c3,0,5.51,3,5.51,6.63s-2.47,6.64-5.51,6.64-5.5-3-5.5-6.64,2.46-6.63,5.5-6.63Z"/><path class="cls-14" d="M429.72,245.17c3,0,5.51,3,5.51,6.63s-2.47,6.64-5.51,6.64-5.5-3-5.5-6.64,2.46-6.63,5.5-6.63Z"/></g></svg>