<svg id="Layer_1" data-name="Layer 1" xmlns="http://www.w3.org/2000/svg" viewBox="0 0 1300 310"><defs><style>.cls-1,.cls-2,.cls-3{fill-rule:evenodd;}.cls-2{fill:#012e68;}.cls-3{fill:#015895;}</style></defs><path class="cls-1" d="M476.11,114.27C474,107.35,469.34,101.5,462.42,97c-6.92-4.61-15.22-6.92-24.6-6.92-10.76,0-19.53,3.08-26.45,9.08q-10.14,9-10.14,23.52c0,10.92,5.22,19.22,15.52,24.76,4.46,2.3,13.07,5.38,26,9.22,4.15,1.39,4.77,1.39,8.61,3.23a21,21,0,0,1,4.46,2.62c1.84,1.69,3.84,4.45,3.84,7.53,0,7.38-8.45,12.46-19.37,12.46-11.22,0-19.84-5.69-21.53-12.46l-20.6,6.15c2.31,7.54,7.23,13.69,14.76,18.76,7.53,4.92,16.76,7.38,27.37,7.38,11.84,0,21.37-3.07,28.75-9.23,7.54-6.3,11.23-14.6,11.23-24.9,0-8.46-3.54-15.69-7.23-19.53a28.4,28.4,0,0,0-7.69-5.69c-6.61-3.54-9.38-4.15-16-6-8.92-2.61-14.76-4.46-17.68-5.69-6.61-2.76-9.84-6.15-9.84-10.14,0-6.31,7.23-11.38,16.3-11.38,8.61,0,15.68,4.76,17.37,10.45l20.61-6Zm95.64,30c-6.16-16-21.23-26.45-39.52-26.45-12.15,0-22.14,4-30.29,12.15-8,8-12,18-12,30.14s4,22.14,12,30.29c8.15,8,18.14,12,30.29,12,18.29,0,33.36-10.46,39.52-26.45l-19.23-5.68a21.66,21.66,0,0,1-20.29,12.91,21.32,21.32,0,0,1-16-6.61,24.19,24.19,0,0,1,0-32.91,21.32,21.32,0,0,1,16-6.61,21.66,21.66,0,0,1,20.29,12.92l19.23-5.69Zm47.81-26.45A36.27,36.27,0,0,0,591.73,130c-7.38,8-11.07,18-11.07,30.14s3.69,22.14,11.07,30.29a36.68,36.68,0,0,0,27.83,12,37.84,37.84,0,0,0,24.3-8.61v6.3h19.06V120.11H643.86v6.3a37.84,37.84,0,0,0-24.3-8.61Zm17.69,25.83a24.64,24.64,0,0,1,0,32.91A20,20,0,0,1,622,183.15a20.25,20.25,0,0,1-15.37-6.61c-4.15-4.46-6.15-9.84-6.15-16.45s2-12,6.15-16.46A20.25,20.25,0,0,1,622,137a20,20,0,0,1,15.23,6.61Zm61.19,56.43V90.29H679.22V200.06Zm52.28-82.26A36.27,36.27,0,0,0,722.89,130c-7.38,8-11.07,18-11.07,30.14s3.69,22.14,11.07,30.29a36.68,36.68,0,0,0,27.83,12,37.88,37.88,0,0,0,24.3-8.61v6.3h19.06V120.11H775v6.3a37.88,37.88,0,0,0-24.3-8.61Zm17.68,25.83a24.61,24.61,0,0,1,0,32.91,19.92,19.92,0,0,1-15.22,6.61,20.25,20.25,0,0,1-15.37-6.61c-4.15-4.46-6.15-9.84-6.15-16.45s2-12,6.15-16.46A20.25,20.25,0,0,1,753.18,137a19.92,19.92,0,0,1,15.22,6.61Zm61.2-23.52H810.38v80H829.6v-44c0-10.61,7.84-18.61,18.45-18.61a19.5,19.5,0,0,1,7.84,1.69V117.8c-12,0-20.75,4-26.29,12.15v-9.84ZM942,114.27c-2.15-6.92-6.77-12.77-13.68-17.23-6.92-4.61-15.23-6.92-24.61-6.92-10.76,0-19.52,3.08-26.44,9.08q-10.15,9-10.15,23.52c0,10.92,5.23,19.22,15.53,24.76,4.46,2.3,13.07,5.38,26,9.22a52.91,52.91,0,0,1,8.61,3.23,21,21,0,0,1,4.46,2.62c1.85,1.69,3.85,4.45,3.85,7.53,0,7.38-8.46,12.46-19.38,12.46-11.22,0-19.83-5.69-21.52-12.46L864,176.23c2.31,7.54,7.23,13.69,14.76,18.76,7.54,4.92,16.76,7.38,27.37,7.38,11.84,0,21.38-3.07,28.76-9.23,7.53-6.3,11.22-14.6,11.22-24.9,0-8.46-3.53-15.69-7.22-19.53a28.56,28.56,0,0,0-7.69-5.69c-6.62-3.54-9.38-4.15-16-6-8.92-2.61-14.77-4.46-17.69-5.69-6.61-2.76-9.84-6.15-9.84-10.14,0-6.31,7.23-11.38,16.3-11.38,8.61,0,15.68,4.76,17.38,10.45l20.6-6Zm10,22.6h11.38v38a23.35,23.35,0,0,0,7.84,18,27.79,27.79,0,0,0,19.38,7.22h11.84V181.77h-10a9.5,9.5,0,0,1-9.84-9.69V136.87h19.84V120.11H982.59V104.42H963.37v15.69H952v16.76Zm71.35,53.51c8.15,8,18.14,12,30.29,12s22.14-4,30.29-12c8.15-8.15,12.15-18.15,12.15-30.29s-4-22.15-12.15-30.14c-8.15-8.15-18.14-12.15-30.29-12.15s-22.14,4-30.29,12.15c-8,8-12,18-12,30.14s4,22.14,12,30.29Zm14.3-46.75a22.65,22.65,0,0,1,32,0,24.19,24.19,0,0,1,0,32.91,22.65,22.65,0,0,1-32,0,24.19,24.19,0,0,1,0-32.91Zm90.87,91v-40.9a37.43,37.43,0,0,0,24.14,8.61,36.67,36.67,0,0,0,27.83-12c7.54-8.15,11.23-18.15,11.23-30.29S1188,137.94,1180.48,130a36.26,36.26,0,0,0-27.83-12.15,37.43,37.43,0,0,0-24.14,8.61v-6.3h-19.22V234.66Zm36.9-91a24.61,24.61,0,0,1,0,32.91,20.83,20.83,0,0,1-30.44,0c-4.15-4.46-6.15-9.84-6.15-16.45s2-12,6.15-16.46a20.83,20.83,0,0,1,30.44,0Z"/><path class="cls-2" d="M299.55,197.93V161.05l-74.19-42.83-21.28,12.29,74.19,42.83v12.3l-53.21,30.72L108.3,148.94V222.5L225.21,290l116.91-67.5V185.63l-21.3-12.29q0,18.45,0,36.87l-95.78,55.3-95.48-55.12V185.81l95.48,55.12,74.49-43Z"/><path class="cls-3" d="M150.86,112.07v36.87l74.2,42.84,21.28-12.29-74.19-42.83v-12.3l53.21-30.72,116.76,67.42V87.5L225.21,20,108.29,87.5v36.87l21.3,12.29q0-18.45,0-36.87l95.78-55.3,95.48,55.12v24.58L225.36,69.07l-74.5,43Z"/></svg>