<svg xmlns="http://www.w3.org/2000/svg" width="295" height="242" viewBox="0 0 295 242">
    <defs>
        <linearGradient id="w6c51icl8b" x1="50%" x2="50%" y1="0%" y2="100%">
            <stop offset="0%" stop-color="#84E2E9"/>
            <stop offset="100%" stop-color="#16ABB7"/>
        </linearGradient>
        <filter id="dp9kxmh7ea" width="153.6%" height="171.5%" x="-26.8%" y="-35.8%" filterUnits="objectBoundingBox">
            <feOffset dy="2" in="SourceAlpha" result="shadowOffsetOuter1"/>
            <feGaussianBlur in="shadowOffsetOuter1" result="shadowBlurOuter1" stdDeviation="13.5"/>
            <feColorMatrix in="shadowBlurOuter1" result="shadowMatrixOuter1" values="0 0 0 0 0 0 0 0 0 0 0 0 0 0 0 0 0 0 0.149448208 0"/>
            <feMerge>
                <feMergeNode in="shadowMatrixOuter1"/>
                <feMergeNode in="SourceGraphic"/>
            </feMerge>
        </filter>
    </defs>
    <g fill="none" fill-rule="evenodd">
        <g>
            <g filter="url(#dp9kxmh7ea)" transform="translate(-40 -72) translate(82 114)">
                <g>
                    <rect width="211" height="50" fill="#697277" rx="5"/>
                    <rect width="28" height="28" x="13" y="11" fill="#FFF" rx="4"/>
                    <path fill="url(#w6c51icl8b)" d="M27.573 24c.106-.001.211.002.317.008.065.003.13.008.194.014.048.003.095.009.141.014.078.007.155.018.231.03.093.015.186.032.279.05l.013.002c.088.019.176.038.262.059l.002.001.137.037.138.04c.032.008.064.019.095.028l.092.03.085.029c.14.048.28.1.417.159.034.013.067.028.1.042.066.029.132.058.196.088l.157.077c.06.03.12.06.178.091.02.01.04.02.06.032.046.024.092.05.136.076.032.017.064.035.095.055.067.038.132.076.196.117.126.077.248.158.37.242l.346.252c.25.205.5.41.735.632.017.014.035.031.052.049.102.1.202.203.299.308.083.09.164.181.244.275.066.079.13.158.193.239.052.065.102.131.152.197.038.053.077.106.114.16l.11.16c.094.142.185.287.27.435.09.155.176.313.254.473.089.178.171.36.247.544.081.202.155.407.219.615.066.21.121.422.166.636.044.212.079.426.102.641.022.212.033.425.033.638 0 .21-.014.42-.04.63-.026.206-.064.41-.116.61-.007.031-.016.06-.024.09-.031.11-.067.218-.106.327-.032.084-.064.168-.1.25l-.004.011c-.031.07-.063.138-.097.206-.071.137-.15.27-.236.398-.088.128-.182.25-.284.365-.103.117-.211.226-.327.33-.115.104-.236.2-.362.29-.127.09-.257.172-.392.247-.132.074-.27.141-.41.2-.138.059-.278.11-.421.153-.142.042-.285.078-.43.107-.095.017-.19.033-.287.046-.099.012-.2.02-.3.027-.119.007-.236.01-.353.008-.134 0-.27-.009-.403-.021-.15-.014-.3-.034-.45-.063l-.1-.018c-.135-.03-.27-.062-.401-.1-.149-.043-.296-.093-.441-.147-.144-.055-.286-.116-.425-.182l-.138-.065-.135-.068-.005-.002c-.076-.038-.15-.079-.224-.12l-.185-.11-.027.007-.076.046c-.838.494-1.762.842-2.724.943-1.38.143-2.837-.219-3.803-1.229-.113-.13-.226-.258-.332-.393 0-.002-.002-.003-.005-.005-.057-.079-.111-.16-.162-.243-.068-.11-.13-.224-.188-.339-.055-.112-.105-.226-.15-.343-.059-.15-.11-.303-.153-.458-.041-.15-.074-.3-.102-.454-.025-.145-.046-.293-.06-.44-.018-.21-.025-.42-.02-.63.003-.193.016-.386.04-.577.005-.044.01-.088.018-.131.012-.086.026-.172.042-.256 0-.004 0-.009.002-.013l.024-.122.037-.16c.005-.025.011-.05.018-.074.008-.04.019-.078.03-.116l.033-.115c.011-.04.022-.079.035-.117.036-.117.076-.232.117-.348.05-.133.103-.264.16-.394.048-.111.099-.22.152-.329l.067-.133c.024-.05.05-.097.078-.145.02-.038.04-.076.063-.112.024-.045.05-.09.076-.134l.127-.21.134-.204c.265-.393.559-.765.882-1.11.018-.021.04-.044.06-.065.058-.06.116-.119.175-.176.06-.058.119-.116.18-.171.06-.056.122-.112.184-.165.065-.056.13-.112.197-.166.077-.064.157-.125.237-.186.094-.07.19-.14.286-.206.115-.078.232-.154.351-.227.135-.082.273-.16.411-.234.155-.082.313-.16.475-.229.151-.065.307-.123.462-.181.09-.054.182-.104.276-.148.175-.086.356-.16.543-.223l.003-.001c.043-.015.087-.028.13-.042.07-.021.142-.041.214-.059l.123-.03.152-.032.097-.017c.037-.006.073-.013.11-.017l.083-.012c.04-.006.08-.012.12-.015l.042-.005c.044-.004.086-.009.13-.012.011-.001.023-.003.036-.003l.116-.007c.026-.002.055-.002.08-.003.054-.003.108-.004.163-.004zm-.762.962c-.304.044-.606.122-.888.245-.269.118-.519.275-.741.466-.229.196-.427.429-.594.682-.215.327-.378.688-.48 1.066-.106.393-.145.803-.134 1.21.013.459.091.913.211 1.355.08.293.178.582.292.863.122.299.262.591.416.875.074.135.15.27.23.401.08.136.166.27.252.404l.104.159.09.141.077.125.063.107.05.09c.013.023.026.047.037.072l.024.054c.005.013.01.025.01.037 0 .007 0 .014-.002.02l-.017.007-.015.002h-.004l-.015-.002c-.018-.004-.036-.011-.053-.02l-.005-.004-.061-.034-.048-.03c-.045-.03-.089-.063-.13-.097l-.04-.033-.04-.034c-.014-.01-.028-.022-.041-.035-.045-.039-.089-.078-.13-.118l-.065-.063c-.101-.1-.199-.204-.293-.312l-.024-.03c-.038-.043-.073-.085-.109-.128l-.018-.022c-.046-.056-.091-.113-.136-.171-.047-.06-.092-.121-.136-.183l-.008-.01c-.039-.055-.077-.11-.115-.168-.057-.083-.111-.167-.162-.252-.03-.046-.057-.093-.084-.14-.077-.13-.148-.262-.215-.397l-.092-.193-.01-.021c-.028-.064-.056-.126-.082-.19l-.008-.018-.07-.178-.014-.037c-.023-.062-.046-.127-.067-.19l-.003-.008-.059-.187c-.026-.089-.05-.176-.074-.265-.008-.034-.017-.068-.024-.103-.007-.028-.014-.056-.019-.084-.012-.054-.024-.11-.033-.164l-.009-.044c-.011-.062-.022-.123-.031-.186-.01-.06-.017-.118-.023-.177-.01-.079-.018-.158-.024-.237l-.01-.159-.002-.029-.006-.185v-.061c0-.072.002-.143.005-.215.001-.042.003-.083.007-.124l.002-.03.005-.084.011-.117c.003-.032.008-.063.013-.095.012-.097.026-.192.045-.287l.011-.06.01-.044c.007-.04.016-.078.026-.116.004-.02.008-.04.014-.06.018-.073.039-.146.06-.217.01-.037.023-.072.034-.108l.038-.107.02-.052.02-.054c.028-.075.06-.149.093-.222l-.004-.001c-.745.63-1.38 1.391-1.86 2.248-.413.738-.71 1.546-.8 2.393-.119 1.12.124 2.305.912 3.103.154.142.309.284.479.403.168.119.352.217.542.297.196.081.398.146.604.19.22.048.444.073.667.083.245.01.488.001.73-.023.52-.055 1.03-.184 1.516-.374.532-.208 1.033-.486 1.504-.813.447-.311.865-.664 1.241-1.058.382-.396.722-.836 1.016-1.301.149-.234.285-.474.409-.72.123-.246.232-.497.33-.752.05-.13.096-.261.139-.394.041-.129.08-.26.117-.392l.044-.16.041-.143.037-.122c.01-.035.02-.07.033-.103l.028-.085c.009-.023.016-.046.026-.067l.021-.048c.006-.01.01-.02.018-.028l.014-.01c.022.006.035.02.046.036v.001l.024.057.015.046.008.04c.003.008.004.017.006.025l.002.013.008.05.008.064c.003.03.005.061.009.091l.005.091c.005.1.005.2.002.301l-.002.072-.009.124-.003.038-.008.077-.012.094-.016.104c-.004.035-.01.07-.017.105l-.02.103-.023.105-.02.086c-.052.213-.117.423-.191.63-.017.05-.035.098-.054.147l-.06.152-.062.147-.065.146-.004.008-.064.135c-.027.058-.055.114-.085.17-.04.079-.084.159-.127.237-.028.052-.058.103-.09.155l-.081.135c-.028.046-.057.09-.086.134l-.087.134-.09.13c-.061.087-.124.172-.189.257l-.098.125c-.062.078-.127.156-.19.232-.11.125-.221.247-.336.366-.052.053-.106.108-.16.16-.136.133-.277.26-.42.384l-.123.103-.16.128c-.155.121-.315.237-.477.345.613.19 1.233.367 1.877.427.98.09 2.01-.096 2.792-.684.318-.24.595-.546.804-.893.233-.388.38-.826.455-1.27.155-.942-.022-1.916-.376-2.809-.5-1.267-1.358-2.37-2.428-3.19-.542-.369-1.085-.737-1.683-.992-.541-.231-1.129-.37-1.719-.415-.346-.026-.693-.02-1.037.03zm9.299-3.956c.38.031.74.217 1.019.497.277.281.474.64.61 1.018.136.376.213.78.245 1.18.031.402.017.81-.042 1.21-.059.399-.16.786-.313 1.159-.153.374-.352.718-.61 1.02-.256.302-.568.553-.915.714-.35.16-.736.23-1.117.18-.382-.048-.743-.214-1.04-.465-.296-.25-.53-.586-.686-.958-.156-.372-.237-.773-.256-1.18-.02-.407.02-.806.106-1.196.086-.392.22-.777.392-1.135.171-.357.383-.698.634-1 .25-.304.542-.573.875-.767.334-.194.717-.31 1.098-.277zm-17.123.277c.334.194.625.463.877.766.25.304.461.644.632 1.001.172.359.306.744.393 1.134.086.391.126.79.106 1.198-.02.406-.1.808-.257 1.18-.156.37-.39.707-.685.957-.297.25-.658.417-1.04.465-.382.05-.768-.02-1.117-.18-.348-.16-.66-.412-.916-.714s-.455-.646-.608-1.02c-.154-.373-.256-.76-.314-1.159-.06-.399-.073-.808-.041-1.209.03-.4.108-.804.244-1.181.135-.378.332-.736.61-1.018.278-.28.638-.466 1.02-.497.381-.033.764.083 1.096.277zm16.406.804c-.237.13-.445.322-.623.533-.178.21-.332.448-.459.697-.127.248-.229.512-.305.786-.076.274-.126.553-.14.836-.016.284.004.573.068.849.066.276.173.543.344.768.169.225.396.396.659.47.262.072.54.038.789-.07.248-.107.466-.284.647-.491.182-.207.33-.45.446-.705.115-.254.202-.527.26-.803.057-.277.087-.557.09-.84.002-.284-.023-.57-.081-.847-.059-.276-.152-.55-.298-.787-.146-.239-.356-.448-.619-.523-.261-.075-.54-.005-.778.127zm-17.565-.126c-.261.074-.471.283-.618.521-.146.239-.238.512-.297.788-.059.277-.084.563-.082.846.003.284.033.564.09.841.058.276.145.55.26.804.116.254.265.497.445.703.182.208.4.385.648.493.248.108.526.142.79.07.262-.074.489-.246.658-.471.17-.224.28-.493.343-.768.065-.276.085-.565.07-.848-.015-.284-.065-.563-.141-.837-.076-.273-.178-.537-.305-.786-.128-.249-.28-.486-.46-.697-.178-.211-.384-.403-.621-.534-.238-.131-.518-.2-.78-.125zm13.595-6.951c.473.053.911.306 1.255.653.344.348.609.786.808 1.249.198.464.335.96.418 1.46.082.501.113 1.02.087 1.529-.027.509-.11 1.014-.26 1.502-.15.485-.363.945-.656 1.348-.291.406-.658.746-1.082.967-.424.221-.907.32-1.372.269-.233-.027-.464-.09-.682-.186-.218-.097-.42-.223-.607-.377-.373-.309-.673-.723-.887-1.18-.212-.457-.343-.956-.403-1.463-.06-.507-.054-1.015.01-1.524.063-.51.18-1.004.35-1.48.17-.479.39-.934.664-1.346.276-.41.609-.785 1.011-1.053.402-.27.873-.42 1.346-.368zm-6.5.368c.402.268.735.642 1.01 1.053.277.412.496.867.665 1.345.17.477.288.97.35 1.48.064.51.07 1.019.01 1.525-.06.507-.19 1.006-.403 1.463-.214.458-.514.872-.887 1.18-.187.155-.39.28-.607.377-.218.097-.45.16-.682.186-.464.051-.949-.047-1.372-.268-.424-.222-.792-.563-1.083-.967-.292-.403-.506-.863-.657-1.35-.15-.487-.231-.992-.257-1.501-.027-.51.003-1.027.085-1.529.084-.5.22-.997.42-1.46.198-.463.462-.9.806-1.249.344-.347.782-.6 1.255-.653.473-.051.945.098 1.346.368zm5.408.948c-.285.23-.52.53-.714.857-.194.325-.346.673-.464 1.035-.117.362-.201.743-.246 1.124-.09.763-.037 1.557.25 2.271.144.358.346.686.613.94.269.255.61.431.962.466.351.034.711-.07 1.018-.268.308-.196.562-.48.76-.8.199-.318.346-.678.448-1.045.101-.368.16-.753.18-1.138.04-.772-.064-1.554-.336-2.266-.135-.355-.314-.698-.557-.98-.243-.285-.56-.506-.919-.542-.359-.038-.71.118-.995.346zm-6.658-.347c-.358.037-.676.258-.919.542-.243.283-.422.626-.557.981-.271.712-.375 1.494-.335 2.266.02.385.079.77.18 1.138.101.367.25.727.448 1.046.198.319.452.603.76.8.307.197.667.302 1.018.267.352-.034.693-.21.962-.465.268-.255.47-.583.613-.94.287-.715.34-1.509.25-2.272-.045-.381-.128-.762-.246-1.124-.118-.362-.27-.71-.464-1.036-.194-.326-.429-.626-.713-.856-.286-.228-.638-.384-.997-.347z"/>
                    <path fill="#FFF" d="M51 13H74V22H51zM51 25H191V37H51z" opacity=".4"/>
                </g>
                <g transform="translate(0 54)">
                    <rect width="211" height="50" fill="#697277" rx="5"/>
                    <rect width="28" height="28" x="13" y="11" fill="#FFF" rx="4"/>
                    <path fill="url(#w6c51icl8b)" d="M27.573 24c.106-.001.211.002.317.008.065.003.13.008.194.014.048.003.095.009.141.014.078.007.155.018.231.03.093.015.186.032.279.05l.013.002c.088.019.176.038.262.059l.002.001.137.037.138.04c.032.008.064.019.095.028l.092.03.085.029c.14.048.28.1.417.159.034.013.067.028.1.042.066.029.132.058.196.088l.157.077c.06.03.12.06.178.091.02.01.04.02.06.032.046.024.092.05.136.076.032.017.064.035.095.055.067.038.132.076.196.117.126.077.248.158.37.242l.346.252c.25.205.5.41.735.632.017.014.035.031.052.049.102.1.202.203.299.308.083.09.164.181.244.275.066.079.13.158.193.239.052.065.102.131.152.197.038.053.077.106.114.16l.11.16c.094.142.185.287.27.435.09.155.176.313.254.473.089.178.171.36.247.544.081.202.155.407.219.615.066.21.121.422.166.636.044.212.079.426.102.641.022.212.033.425.033.638 0 .21-.014.42-.04.63-.026.206-.064.41-.116.61-.007.031-.016.06-.024.09-.031.11-.067.218-.106.327-.032.084-.064.168-.1.25l-.004.011c-.031.07-.063.138-.097.206-.071.137-.15.27-.236.398-.088.128-.182.25-.284.365-.103.117-.211.226-.327.33-.115.104-.236.2-.362.29-.127.09-.257.172-.392.247-.132.074-.27.141-.41.2-.138.059-.278.11-.421.153-.142.042-.285.078-.43.107-.095.017-.19.033-.287.046-.099.012-.2.02-.3.027-.119.007-.236.01-.353.008-.134 0-.27-.009-.403-.021-.15-.014-.3-.034-.45-.063l-.1-.018c-.135-.03-.27-.062-.401-.1-.149-.043-.296-.093-.441-.147-.144-.055-.286-.116-.425-.182l-.138-.065-.135-.068-.005-.002c-.076-.038-.15-.079-.224-.12l-.185-.11-.027.007-.076.046c-.838.494-1.762.842-2.724.943-1.38.143-2.837-.219-3.803-1.229-.113-.13-.226-.258-.332-.393 0-.002-.002-.003-.005-.005-.057-.079-.111-.16-.162-.243-.068-.11-.13-.224-.188-.339-.055-.112-.105-.226-.15-.343-.059-.15-.11-.303-.153-.458-.041-.15-.074-.3-.102-.454-.025-.145-.046-.293-.06-.44-.018-.21-.025-.42-.02-.63.003-.193.016-.386.04-.577.005-.044.01-.088.018-.131.012-.086.026-.172.042-.256 0-.004 0-.009.002-.013l.024-.122.037-.16c.005-.025.011-.05.018-.074.008-.04.019-.078.03-.116l.033-.115c.011-.04.022-.079.035-.117.036-.117.076-.232.117-.348.05-.133.103-.264.16-.394.048-.111.099-.22.152-.329l.067-.133c.024-.05.05-.097.078-.145.02-.038.04-.076.063-.112.024-.045.05-.09.076-.134l.127-.21.134-.204c.265-.393.559-.765.882-1.11.018-.021.04-.044.06-.065.058-.06.116-.119.175-.176.06-.058.119-.116.18-.171.06-.056.122-.112.184-.165.065-.056.13-.112.197-.166.077-.064.157-.125.237-.186.094-.07.19-.14.286-.206.115-.078.232-.154.351-.227.135-.082.273-.16.411-.234.155-.082.313-.16.475-.229.151-.065.307-.123.462-.181.09-.054.182-.104.276-.148.175-.086.356-.16.543-.223l.003-.001c.043-.015.087-.028.13-.042.07-.021.142-.041.214-.059l.123-.03.152-.032.097-.017c.037-.006.073-.013.11-.017l.083-.012c.04-.006.08-.012.12-.015l.042-.005c.044-.004.086-.009.13-.012.011-.001.023-.003.036-.003l.116-.007c.026-.002.055-.002.08-.003.054-.003.108-.004.163-.004zm-.762.962c-.304.044-.606.122-.888.245-.269.118-.519.275-.741.466-.229.196-.427.429-.594.682-.215.327-.378.688-.48 1.066-.106.393-.145.803-.134 1.21.013.459.091.913.211 1.355.08.293.178.582.292.863.122.299.262.591.416.875.074.135.15.27.23.401.08.136.166.27.252.404l.104.159.09.141.077.125.063.107.05.09c.013.023.026.047.037.072l.024.054c.005.013.01.025.01.037 0 .007 0 .014-.002.02l-.017.007-.015.002h-.004l-.015-.002c-.018-.004-.036-.011-.053-.02l-.005-.004-.061-.034-.048-.03c-.045-.03-.089-.063-.13-.097l-.04-.033-.04-.034c-.014-.01-.028-.022-.041-.035-.045-.039-.089-.078-.13-.118l-.065-.063c-.101-.1-.199-.204-.293-.312l-.024-.03c-.038-.043-.073-.085-.109-.128l-.018-.022c-.046-.056-.091-.113-.136-.171-.047-.06-.092-.121-.136-.183l-.008-.01c-.039-.055-.077-.11-.115-.168-.057-.083-.111-.167-.162-.252-.03-.046-.057-.093-.084-.14-.077-.13-.148-.262-.215-.397l-.092-.193-.01-.021c-.028-.064-.056-.126-.082-.19l-.008-.018-.07-.178-.014-.037c-.023-.062-.046-.127-.067-.19l-.003-.008-.059-.187c-.026-.089-.05-.176-.074-.265-.008-.034-.017-.068-.024-.103-.007-.028-.014-.056-.019-.084-.012-.054-.024-.11-.033-.164l-.009-.044c-.011-.062-.022-.123-.031-.186-.01-.06-.017-.118-.023-.177-.01-.079-.018-.158-.024-.237l-.01-.159-.002-.029-.006-.185v-.061c0-.072.002-.143.005-.215.001-.042.003-.083.007-.124l.002-.03.005-.084.011-.117c.003-.032.008-.063.013-.095.012-.097.026-.192.045-.287l.011-.06.01-.044c.007-.04.016-.078.026-.116.004-.02.008-.04.014-.06.018-.073.039-.146.06-.217.01-.037.023-.072.034-.108l.038-.107.02-.052.02-.054c.028-.075.06-.149.093-.222l-.004-.001c-.745.63-1.38 1.391-1.86 2.248-.413.738-.71 1.546-.8 2.393-.119 1.12.124 2.305.912 3.103.154.142.309.284.479.403.168.119.352.217.542.297.196.081.398.146.604.19.22.048.444.073.667.083.245.01.488.001.73-.023.52-.055 1.03-.184 1.516-.374.532-.208 1.033-.486 1.504-.813.447-.311.865-.664 1.241-1.058.382-.396.722-.836 1.016-1.301.149-.234.285-.474.409-.72.123-.246.232-.497.33-.752.05-.13.096-.261.139-.394.041-.129.08-.26.117-.392l.044-.16.041-.143.037-.122c.01-.035.02-.07.033-.103l.028-.085c.009-.023.016-.046.026-.067l.021-.048c.006-.01.01-.02.018-.028l.014-.01c.022.006.035.02.046.036v.001l.024.057.015.046.008.04c.003.008.004.017.006.025l.002.013.008.05.008.064c.003.03.005.061.009.091l.005.091c.005.1.005.2.002.301l-.002.072-.009.124-.003.038-.008.077-.012.094-.016.104c-.004.035-.01.07-.017.105l-.02.103-.023.105-.02.086c-.052.213-.117.423-.191.63-.017.05-.035.098-.054.147l-.06.152-.062.147-.065.146-.004.008-.064.135c-.027.058-.055.114-.085.17-.04.079-.084.159-.127.237-.028.052-.058.103-.09.155l-.081.135c-.028.046-.057.09-.086.134l-.087.134-.09.13c-.061.087-.124.172-.189.257l-.098.125c-.062.078-.127.156-.19.232-.11.125-.221.247-.336.366-.052.053-.106.108-.16.16-.136.133-.277.26-.42.384l-.123.103-.16.128c-.155.121-.315.237-.477.345.613.19 1.233.367 1.877.427.98.09 2.01-.096 2.792-.684.318-.24.595-.546.804-.893.233-.388.38-.826.455-1.27.155-.942-.022-1.916-.376-2.809-.5-1.267-1.358-2.37-2.428-3.19-.542-.369-1.085-.737-1.683-.992-.541-.231-1.129-.37-1.719-.415-.346-.026-.693-.02-1.037.03zm9.299-3.956c.38.031.74.217 1.019.497.277.281.474.64.61 1.018.136.376.213.78.245 1.18.031.402.017.81-.042 1.21-.059.399-.16.786-.313 1.159-.153.374-.352.718-.61 1.02-.256.302-.568.553-.915.714-.35.16-.736.23-1.117.18-.382-.048-.743-.214-1.04-.465-.296-.25-.53-.586-.686-.958-.156-.372-.237-.773-.256-1.18-.02-.407.02-.806.106-1.196.086-.392.22-.777.392-1.135.171-.357.383-.698.634-1 .25-.304.542-.573.875-.767.334-.194.717-.31 1.098-.277zm-17.123.277c.334.194.625.463.877.766.25.304.461.644.632 1.001.172.359.306.744.393 1.134.086.391.126.79.106 1.198-.02.406-.1.808-.257 1.18-.156.37-.39.707-.685.957-.297.25-.658.417-1.04.465-.382.05-.768-.02-1.117-.18-.348-.16-.66-.412-.916-.714s-.455-.646-.608-1.02c-.154-.373-.256-.76-.314-1.159-.06-.399-.073-.808-.041-1.209.03-.4.108-.804.244-1.181.135-.378.332-.736.61-1.018.278-.28.638-.466 1.02-.497.381-.033.764.083 1.096.277zm16.406.804c-.237.13-.445.322-.623.533-.178.21-.332.448-.459.697-.127.248-.229.512-.305.786-.076.274-.126.553-.14.836-.016.284.004.573.068.849.066.276.173.543.344.768.169.225.396.396.659.47.262.072.54.038.789-.07.248-.107.466-.284.647-.491.182-.207.33-.45.446-.705.115-.254.202-.527.26-.803.057-.277.087-.557.09-.84.002-.284-.023-.57-.081-.847-.059-.276-.152-.55-.298-.787-.146-.239-.356-.448-.619-.523-.261-.075-.54-.005-.778.127zm-17.565-.126c-.261.074-.471.283-.618.521-.146.239-.238.512-.297.788-.059.277-.084.563-.082.846.003.284.033.564.09.841.058.276.145.55.26.804.116.254.265.497.445.703.182.208.4.385.648.493.248.108.526.142.79.07.262-.074.489-.246.658-.471.17-.224.28-.493.343-.768.065-.276.085-.565.07-.848-.015-.284-.065-.563-.141-.837-.076-.273-.178-.537-.305-.786-.128-.249-.28-.486-.46-.697-.178-.211-.384-.403-.621-.534-.238-.131-.518-.2-.78-.125zm13.595-6.951c.473.053.911.306 1.255.653.344.348.609.786.808 1.249.198.464.335.96.418 1.46.082.501.113 1.02.087 1.529-.027.509-.11 1.014-.26 1.502-.15.485-.363.945-.656 1.348-.291.406-.658.746-1.082.967-.424.221-.907.32-1.372.269-.233-.027-.464-.09-.682-.186-.218-.097-.42-.223-.607-.377-.373-.309-.673-.723-.887-1.18-.212-.457-.343-.956-.403-1.463-.06-.507-.054-1.015.01-1.524.063-.51.18-1.004.35-1.48.17-.479.39-.934.664-1.346.276-.41.609-.785 1.011-1.053.402-.27.873-.42 1.346-.368zm-6.5.368c.402.268.735.642 1.01 1.053.277.412.496.867.665 1.345.17.477.288.97.35 1.48.064.51.07 1.019.01 1.525-.06.507-.19 1.006-.403 1.463-.214.458-.514.872-.887 1.18-.187.155-.39.28-.607.377-.218.097-.45.16-.682.186-.464.051-.949-.047-1.372-.268-.424-.222-.792-.563-1.083-.967-.292-.403-.506-.863-.657-1.35-.15-.487-.231-.992-.257-1.501-.027-.51.003-1.027.085-1.529.084-.5.22-.997.42-1.46.198-.463.462-.9.806-1.249.344-.347.782-.6 1.255-.653.473-.051.945.098 1.346.368zm5.408.948c-.285.23-.52.53-.714.857-.194.325-.346.673-.464 1.035-.117.362-.201.743-.246 1.124-.09.763-.037 1.557.25 2.271.144.358.346.686.613.94.269.255.61.431.962.466.351.034.711-.07 1.018-.268.308-.196.562-.48.76-.8.199-.318.346-.678.448-1.045.101-.368.16-.753.18-1.138.04-.772-.064-1.554-.336-2.266-.135-.355-.314-.698-.557-.98-.243-.285-.56-.506-.919-.542-.359-.038-.71.118-.995.346zm-6.658-.347c-.358.037-.676.258-.919.542-.243.283-.422.626-.557.981-.271.712-.375 1.494-.335 2.266.02.385.079.77.18 1.138.101.367.25.727.448 1.046.198.319.452.603.76.8.307.197.667.302 1.018.267.352-.034.693-.21.962-.465.268-.255.47-.583.613-.94.287-.715.34-1.509.25-2.272-.045-.381-.128-.762-.246-1.124-.118-.362-.27-.71-.464-1.036-.194-.326-.429-.626-.713-.856-.286-.228-.638-.384-.997-.347z"/>
                    <path fill="#FFF" d="M51 13H80V22H51zM51 25H161V37H51z" opacity=".4"/>
                </g>
                <g transform="translate(0 108)">
                    <rect width="211" height="50" fill="#697277" rx="5"/>
                    <rect width="28" height="28" x="13" y="11" fill="#FFF" rx="4"/>
                    <path fill="url(#w6c51icl8b)" d="M27.573 24c.106-.001.211.002.317.008.065.003.13.008.194.014.048.003.095.009.141.014.078.007.155.018.231.03.093.015.186.032.279.05l.013.002c.088.019.176.038.262.059l.002.001.137.037.138.04c.032.008.064.019.095.028l.092.03.085.029c.14.048.28.1.417.159.034.013.067.028.1.042.066.029.132.058.196.088l.157.077c.06.03.12.06.178.091.02.01.04.02.06.032.046.024.092.05.136.076.032.017.064.035.095.055.067.038.132.076.196.117.126.077.248.158.37.242l.346.252c.25.205.5.41.735.632.017.014.035.031.052.049.102.1.202.203.299.308.083.09.164.181.244.275.066.079.13.158.193.239.052.065.102.131.152.197.038.053.077.106.114.16l.11.16c.094.142.185.287.27.435.09.155.176.313.254.473.089.178.171.36.247.544.081.202.155.407.219.615.066.21.121.422.166.636.044.212.079.426.102.641.022.212.033.425.033.638 0 .21-.014.42-.04.63-.026.206-.064.41-.116.61-.007.031-.016.06-.024.09-.031.11-.067.218-.106.327-.032.084-.064.168-.1.25l-.004.011c-.031.07-.063.138-.097.206-.071.137-.15.27-.236.398-.088.128-.182.25-.284.365-.103.117-.211.226-.327.33-.115.104-.236.2-.362.29-.127.09-.257.172-.392.247-.132.074-.27.141-.41.2-.138.059-.278.11-.421.153-.142.042-.285.078-.43.107-.095.017-.19.033-.287.046-.099.012-.2.02-.3.027-.119.007-.236.01-.353.008-.134 0-.27-.009-.403-.021-.15-.014-.3-.034-.45-.063l-.1-.018c-.135-.03-.27-.062-.401-.1-.149-.043-.296-.093-.441-.147-.144-.055-.286-.116-.425-.182l-.138-.065-.135-.068-.005-.002c-.076-.038-.15-.079-.224-.12l-.185-.11-.027.007-.076.046c-.838.494-1.762.842-2.724.943-1.38.143-2.837-.219-3.803-1.229-.113-.13-.226-.258-.332-.393 0-.002-.002-.003-.005-.005-.057-.079-.111-.16-.162-.243-.068-.11-.13-.224-.188-.339-.055-.112-.105-.226-.15-.343-.059-.15-.11-.303-.153-.458-.041-.15-.074-.3-.102-.454-.025-.145-.046-.293-.06-.44-.018-.21-.025-.42-.02-.63.003-.193.016-.386.04-.577.005-.044.01-.088.018-.131.012-.086.026-.172.042-.256 0-.004 0-.009.002-.013l.024-.122.037-.16c.005-.025.011-.05.018-.074.008-.04.019-.078.03-.116l.033-.115c.011-.04.022-.079.035-.117.036-.117.076-.232.117-.348.05-.133.103-.264.16-.394.048-.111.099-.22.152-.329l.067-.133c.024-.05.05-.097.078-.145.02-.038.04-.076.063-.112.024-.045.05-.09.076-.134l.127-.21.134-.204c.265-.393.559-.765.882-1.11.018-.021.04-.044.06-.065.058-.06.116-.119.175-.176.06-.058.119-.116.18-.171.06-.056.122-.112.184-.165.065-.056.13-.112.197-.166.077-.064.157-.125.237-.186.094-.07.19-.14.286-.206.115-.078.232-.154.351-.227.135-.082.273-.16.411-.234.155-.082.313-.16.475-.229.151-.065.307-.123.462-.181.09-.054.182-.104.276-.148.175-.086.356-.16.543-.223l.003-.001c.043-.015.087-.028.13-.042.07-.021.142-.041.214-.059l.123-.03.152-.032.097-.017c.037-.006.073-.013.11-.017l.083-.012c.04-.006.08-.012.12-.015l.042-.005c.044-.004.086-.009.13-.012.011-.001.023-.003.036-.003l.116-.007c.026-.002.055-.002.08-.003.054-.003.108-.004.163-.004zm-.762.962c-.304.044-.606.122-.888.245-.269.118-.519.275-.741.466-.229.196-.427.429-.594.682-.215.327-.378.688-.48 1.066-.106.393-.145.803-.134 1.21.013.459.091.913.211 1.355.08.293.178.582.292.863.122.299.262.591.416.875.074.135.15.27.23.401.08.136.166.27.252.404l.104.159.09.141.077.125.063.107.05.09c.013.023.026.047.037.072l.024.054c.005.013.01.025.01.037 0 .007 0 .014-.002.02l-.017.007-.015.002h-.004l-.015-.002c-.018-.004-.036-.011-.053-.02l-.005-.004-.061-.034-.048-.03c-.045-.03-.089-.063-.13-.097l-.04-.033-.04-.034c-.014-.01-.028-.022-.041-.035-.045-.039-.089-.078-.13-.118l-.065-.063c-.101-.1-.199-.204-.293-.312l-.024-.03c-.038-.043-.073-.085-.109-.128l-.018-.022c-.046-.056-.091-.113-.136-.171-.047-.06-.092-.121-.136-.183l-.008-.01c-.039-.055-.077-.11-.115-.168-.057-.083-.111-.167-.162-.252-.03-.046-.057-.093-.084-.14-.077-.13-.148-.262-.215-.397l-.092-.193-.01-.021c-.028-.064-.056-.126-.082-.19l-.008-.018-.07-.178-.014-.037c-.023-.062-.046-.127-.067-.19l-.003-.008-.059-.187c-.026-.089-.05-.176-.074-.265-.008-.034-.017-.068-.024-.103-.007-.028-.014-.056-.019-.084-.012-.054-.024-.11-.033-.164l-.009-.044c-.011-.062-.022-.123-.031-.186-.01-.06-.017-.118-.023-.177-.01-.079-.018-.158-.024-.237l-.01-.159-.002-.029-.006-.185v-.061c0-.072.002-.143.005-.215.001-.042.003-.083.007-.124l.002-.03.005-.084.011-.117c.003-.032.008-.063.013-.095.012-.097.026-.192.045-.287l.011-.06.01-.044c.007-.04.016-.078.026-.116.004-.02.008-.04.014-.06.018-.073.039-.146.06-.217.01-.037.023-.072.034-.108l.038-.107.02-.052.02-.054c.028-.075.06-.149.093-.222l-.004-.001c-.745.63-1.38 1.391-1.86 2.248-.413.738-.71 1.546-.8 2.393-.119 1.12.124 2.305.912 3.103.154.142.309.284.479.403.168.119.352.217.542.297.196.081.398.146.604.19.22.048.444.073.667.083.245.01.488.001.73-.023.52-.055 1.03-.184 1.516-.374.532-.208 1.033-.486 1.504-.813.447-.311.865-.664 1.241-1.058.382-.396.722-.836 1.016-1.301.149-.234.285-.474.409-.72.123-.246.232-.497.33-.752.05-.13.096-.261.139-.394.041-.129.08-.26.117-.392l.044-.16.041-.143.037-.122c.01-.035.02-.07.033-.103l.028-.085c.009-.023.016-.046.026-.067l.021-.048c.006-.01.01-.02.018-.028l.014-.01c.022.006.035.02.046.036v.001l.024.057.015.046.008.04c.003.008.004.017.006.025l.002.013.008.05.008.064c.003.03.005.061.009.091l.005.091c.005.1.005.2.002.301l-.002.072-.009.124-.003.038-.008.077-.012.094-.016.104c-.004.035-.01.07-.017.105l-.02.103-.023.105-.02.086c-.052.213-.117.423-.191.63-.017.05-.035.098-.054.147l-.06.152-.062.147-.065.146-.004.008-.064.135c-.027.058-.055.114-.085.17-.04.079-.084.159-.127.237-.028.052-.058.103-.09.155l-.081.135c-.028.046-.057.09-.086.134l-.087.134-.09.13c-.061.087-.124.172-.189.257l-.098.125c-.062.078-.127.156-.19.232-.11.125-.221.247-.336.366-.052.053-.106.108-.16.16-.136.133-.277.26-.42.384l-.123.103-.16.128c-.155.121-.315.237-.477.345.613.19 1.233.367 1.877.427.98.09 2.01-.096 2.792-.684.318-.24.595-.546.804-.893.233-.388.38-.826.455-1.27.155-.942-.022-1.916-.376-2.809-.5-1.267-1.358-2.37-2.428-3.19-.542-.369-1.085-.737-1.683-.992-.541-.231-1.129-.37-1.719-.415-.346-.026-.693-.02-1.037.03zm9.299-3.956c.38.031.74.217 1.019.497.277.281.474.64.61 1.018.136.376.213.78.245 1.18.031.402.017.81-.042 1.21-.059.399-.16.786-.313 1.159-.153.374-.352.718-.61 1.02-.256.302-.568.553-.915.714-.35.16-.736.23-1.117.18-.382-.048-.743-.214-1.04-.465-.296-.25-.53-.586-.686-.958-.156-.372-.237-.773-.256-1.18-.02-.407.02-.806.106-1.196.086-.392.22-.777.392-1.135.171-.357.383-.698.634-1 .25-.304.542-.573.875-.767.334-.194.717-.31 1.098-.277zm-17.123.277c.334.194.625.463.877.766.25.304.461.644.632 1.001.172.359.306.744.393 1.134.086.391.126.79.106 1.198-.02.406-.1.808-.257 1.18-.156.37-.39.707-.685.957-.297.25-.658.417-1.04.465-.382.05-.768-.02-1.117-.18-.348-.16-.66-.412-.916-.714s-.455-.646-.608-1.02c-.154-.373-.256-.76-.314-1.159-.06-.399-.073-.808-.041-1.209.03-.4.108-.804.244-1.181.135-.378.332-.736.61-1.018.278-.28.638-.466 1.02-.497.381-.033.764.083 1.096.277zm16.406.804c-.237.13-.445.322-.623.533-.178.21-.332.448-.459.697-.127.248-.229.512-.305.786-.076.274-.126.553-.14.836-.016.284.004.573.068.849.066.276.173.543.344.768.169.225.396.396.659.47.262.072.54.038.789-.07.248-.107.466-.284.647-.491.182-.207.33-.45.446-.705.115-.254.202-.527.26-.803.057-.277.087-.557.09-.84.002-.284-.023-.57-.081-.847-.059-.276-.152-.55-.298-.787-.146-.239-.356-.448-.619-.523-.261-.075-.54-.005-.778.127zm-17.565-.126c-.261.074-.471.283-.618.521-.146.239-.238.512-.297.788-.059.277-.084.563-.082.846.003.284.033.564.09.841.058.276.145.55.26.804.116.254.265.497.445.703.182.208.4.385.648.493.248.108.526.142.79.07.262-.074.489-.246.658-.471.17-.224.28-.493.343-.768.065-.276.085-.565.07-.848-.015-.284-.065-.563-.141-.837-.076-.273-.178-.537-.305-.786-.128-.249-.28-.486-.46-.697-.178-.211-.384-.403-.621-.534-.238-.131-.518-.2-.78-.125zm13.595-6.951c.473.053.911.306 1.255.653.344.348.609.786.808 1.249.198.464.335.96.418 1.46.082.501.113 1.02.087 1.529-.027.509-.11 1.014-.26 1.502-.15.485-.363.945-.656 1.348-.291.406-.658.746-1.082.967-.424.221-.907.32-1.372.269-.233-.027-.464-.09-.682-.186-.218-.097-.42-.223-.607-.377-.373-.309-.673-.723-.887-1.18-.212-.457-.343-.956-.403-1.463-.06-.507-.054-1.015.01-1.524.063-.51.18-1.004.35-1.48.17-.479.39-.934.664-1.346.276-.41.609-.785 1.011-1.053.402-.27.873-.42 1.346-.368zm-6.5.368c.402.268.735.642 1.01 1.053.277.412.496.867.665 1.345.17.477.288.97.35 1.48.064.51.07 1.019.01 1.525-.06.507-.19 1.006-.403 1.463-.214.458-.514.872-.887 1.18-.187.155-.39.28-.607.377-.218.097-.45.16-.682.186-.464.051-.949-.047-1.372-.268-.424-.222-.792-.563-1.083-.967-.292-.403-.506-.863-.657-1.35-.15-.487-.231-.992-.257-1.501-.027-.51.003-1.027.085-1.529.084-.5.22-.997.42-1.46.198-.463.462-.9.806-1.249.344-.347.782-.6 1.255-.653.473-.051.945.098 1.346.368zm5.408.948c-.285.23-.52.53-.714.857-.194.325-.346.673-.464 1.035-.117.362-.201.743-.246 1.124-.09.763-.037 1.557.25 2.271.144.358.346.686.613.94.269.255.61.431.962.466.351.034.711-.07 1.018-.268.308-.196.562-.48.76-.8.199-.318.346-.678.448-1.045.101-.368.16-.753.18-1.138.04-.772-.064-1.554-.336-2.266-.135-.355-.314-.698-.557-.98-.243-.285-.56-.506-.919-.542-.359-.038-.71.118-.995.346zm-6.658-.347c-.358.037-.676.258-.919.542-.243.283-.422.626-.557.981-.271.712-.375 1.494-.335 2.266.02.385.079.77.18 1.138.101.367.25.727.448 1.046.198.319.452.603.76.8.307.197.667.302 1.018.267.352-.034.693-.21.962-.465.268-.255.47-.583.613-.94.287-.715.34-1.509.25-2.272-.045-.381-.128-.762-.246-1.124-.118-.362-.27-.71-.464-1.036-.194-.326-.429-.626-.713-.856-.286-.228-.638-.384-.997-.347z"/>
                    <path fill="#FFF" d="M51 13H72V22H51zM51 25H181V37H51z" opacity=".4"/>
                </g>
            </g>
        </g>
    </g>
</svg>
