<svg xmlns="http://www.w3.org/2000/svg" viewBox="0 0 900 300"><defs><style>.cls-1,.cls-10{fill:#fff;}.cls-2{fill:#45b2ff;}.cls-3{fill:#ccc;}.cls-4{fill:#4d4d4d;}.cls-5{fill:#a0afba;}.cls-6{fill:#697c8a;}.cls-7{fill:#b3b3b3;}.cls-8{fill:gray;}.cls-10,.cls-9{fill-rule:evenodd;}.cls-10{stroke:#000;stroke-miterlimit:22.93;stroke-width:0.57px;}.cls-11{fill:#131416;}</style></defs><g id="Layer_1" data-name="Layer 1"><rect class="cls-1" width="900" height="300"/><path class="cls-2" d="M252.53,134.31c-3.16-6.3-7.4-10.2-12-10.2s-8.82,3.9-12,10.2c-3.34,6.66-5.4,15.9-5.4,26.15s2.06,19.49,5.4,26.14c3.16,6.3,7.4,10.2,12,10.2s8.81-3.9,12-10.2c3.34-6.65,5.4-15.9,5.4-26.14s-2.06-19.49-5.4-26.15Z"/><path class="cls-2" d="M57.49,113.39h-.11c-2.1-.25-4.36,2.2-6.54,6.29a65.71,65.71,0,0,0-4.74,12.38,129.88,129.88,0,0,0-3.43,15.74c-2.87,18.33-2.49,37.49,4.2,39.81l.26.11h.08a5.93,5.93,0,0,0,1-1.26,29.36,29.36,0,0,0,3-6.32,142.44,142.44,0,0,0,6.19-25.79,173.83,173.83,0,0,0,2.34-28.23c-.1-6.93-.78-11.67-2-12.66l-.26-.06Z"/><path class="cls-1" d="M211.11,129.72a34.69,34.69,0,0,1,5.18-6.3A162.12,162.12,0,0,0,214,100.31c-.92-4.86-2.08-8.71-3.44-9.44a.61.61,0,0,0-.23-.05c-1.83-.1-5.17,2.48-8.61,6a59.15,59.15,0,0,0-9.31,12.39,17.36,17.36,0,0,0-1.53,3.68A97,97,0,0,1,203,121.68a74.11,74.11,0,0,1,8.09,8Z"/><path class="cls-3" d="M211.11,129.72a37.34,37.34,0,0,1,3.13-4.16c-5.07-5.2-10.88-10.93-10.59-17,.42-9.08,9.23-13.24,9.23-13.24-.68-2.35-1.44-4-2.29-4.46a.61.61,0,0,0-.23-.05c-1.83-.1-5.17,2.48-8.61,6a59.15,59.15,0,0,0-9.31,12.39,17.36,17.36,0,0,0-1.53,3.68A97,97,0,0,1,203,121.68a74.11,74.11,0,0,1,8.09,8Z"/><path class="cls-4" d="M237.83,199.89c-4.85-1.17-9.12-5.45-12.29-11.77-3.57-7.11-5.78-16.9-5.78-27.66s2.21-20.55,5.78-27.67c2.92-5.82,6.78-9.91,11.16-11.43a2,2,0,0,0-.34-.12,15.72,15.72,0,0,0-5.14-.87,16.15,16.15,0,0,0-6.48,1.38,1.62,1.62,0,0,1-.9.43,26.5,26.5,0,0,0-10.09,9.75c-4.67,7.38-7.56,17.6-7.56,28.92s2.89,21.55,7.56,28.92c4.53,7.15,10.71,11.56,17.47,11.56a16,16,0,0,0,5.88-1.13l.73-.31Z"/><path class="cls-1" d="M251.08,145.7c-1.18-3.23-2.6-5.23-4-5.23s-2.82,2-4,5.23a44.67,44.67,0,0,0-2.21,14.76,44.64,44.64,0,0,0,2.21,14.75c1.17,3.23,2.6,5.23,4,5.23s2.81-2,4-5.23a44.64,44.64,0,0,0,2.21-14.75,44.67,44.67,0,0,0-2.21-14.76Z"/><path class="cls-1" d="M80.5,121.74l0,.1a55.66,55.66,0,0,1,7.4-6.37,64.54,64.54,0,0,1,10.86-6.29c-1.34-4.2-5.42-16.24-8.28-16.83-1,0-2.85,4-4.72,9.11A123.09,123.09,0,0,0,81,118.85c-.22,1.12-.37,2.1-.47,2.89Z"/><path class="cls-3" d="M80.5,121.74l0,.1a55.66,55.66,0,0,1,7.4-6.37,64.54,64.54,0,0,1,10.86-6.29c-1.34-4.2-5.42-16.24-8.28-16.83-.59,0-1.48,1.38-2.49,3.57,1.33,2.42,3.87,8.24.82,13.18-2.39,3.87-5.43,6.88-8,10.26-.16.91-.29,1.72-.37,2.38Z"/><path class="cls-1" d="M52.3,129.73A12.41,12.41,0,0,0,51,131.92a38,38,0,0,0-2.31,6.44C48,141,47.35,143.91,46.81,147c-1.73,9.82-2.48,20.49-.72,23a19.67,19.67,0,0,0,1-2.58,106.48,106.48,0,0,0,3.57-16,132.87,132.87,0,0,0,1.63-15.85,49.25,49.25,0,0,0,0-5.84Z"/><path class="cls-5" d="M200.69,81.79a1.86,1.86,0,0,1-.28.21c-.7.53-1.41,1.09-2.12,1.68a94.21,94.21,0,0,0-18.75,22,1.7,1.7,0,0,1-2.16.68,80.45,80.45,0,0,0-31.07-7.45,81.76,81.76,0,0,0-31.09,5.4,1.71,1.71,0,0,1-2.18-1c-.41-1-10.86-25.64-21.47-23.17-2.54.59-5,4.37-7.13,9.64-3,7.16-5.24,16.89-6.76,25.47.15.19.28.39.42.59a127.49,127.49,0,0,1,4.49-15.57C85,93.77,87.93,88.66,90.88,89l.24,0c5.52,1,11.36,20.57,11.38,20.62a1.7,1.7,0,0,1-1,2.07,62.7,62.7,0,0,0-11.59,6.54,50.23,50.23,0,0,0-8.6,7.8c.19,1.34.32,2.75.42,4.22A125.08,125.08,0,0,1,80,156.87a117,117,0,0,1-6.66,25c-2.91,7-6.46,11.57-10.37,11.81h-.08A49.92,49.92,0,0,1,60.5,199a46.11,46.11,0,0,1-3,5A15.31,15.31,0,0,0,62,208.13,28.57,28.57,0,0,0,69,211a1.71,1.71,0,0,1,1.17,2.11,1.69,1.69,0,0,1-.87,1.06,33.52,33.52,0,0,1-6.28,3.1,22.89,22.89,0,0,1-3.12.9c7.95,8.19,19.1,15.17,30.91,20.41,14.61,6.49,30.18,10.32,42,10.52,12.69.22,31-2.52,50.08-7.82a222.1,222.1,0,0,0,44.81-17.51c-2.33-1.08-3.87-2.89-6.07-5.48l-.4-.47a1.71,1.71,0,0,1,1.58-2.79,20,20,0,0,0,6.95.14,14.12,14.12,0,0,0,4.75-1.8c-.6-1.43-1.15-2.86-1.65-4.28s-1-2.89-1.43-4.34h-.14c-8,0-15.2-5-20.35-13.15-5-7.9-8.1-18.77-8.1-30.75,0-10.65,2.45-20.44,6.51-28a71,71,0,0,0-8.47-8.56,95.86,95.86,0,0,0-12.64-9.06,1.68,1.68,0,0,1-.81-1.55h0a15.9,15.9,0,0,1,2.08-6,62.75,62.75,0,0,1,9.87-13.18c4.07-4.16,8.34-7.19,11.25-7a3.77,3.77,0,0,1,1.63.44c2.45,1.29,4.1,6,5.2,11.82a161.35,161.35,0,0,1,2.22,21,24.25,24.25,0,0,1,2.28-1.38,131.44,131.44,0,0,0-3.55-27.69c-1.9-7.53-4.23-12.9-6.51-13.85-2.63-1.09-6.69.7-11.13,4Z"/><path class="cls-6" d="M64.67,216.61c-.55.24-1.11.46-1.67.66a22.89,22.89,0,0,1-3.12.9c7.95,8.19,19.1,15.17,30.91,20.41,14.61,6.49,30.18,10.32,42,10.52,12.69.22,31-2.52,50.08-7.82a222.1,222.1,0,0,0,44.81-17.51c-2.33-1.08-3.87-2.89-6.07-5.48l-.4-.47a1.71,1.71,0,0,1,1.58-2.79,20,20,0,0,0,6.95.14,14.12,14.12,0,0,0,4.75-1.8c-.6-1.43-1.15-2.86-1.65-4.28s-1-2.89-1.43-4.34h-.14c-7.33,0-14-4.2-19-11.14-.11,13-2,19-2,19-48.68,34.57-96,41-145.6,4Zm140-71.63a53.32,53.32,0,0,1,4.61-12.15,71,71,0,0,0-8.47-8.56,95.86,95.86,0,0,0-12.64-9.06l-.19-.13A115,115,0,0,1,204.67,145Z"/><path class="cls-1" d="M133.71,190.28c21.94.54,39.72,16.37,39.72,29S155.65,236.52,133.71,236,94,230,94,217.33s17.78-27.58,39.72-27.05Z"/><path class="cls-7" d="M101.78,80.43a71.48,71.48,0,0,1,23.11-10.54,125.73,125.73,0,0,1,31.34-4h.13a118.64,118.64,0,0,1,25.77,4.34,57.32,57.32,0,0,1,17.44,8.16c5.07-3.53,9.91-5.27,13.54-3.77,3.37,1.39,6.38,7.64,8.53,16.17a134.21,134.21,0,0,1,3.6,27.09,19.12,19.12,0,0,1,12.23.09,23.53,23.53,0,0,1,2.22.91l-.12-.56c-3.26-15.57-13.11-62.54-81.08-68C78.56,49.92,63.8,98.31,61.08,110a47.86,47.86,0,0,1,5.09.44,34.8,34.8,0,0,1,8.41,2.29l.09,0c1.55-8.29,3.78-17.38,6.62-24.28,2.57-6.25,5.73-10.8,9.51-11.68s7.63.75,11,3.59Z"/><path class="cls-8" d="M101.78,80.43a71.48,71.48,0,0,1,23.11-10.54,125.73,125.73,0,0,1,31.34-4h.13a118.64,118.64,0,0,1,25.77,4.34,57.32,57.32,0,0,1,17.44,8.16,23.19,23.19,0,0,1,9-4.17c-11.31-9.08-27.39-16.18-50.44-18.1-68-.41-86.84,37.5-92.08,54.31h.08a34.8,34.8,0,0,1,8.41,2.29l.09,0c1.55-8.29,3.78-17.38,6.62-24.28,2.57-6.25,5.73-10.8,9.51-11.68s7.63.75,11,3.59Zm118.57,5.86c.45,1.42.89,2.93,1.29,4.53a134.21,134.21,0,0,1,3.6,27.09,19.15,19.15,0,0,1,6-1,18.87,18.87,0,0,1,3.28.29c-2-8.39-5.85-20-14.15-30.95Z"/><path class="cls-4" d="M77.24,122.53a1.89,1.89,0,0,1-.16-.63,12.25,12.25,0,0,0-2.24-4.81,1.49,1.49,0,0,1-.37-.38,4,4,0,0,0-1.2-.8,31.54,31.54,0,0,0-7.59-2.06c-1.39-.2-2.79-.33-4.2-.4,1.06,2.79,1.62,7.18,1.7,12.62a177.25,177.25,0,0,1-2.37,28.79,146.9,146.9,0,0,1-6.35,26.44A32.7,32.7,0,0,1,51,188.4c-.15.21-.3.41-.45.59A25.25,25.25,0,0,0,55,190a37.56,37.56,0,0,0,7.74.25c2.41-.15,5-3.95,7.42-9.71a114.23,114.23,0,0,0,6.45-24.26,121.35,121.35,0,0,0,1.69-25.87c-.1-1.6-.25-3.1-.44-4.51a1.27,1.27,0,0,1-.06-.39c-.17-1.08-.36-2.09-.59-3Z"/><path d="M77.24,122.53a1.89,1.89,0,0,1-.16-.63,12.25,12.25,0,0,0-2.24-4.81,1.49,1.49,0,0,1-.37-.38,4,4,0,0,0-1.2-.8,31.54,31.54,0,0,0-7.59-2.06c-1.39-.2-2.79-.33-4.2-.4,1.06,2.79,1.62,7.18,1.7,12.62a177.25,177.25,0,0,1-2.37,28.79,146.9,146.9,0,0,1-6.35,26.44A32.7,32.7,0,0,1,51,188.4c-.15.21-.3.41-.45.59A25.25,25.25,0,0,0,55,190a37.56,37.56,0,0,0,7.74.25c2.41-.15,5-3.95,7.42-9.71a114.23,114.23,0,0,0,6.45-24.26,121.35,121.35,0,0,0,1.69-25.87c-.1-1.6-.25-3.1-.44-4.51a1.27,1.27,0,0,1-.06-.39c-.17-1.08-.36-2.09-.59-3Zm24.54-42.1a71.48,71.48,0,0,1,23.11-10.54,125.73,125.73,0,0,1,31.34-4h.13a118.64,118.64,0,0,1,25.77,4.34,57.32,57.32,0,0,1,17.44,8.16c5.07-3.53,9.91-5.27,13.54-3.77,3.37,1.39,6.38,7.64,8.53,16.17a134.21,134.21,0,0,1,3.6,27.09,19.12,19.12,0,0,1,12.23.09,23.53,23.53,0,0,1,2.22.91l-.12-.56c-3.26-15.57-13.11-62.54-81.08-68C78.56,49.92,63.8,98.31,61.08,110a47.86,47.86,0,0,1,5.09.44,34.8,34.8,0,0,1,8.41,2.29l.09,0c1.55-8.29,3.78-17.38,6.62-24.28,2.57-6.25,5.73-10.8,9.51-11.68s7.63.75,11,3.59Zm98.91,1.36a1.86,1.86,0,0,1-.28.21c-.7.53-1.41,1.09-2.12,1.68a94.21,94.21,0,0,0-18.75,22,1.7,1.7,0,0,1-2.16.68,80.45,80.45,0,0,0-31.07-7.45,81.76,81.76,0,0,0-31.09,5.4,1.71,1.71,0,0,1-2.18-1c-.41-1-10.86-25.64-21.47-23.17-2.54.59-5,4.37-7.13,9.64-3,7.16-5.24,16.89-6.76,25.47.15.19.28.39.42.59a127.49,127.49,0,0,1,4.49-15.57C85,93.77,87.93,88.66,90.88,89l.24,0c5.52,1,11.36,20.57,11.38,20.62a1.7,1.7,0,0,1-1,2.07,62.7,62.7,0,0,0-11.59,6.54,50.23,50.23,0,0,0-8.6,7.8c.19,1.34.32,2.75.42,4.22A125.08,125.08,0,0,1,80,156.87a117,117,0,0,1-6.66,25c-2.91,7-6.46,11.57-10.37,11.81h-.08A49.92,49.92,0,0,1,60.5,199a46.11,46.11,0,0,1-3,5A15.31,15.31,0,0,0,62,208.13,28.57,28.57,0,0,0,69,211a1.71,1.71,0,0,1,1.17,2.11,1.69,1.69,0,0,1-.87,1.06,33.52,33.52,0,0,1-6.28,3.1,22.89,22.89,0,0,1-3.12.9c7.95,8.19,19.1,15.17,30.91,20.41,14.61,6.49,30.18,10.32,42,10.52,12.69.22,31-2.52,50.08-7.82a222.1,222.1,0,0,0,44.81-17.51c-2.33-1.08-3.87-2.89-6.07-5.48l-.4-.47a1.71,1.71,0,0,1,1.58-2.79,20,20,0,0,0,6.95.14,14.12,14.12,0,0,0,4.75-1.8c-.6-1.43-1.15-2.86-1.65-4.28s-1-2.89-1.43-4.34h-.14c-8,0-15.2-5-20.35-13.15-5-7.9-8.1-18.77-8.1-30.75,0-10.65,2.45-20.44,6.51-28a71,71,0,0,0-8.47-8.56,95.86,95.86,0,0,0-12.64-9.06,1.68,1.68,0,0,1-.81-1.55h0a15.9,15.9,0,0,1,2.08-6,62.75,62.75,0,0,1,9.87-13.18c4.07-4.16,8.34-7.19,11.25-7a3.77,3.77,0,0,1,1.63.44c2.45,1.29,4.1,6,5.2,11.82a161.35,161.35,0,0,1,2.22,21,24.25,24.25,0,0,1,2.28-1.38,131.44,131.44,0,0,0-3.55-27.69c-1.9-7.53-4.23-12.9-6.51-13.85-2.63-1.09-6.69.7-11.13,4Zm-4-1.21a55.42,55.42,0,0,0-15.56-7,114.34,114.34,0,0,0-25-4.2,122.15,122.15,0,0,0-30.39,3.86,68.51,68.51,0,0,0-21.48,9.64c5.54,5.9,9.71,14.36,11.25,17.74a84.52,84.52,0,0,1,30.86-5.06,83.28,83.28,0,0,1,31,7.13,98.36,98.36,0,0,1,18.7-21.57l.6-.49ZM57.6,110c2.39-10.83,16.65-63.53,101-63h.12c70.52,5.63,80.77,54.48,84.16,70.68.31,1.49.56,2.68.78,3.47,4.68,1.31,8.81,5.53,11.88,11.66,3.57,7.12,5.78,16.9,5.78,27.67s-2.21,20.55-5.78,27.66c-2.8,5.58-6.46,9.57-10.63,11.24h0a23.37,23.37,0,0,1-6.58,4,19.74,19.74,0,0,1-3.52,1c.37,1.17.76,2.35,1.18,3.54.65,1.81,1.36,3.6,2.14,5.39a1.72,1.72,0,0,1-.59,2.09,18.13,18.13,0,0,1-7.26,3.09,19.15,19.15,0,0,1-3.67.3,8.57,8.57,0,0,0,5.65,2.65,1.71,1.71,0,0,1,.79,3.19c-14.71,8.44-32.29,15.18-49.33,19.91-19.36,5.37-38,8.16-51,7.94-12.2-.22-28.26-4.15-43.27-10.82-13.35-5.92-25.91-14-34.27-23.63a1.66,1.66,0,0,1-.44-1.07,1.7,1.7,0,0,1,1.62-1.78,18.56,18.56,0,0,0,5.52-1.14,25.83,25.83,0,0,0,2.46-1,27.14,27.14,0,0,1-4.05-2,18.47,18.47,0,0,1-6.33-6.2,1.69,1.69,0,0,1,.09-1.9,40.89,40.89,0,0,0,3.46-5.52c.62-1.19,1.19-2.4,1.7-3.63a35.83,35.83,0,0,1-4.64-.37,27.61,27.61,0,0,1-7.86-2.32,3.43,3.43,0,0,1-.44-.09,2.84,2.84,0,0,1-.68-.27c-8.33-3.2-9.32-23.88-6.26-43.47a137.06,137.06,0,0,1,3.51-16.15,69.62,69.62,0,0,1,5-13.06c2.82-5.31,6.14-8.45,9.77-8.09Zm-5.3,19.76A12.41,12.41,0,0,0,51,131.92a38,38,0,0,0-2.31,6.44C48,141,47.35,143.91,46.81,147c-1.73,9.82-2.48,20.49-.72,23a19.67,19.67,0,0,0,1-2.58,106.48,106.48,0,0,0,3.57-16,132.87,132.87,0,0,0,1.63-15.85,49.25,49.25,0,0,0,0-5.84Zm-4.31.68c1.55-3.14,3.42-4.77,5.57-4.07a1.65,1.65,0,0,1,.41.18c1.33.8,1.91,4.24,1.76,9.14A135.94,135.94,0,0,1,54.07,152a109.93,109.93,0,0,1-3.71,16.5,19.79,19.79,0,0,1-1.5,3.54c-.86,1.44-1.89,2.07-3.08,1.74a2.39,2.39,0,0,1-.49-.2c-4-2-3.94-15.24-1.85-27.14.56-3.13,1.24-6.19,2-8.94a42,42,0,0,1,2.55-7Zm9.5-17h-.11c-2.1-.25-4.36,2.2-6.54,6.29a65.71,65.71,0,0,0-4.74,12.38,129.88,129.88,0,0,0-3.43,15.74c-2.87,18.33-2.49,37.49,4.2,39.81l.26.11h.08a5.93,5.93,0,0,0,1-1.26,29.36,29.36,0,0,0,3-6.32,142.44,142.44,0,0,0,6.19-25.79,173.83,173.83,0,0,0,2.34-28.23c-.1-6.93-.78-11.67-2-12.66l-.26-.06Zm23,8.35,0,.1a55.66,55.66,0,0,1,7.4-6.37,64.54,64.54,0,0,1,10.86-6.29c-1.34-4.2-5.42-16.24-8.28-16.83-1,0-2.85,4-4.72,9.11A123.09,123.09,0,0,0,81,118.85c-.22,1.12-.37,2.1-.47,2.89Zm166.59,15.32c3,0,5.51,2.86,7.2,7.48a53.54,53.54,0,0,1,0,31.83c-1.69,4.62-4.22,7.48-7.2,7.48s-5.51-2.86-7.2-7.48a53.54,53.54,0,0,1,0-31.83c1.69-4.62,4.22-7.48,7.2-7.48Zm4,8.64c-1.18-3.23-2.6-5.23-4-5.23s-2.82,2-4,5.23a44.67,44.67,0,0,0-2.21,14.76,44.64,44.64,0,0,0,2.21,14.75c1.17,3.23,2.6,5.23,4,5.23s2.81-2,4-5.23a44.64,44.64,0,0,0,2.21-14.75,44.67,44.67,0,0,0-2.21-14.76Zm-13.25,54.19c-4.85-1.17-9.12-5.45-12.29-11.77-3.57-7.11-5.78-16.9-5.78-27.66s2.21-20.55,5.78-27.67c2.92-5.82,6.78-9.91,11.16-11.43a2,2,0,0,0-.34-.12,15.72,15.72,0,0,0-5.14-.87,16.15,16.15,0,0,0-6.48,1.38,1.62,1.62,0,0,1-.9.43,26.5,26.5,0,0,0-10.09,9.75c-4.67,7.38-7.56,17.6-7.56,28.92s2.89,21.55,7.56,28.92c4.53,7.15,10.71,11.56,17.47,11.56a16,16,0,0,0,5.88-1.13l.73-.31Zm14.7-65.58c-3.16-6.3-7.4-10.2-12-10.2s-8.82,3.9-12,10.2c-3.34,6.66-5.4,15.9-5.4,26.15s2.06,19.49,5.4,26.14c3.16,6.3,7.4,10.2,12,10.2s8.81-3.9,12-10.2c3.34-6.65,5.4-15.9,5.4-26.14s-2.06-19.49-5.4-26.15Zm-41.42-4.59a34.69,34.69,0,0,1,5.18-6.3A162.12,162.12,0,0,0,214,100.31c-.92-4.86-2.08-8.71-3.44-9.44a.61.61,0,0,0-.23-.05c-1.83-.1-5.17,2.48-8.61,6a59.15,59.15,0,0,0-9.31,12.39,17.36,17.36,0,0,0-1.53,3.68A97,97,0,0,1,203,121.68a74.11,74.11,0,0,1,8.09,8Z"/><path class="cls-9" d="M101.52,164.88c5.45,0,9.87,6.57,9.87,14.67s-4.42,14.66-9.87,14.66-9.88-6.56-9.88-14.66,4.42-14.67,9.88-14.67Zm90.28,61.05a1.14,1.14,0,1,0,1.46-1.74s-7.72-6.55-21.14-10.38a1.14,1.14,0,1,0-.63,2.19c12.95,3.7,20.29,9.92,20.31,9.93Zm2.49-10.74a1.14,1.14,0,1,0,.84-2.11s-9.36-3.84-23.3-3.35a1.14,1.14,0,1,0,.08,2.27c13.46-.48,22.36,3.18,22.38,3.19Zm.37-11.07a1.14,1.14,0,1,0,.23-2.26s-10.07-1.09-23.32,3.25a1.14,1.14,0,0,0,.7,2.17c12.81-4.2,22.37-3.16,22.39-3.16Zm-116,21.81a1.13,1.13,0,1,1-1.45-1.74s7.72-6.55,21.14-10.38a1.14,1.14,0,0,1,.62,2.19c-13,3.7-20.28,9.92-20.31,9.93Zm-2.49-10.74a1.14,1.14,0,0,1-.84-2.11s9.36-3.84,23.31-3.35a1.14,1.14,0,0,1-.08,2.27c-13.47-.48-22.36,3.18-22.39,3.19Zm-.37-11.07a1.14,1.14,0,1,1-.22-2.26s10.06-1.09,23.31,3.25a1.14,1.14,0,0,1-.7,2.17c-12.8-4.2-22.36-3.16-22.39-3.16Zm55.55,4.68,0,6.9c2,1.4,8.36,5.09,12.72-2a1.7,1.7,0,1,1,2.89,1.79c-5.93,9.6-14.37,5.14-17.32,3.13-2.62,1.82-9.59,5.34-15.85-3.24a1.7,1.7,0,1,1,2.75-2c4.63,6.34,9.68,3.52,11.33,2.31l0-7.16c-2.22-1.64-5.82-4.79-6-8-.24-4.7,15.57-5,16.83-.47.93,3.33-4.55,7-7.45,8.73Zm36.06-42.21c5.45,0,9.87,6.56,9.87,14.66s-4.42,14.67-9.87,14.67-9.87-6.57-9.87-14.67,4.42-14.66,9.87-14.66Z"/><path class="cls-10" d="M170.11,170.72c1.59,0,2.88,2.2,2.88,4.92s-1.29,4.91-2.88,4.91-2.88-2.2-2.88-4.91,1.29-4.92,2.88-4.92Z"/><path class="cls-10" d="M104.22,170.72c1.59,0,2.88,2.2,2.88,4.92s-1.29,4.91-2.88,4.91-2.89-2.2-2.89-4.91,1.3-4.92,2.89-4.92Z"/><path class="cls-11" d="M345.77,148.87h-.44l-1.54,5.94H329.05V78.25H348V96.07l-.44,7.92a20.24,20.24,0,0,1,13.53-5.5c13,0,21.45,11,21.45,27.83,0,19-11.22,29.81-22.88,29.81C354.79,156.13,350,153.71,345.77,148.87Zm17.38-22.22c0-9-2.64-12.76-7.7-12.76-2.86,0-5.06,1.1-7.48,4v20.24a10.1,10.1,0,0,0,7,2.64C359.41,140.73,363.15,137.21,363.15,126.65Z"/><path class="cls-11" d="M389.54,139.19c0-11.44,8.8-17.82,29.92-20-.43-4-2.85-5.72-7.69-5.72-4,0-8.15,1.54-13.86,4.62l-6.61-12.32c7.7-4.62,15.62-7.26,24.2-7.26,14.31,0,22.89,7.7,22.89,25.74v30.58H423l-1.32-5.28h-.44c-4.4,4-9.24,6.6-15.19,6.6C395.71,156.13,389.54,148.21,389.54,139.19Zm29.92-1.32v-7.48c-9,1.32-11.88,4.18-11.88,7.26,0,2.53,1.76,4,5.07,4C415.73,141.61,417.49,140.07,419.46,137.87Z"/><path class="cls-11" d="M467.42,148.87H467l-1.54,5.94H450.7V78.25h18.92V96.07l-.44,7.92a20.26,20.26,0,0,1,13.53-5.5c13,0,21.46,11,21.46,27.83,0,19-11.23,29.81-22.88,29.81C476.44,156.13,471.6,153.71,467.42,148.87Zm17.38-22.22c0-9-2.63-12.76-7.7-12.76-2.85,0-5.06,1.1-7.48,4v20.24a10.12,10.12,0,0,0,7.05,2.64C481.06,140.73,484.8,137.21,484.8,126.65Z"/><path class="cls-11" d="M513.18,174.39l3.3-14.3a18.12,18.12,0,0,0,3.52.66c5.06,0,7.48-2.2,8.58-5.5l.66-2.42-20.9-53h18.92l6.6,21.12c1.54,5.06,2.64,10.12,4,15.62h.44c1.1-5.28,2.2-10.34,3.52-15.62l5.5-21.12h18l-18.48,54.12c-5.72,14.85-11.66,21.56-25.3,21.56A28.49,28.49,0,0,1,513.18,174.39Z"/><path class="cls-11" d="M569.06,127.31c0-18.26,13.86-28.82,29.48-28.82a24.19,24.19,0,0,1,16.06,5.72l-8.8,12.1c-2.42-2-4.18-2.64-6.16-2.64-7,0-11.22,5.28-11.22,13.64S593,141,599,141c3.08,0,6.16-1.54,8.8-3.52L615,149.75c-5.5,4.84-12.54,6.38-18.26,6.38C581.16,156.13,569.06,145.57,569.06,127.31Z"/><path class="cls-11" d="M620.54,139.19c0-11.44,8.8-17.82,29.92-20-.44-4-2.86-5.72-7.7-5.72-4,0-8.14,1.54-13.86,4.62l-6.6-12.32c7.7-4.62,15.62-7.26,24.2-7.26,14.3,0,22.88,7.7,22.88,25.74v30.58H654l-1.32-5.28h-.44c-4.4,4-9.24,6.6-15.18,6.6C626.7,156.13,620.54,148.21,620.54,139.19Zm29.92-1.32v-7.48c-9,1.32-11.88,4.18-11.88,7.26,0,2.53,1.76,4,5.06,4C646.72,141.61,648.48,140.07,650.46,137.87Z"/><path class="cls-11" d="M681.92,133.69V114.55h-7.26V100.47l8.36-.66,2.2-14.3h15.62v14.3h12.54v14.74H700.84v18.81c0,6,3.08,8,6.6,8a15.82,15.82,0,0,0,4.84-.88l2.86,13.64a41.54,41.54,0,0,1-13,2C687.86,156.13,681.92,147.11,681.92,133.69Z"/><path class="cls-11" d="M721.52,144.69c0-6.38,4.62-11.44,11-11.44s11,5.06,11,11.44-4.62,11.44-11,11.44S721.52,151.07,721.52,144.69Z"/><path class="cls-11" d="M755.4,83.53c0-5.5,4.4-9.46,10.56-9.46s10.56,4,10.56,9.46S772.12,93,766,93,755.4,89,755.4,83.53Zm1.1,16.28h18.92v55H756.5Z"/><path class="cls-11" d="M785.32,127.31c0-18.26,13.2-28.82,27.28-28.82s27.28,10.56,27.28,28.82-13.2,28.82-27.28,28.82S785.32,145.57,785.32,127.31Zm35.2,0c0-8.36-2.2-13.64-7.92-13.64s-7.92,5.28-7.92,13.64S806.88,141,812.6,141,820.52,135.67,820.52,127.31Z"/><path class="cls-11" d="M374.43,198.22h3.77l8.88,26.24h-3.54L379,209.8c-.94-2.93-1.78-5.81-2.62-8.84h-.16c-.82,3-1.66,5.91-2.6,8.84L369,224.46h-3.4Zm-4.21,15.58h12.09v2.67H370.22Z"/><path class="cls-11" d="M390,217.34V205h3.29v11.9c0,3.62,1.09,5.17,3.66,5.17,2,0,3.37-1,5.21-3.28V205h3.29v19.44h-2.72l-.28-3h-.11c-1.8,2.12-3.74,3.52-6.41,3.52C391.83,224.94,390,222.3,390,217.34Z"/><path class="cls-11" d="M410.62,214.77c0-6.31,4-10.23,8.41-10.23a7.93,7.93,0,0,1,5.45,2.26l-.14-3.34V196h3.29v28.49h-2.72l-.27-2.29h-.11a8.64,8.64,0,0,1-5.9,2.77C413.77,224.94,410.62,221.25,410.62,214.77Zm13.72,4.75V209.33a6.87,6.87,0,0,0-4.74-2c-3.11,0-5.58,3-5.58,7.43,0,4.66,1.93,7.44,5.34,7.44C421.15,222.18,422.71,221.3,424.34,219.52Z"/><path class="cls-11" d="M433.6,198.9a2.28,2.28,0,0,1,4.55,0,2.28,2.28,0,0,1-4.55,0Zm.61,6.12h3.29v19.44h-3.29Z"/><path class="cls-11" d="M442.6,214.77c0-6.49,4.24-10.23,9-10.23s9,3.74,9,10.23-4.24,10.17-9,10.17S442.6,221.21,442.6,214.77Zm14.62,0c0-4.46-2.27-7.49-5.61-7.49s-5.61,3-5.61,7.49,2.27,7.44,5.61,7.44S457.22,219.22,457.22,214.77Z"/><path class="cls-11" d="M472.36,219.42c0-4.24,3.66-6.35,11.94-7.26,0-2.5-.84-4.91-4-4.91a10.7,10.7,0,0,0-5.8,2.09l-1.29-2.26a14.32,14.32,0,0,1,7.64-2.54c4.74,0,6.75,3.16,6.75,8v11.92h-2.72l-.27-2.32h-.11a10.35,10.35,0,0,1-6.43,2.8C474.8,224.94,472.36,222.92,472.36,219.42Zm11.94.3v-5.4c-6.51.79-8.72,2.38-8.72,4.87,0,2.21,1.5,3.1,3.41,3.1S482.42,221.38,484.3,219.72Z"/><path class="cls-11" d="M493.73,205h2.71l.28,2.81h.11c1.85-1.83,3.85-3.29,6.52-3.29,4.1,0,5.94,2.65,5.94,7.61v12.31H506V212.57c0-3.62-1.1-5.17-3.67-5.17-2,0-3.37,1-5.32,3v14.07h-3.28Z"/><path class="cls-11" d="M514.4,219.42c0-4.24,3.66-6.35,11.94-7.26,0-2.5-.84-4.91-4-4.91a10.7,10.7,0,0,0-5.8,2.09l-1.29-2.26a14.32,14.32,0,0,1,7.64-2.54c4.74,0,6.75,3.16,6.75,8v11.92h-2.72l-.28-2.32h-.1a10.35,10.35,0,0,1-6.43,2.8C516.84,224.94,514.4,222.92,514.4,219.42Zm11.94.3v-5.4c-6.51.79-8.72,2.38-8.72,4.87,0,2.21,1.5,3.1,3.41,3.1S524.46,221.38,526.34,219.72Z"/><path class="cls-11" d="M535.77,220.56V196h3.28V220.8c0,1,.44,1.41.92,1.41a2.83,2.83,0,0,0,.72-.08l.45,2.51a5.27,5.27,0,0,1-1.89.3C536.78,224.94,535.77,223.37,535.77,220.56Z"/><path class="cls-11" d="M544,232.44l.65-2.62a5.05,5.05,0,0,0,1.48.29c2.19,0,3.58-1.76,4.38-4.17l.44-1.44L543.16,205h3.39l4,10.77c.61,1.68,1.27,3.68,1.9,5.47h.16c.55-1.76,1.1-3.76,1.63-5.47L557.68,205h3.22l-7.33,21c-1.37,3.85-3.38,6.77-7.28,6.77A6.33,6.33,0,0,1,544,232.44Z"/><path class="cls-11" d="M562.49,222.25l1.62-2.17a8.78,8.78,0,0,0,5.74,2.3c2.55,0,3.82-1.36,3.82-3,0-2-2.29-2.88-4.45-3.68-2.72-1-5.79-2.34-5.79-5.62,0-3.11,2.49-5.52,6.7-5.52a9.9,9.9,0,0,1,6,2.19l-1.58,2.11a7.28,7.28,0,0,0-4.43-1.73c-2.45,0-3.58,1.3-3.58,2.78,0,1.85,2.12,2.56,4.32,3.38,2.8,1,5.92,2.19,5.92,5.9,0,3.15-2.5,5.77-7.09,5.77A11.72,11.72,0,0,1,562.49,222.25Z"/><path class="cls-11" d="M580.8,198.9a2.28,2.28,0,0,1,4.55,0,2.28,2.28,0,0,1-4.55,0Zm.6,6.12h3.29v19.44H581.4Z"/><path class="cls-11" d="M589.09,222.25l1.62-2.17a8.78,8.78,0,0,0,5.74,2.3c2.55,0,3.82-1.36,3.82-3,0-2-2.29-2.88-4.45-3.68-2.72-1-5.79-2.34-5.79-5.62,0-3.11,2.49-5.52,6.7-5.52a9.9,9.9,0,0,1,6,2.19l-1.58,2.11a7.31,7.31,0,0,0-4.43-1.73c-2.45,0-3.58,1.3-3.58,2.78,0,1.85,2.11,2.56,4.32,3.38,2.8,1,5.92,2.19,5.92,5.9,0,3.15-2.5,5.77-7.09,5.77A11.72,11.72,0,0,1,589.09,222.25Z"/><path class="cls-11" d="M616,205h2.72l.28,2.82h.11c1.7-1.84,3.73-3.3,6-3.3a5.15,5.15,0,0,1,5.37,3.71c2-2.19,4-3.71,6.41-3.71,4,0,5.91,2.65,5.91,7.61v12.31h-3.29V212.57c0-3.62-1.14-5.17-3.62-5.17-1.5,0-3.07,1-4.87,3v14.07h-3.29V212.57c0-3.62-1.14-5.17-3.61-5.17-1.46,0-3.08,1-4.88,3v14.07H616Z"/><path class="cls-11" d="M648,219.42c0-4.24,3.65-6.35,11.94-7.26,0-2.5-.84-4.91-4-4.91a10.7,10.7,0,0,0-5.8,2.09l-1.29-2.26a14.32,14.32,0,0,1,7.64-2.54c4.74,0,6.75,3.16,6.75,8v11.92h-2.72l-.28-2.32h-.11a10.31,10.31,0,0,1-6.43,2.8C650.4,224.94,648,222.92,648,219.42Zm11.94.3v-5.4c-6.52.79-8.72,2.38-8.72,4.87,0,2.21,1.5,3.1,3.41,3.1S658,221.38,659.9,219.72Z"/><path class="cls-11" d="M667.94,214.77c0-6.31,4-10.23,8.41-10.23a8,8,0,0,1,5.45,2.26l-.14-3.34V196H685v28.49h-2.72l-.28-2.29h-.11a8.6,8.6,0,0,1-5.9,2.77C671.09,224.94,667.94,221.25,667.94,214.77Zm13.72,4.75V209.33a6.89,6.89,0,0,0-4.74-2c-3.11,0-5.58,3-5.58,7.43,0,4.66,1.93,7.44,5.33,7.44C678.47,222.18,680,221.3,681.66,219.52Z"/><path class="cls-11" d="M690.08,214.77c0-6.33,4.26-10.23,8.74-10.23,5,0,7.76,3.57,7.76,9.13a10,10,0,0,1-.16,1.87H693.33c.24,4.11,2.75,6.78,6.46,6.78a8.5,8.5,0,0,0,4.84-1.55l1.18,2.16a11.49,11.49,0,0,1-6.42,2C694.2,224.94,690.08,221.16,690.08,214.77Zm13.59-1.59c0-3.9-1.75-6-4.79-6-2.74,0-5.18,2.19-5.58,6Z"/><path class="cls-11" d="M717.92,214.77c0-6.33,4.26-10.23,8.74-10.23,5,0,7.76,3.57,7.76,9.13a10,10,0,0,1-.16,1.87H721.17c.24,4.11,2.75,6.78,6.46,6.78a8.53,8.53,0,0,0,4.84-1.55l1.17,2.16a11.43,11.43,0,0,1-6.41,2C722,224.94,717.92,221.16,717.92,214.77Zm13.59-1.59c0-3.9-1.75-6-4.79-6-2.74,0-5.18,2.19-5.58,6Z"/><path class="cls-11" d="M737.44,219.42c0-4.24,3.65-6.35,11.94-7.26,0-2.5-.84-4.91-4-4.91a10.7,10.7,0,0,0-5.8,2.09l-1.29-2.26a14.32,14.32,0,0,1,7.64-2.54c4.74,0,6.75,3.16,6.75,8v11.92H750l-.28-2.32h-.11a10.31,10.31,0,0,1-6.43,2.8C739.88,224.94,737.44,222.92,737.44,219.42Zm11.94.3v-5.4c-6.52.79-8.72,2.38-8.72,4.87,0,2.21,1.5,3.1,3.41,3.1S747.5,221.38,749.38,219.72Z"/><path class="cls-11" d="M756.65,222.25l1.62-2.17a8.75,8.75,0,0,0,5.74,2.3c2.55,0,3.82-1.36,3.82-3,0-2-2.3-2.88-4.45-3.68-2.72-1-5.8-2.34-5.8-5.62,0-3.11,2.5-5.52,6.71-5.52a9.85,9.85,0,0,1,6,2.19l-1.57,2.11a7.31,7.31,0,0,0-4.43-1.73c-2.45,0-3.58,1.3-3.58,2.78,0,1.85,2.11,2.56,4.31,3.38,2.81,1,5.93,2.19,5.93,5.9,0,3.15-2.5,5.77-7.09,5.77A11.69,11.69,0,0,1,756.65,222.25Z"/><path class="cls-11" d="M773.61,232.44l.64-2.62a5.19,5.19,0,0,0,1.49.29c2.19,0,3.58-1.76,4.38-4.17l.44-1.44L772.76,205h3.39l4,10.77c.61,1.68,1.26,3.68,1.89,5.47h.16c.55-1.76,1.11-3.76,1.64-5.47L787.27,205h3.23l-7.33,21c-1.37,3.85-3.38,6.77-7.28,6.77A6.33,6.33,0,0,1,773.61,232.44Z"/><path class="cls-11" d="M792.16,222.45a2.39,2.39,0,1,1,2.38,2.49A2.41,2.41,0,0,1,792.16,222.45Z"/></g></svg>