<svg xmlns="http://www.w3.org/2000/svg" viewBox="0 0 900 300"><defs><style>.cls-1{fill:#303335;}.cls-2{fill:#45b2ff;}.cls-11,.cls-3{fill:#fff;}.cls-4{fill:#ccc;}.cls-5{fill:#4d4d4d;}.cls-6{fill:#a0afba;}.cls-7{fill:#697c8a;}.cls-8{fill:#b3b3b3;}.cls-9{fill:gray;}.cls-10,.cls-11{fill-rule:evenodd;}.cls-11{stroke:#000;stroke-miterlimit:22.93;stroke-width:0.57px;}.cls-12{fill:#ededec;}</style></defs><g id="Layer_1" data-name="Layer 1"><rect class="cls-1" width="900" height="300"/><path class="cls-2" d="M262.52,134.56c-3.16-6.3-7.4-10.19-12-10.19s-8.82,3.89-12,10.19c-3.33,6.66-5.4,15.9-5.4,26.15s2.07,19.49,5.4,26.14c3.16,6.3,7.41,10.2,12,10.2s8.81-3.9,12-10.2c3.34-6.65,5.4-15.89,5.4-26.14s-2.06-19.49-5.4-26.15Z"/><path class="cls-2" d="M67.48,113.65l-.11,0c-2.1-.25-4.36,2.21-6.53,6.29a65.68,65.68,0,0,0-4.75,12.38A129.88,129.88,0,0,0,52.66,148c-2.87,18.33-2.49,37.49,4.2,39.81l.26.11h.08a6.12,6.12,0,0,0,1-1.27,29.31,29.31,0,0,0,3-6.32,144.23,144.23,0,0,0,6.19-25.78,173.81,173.81,0,0,0,2.33-28.24c-.1-6.93-.78-11.66-2-12.66l-.27,0Z"/><path class="cls-3" d="M221.11,130a34.58,34.58,0,0,1,5.17-6.3A162.26,162.26,0,0,0,224,100.56c-.92-4.86-2.07-8.71-3.43-9.43a.7.7,0,0,0-.24-.06c-1.83-.1-5.17,2.48-8.61,6a58.75,58.75,0,0,0-9.3,12.39,17.15,17.15,0,0,0-1.54,3.68A97.31,97.31,0,0,1,213,121.94a75.08,75.08,0,0,1,8.1,8Z"/><path class="cls-4" d="M221.11,130a36.09,36.09,0,0,1,3.12-4.16c-5.07-5.2-10.88-10.93-10.59-17,.43-9.08,9.23-13.23,9.23-13.23-.68-2.36-1.44-4-2.28-4.46a.7.7,0,0,0-.24-.06c-1.83-.1-5.17,2.48-8.61,6a58.75,58.75,0,0,0-9.3,12.39,17.15,17.15,0,0,0-1.54,3.68A97.31,97.31,0,0,1,213,121.94a75.08,75.08,0,0,1,8.1,8Z"/><path class="cls-5" d="M247.83,200.14c-4.85-1.17-9.13-5.45-12.3-11.77-3.57-7.11-5.78-16.9-5.78-27.66S232,140.16,235.53,133c2.92-5.82,6.78-9.91,11.17-11.43l-.34-.12a15.72,15.72,0,0,0-11.62.52,1.74,1.74,0,0,1-.91.42,26.58,26.58,0,0,0-10.09,9.75c-4.67,7.38-7.56,17.6-7.56,28.92s2.89,21.55,7.56,28.92c4.53,7.15,10.71,11.57,17.47,11.57a16.07,16.07,0,0,0,5.89-1.14l.73-.31Z"/><path class="cls-3" d="M261.07,146c-1.17-3.22-2.6-5.22-4-5.22s-2.81,2-4,5.22a44.71,44.71,0,0,0-2.21,14.76,44.71,44.71,0,0,0,2.21,14.76c1.18,3.22,2.6,5.22,4,5.22s2.82-2,4-5.22a44.71,44.71,0,0,0,2.21-14.76A44.71,44.71,0,0,0,261.07,146Z"/><path class="cls-3" d="M90.5,122l0,.11a55,55,0,0,1,7.4-6.38,64.93,64.93,0,0,1,10.87-6.29c-1.35-4.2-5.43-16.24-8.29-16.82-1,0-2.85,4-4.71,9.11A122.76,122.76,0,0,0,91,119.1c-.21,1.12-.37,2.11-.46,2.89Z"/><path class="cls-4" d="M90.5,122l0,.11a55,55,0,0,1,7.4-6.38,64.93,64.93,0,0,1,10.87-6.29c-1.35-4.2-5.43-16.24-8.29-16.82C99.91,92.58,99,94,98,96.18c1.32,2.41,3.86,8.24.81,13.18-2.38,3.87-5.43,6.88-8,10.26-.16.91-.29,1.71-.36,2.37Z"/><path class="cls-3" d="M62.29,130A12.82,12.82,0,0,0,61,132.17a39.21,39.21,0,0,0-2.31,6.44c-.72,2.6-1.38,5.55-1.92,8.62-1.73,9.83-2.48,20.49-.72,23a19.67,19.67,0,0,0,1-2.58,106.4,106.4,0,0,0,3.58-15.94,132.55,132.55,0,0,0,1.62-15.86,49.25,49.25,0,0,0,0-5.84Z"/><path class="cls-6" d="M210.68,82a1.18,1.18,0,0,1-.28.22c-.7.52-1.41,1.08-2.12,1.68a94,94,0,0,0-18.75,22,1.7,1.7,0,0,1-2.16.68,80.59,80.59,0,0,0-31.07-7.45,81.76,81.76,0,0,0-31.09,5.4,1.7,1.7,0,0,1-2.17-1c-.42-1-10.86-25.64-21.47-23.17-2.55.59-5,4.38-7.14,9.65-3,7.15-5.23,16.88-6.75,25.47.14.19.28.38.41.59a130.76,130.76,0,0,1,4.49-15.58C95,94,97.92,88.91,100.87,89.22l.24,0c5.52,1,11.36,20.57,11.38,20.63a1.7,1.7,0,0,1-1,2.07,61.58,61.58,0,0,0-11.59,6.54,49.71,49.71,0,0,0-8.59,7.79c.18,1.34.32,2.75.41,4.22A125.08,125.08,0,0,1,90,157.12a117.31,117.31,0,0,1-6.66,25c-2.91,7-6.46,11.56-10.36,11.81h-.09a51,51,0,0,1-2.39,5.3,45.37,45.37,0,0,1-3,5A15.44,15.44,0,0,0,72,208.38a28.34,28.34,0,0,0,7,2.87,1.71,1.71,0,0,1,.3,3.17,33.22,33.22,0,0,1-6.28,3.1,22.89,22.89,0,0,1-3.12.9c7.95,8.2,19.1,15.17,30.91,20.42,14.61,6.48,30.18,10.31,42,10.52,12.68.22,31-2.53,50.07-7.82A222.69,222.69,0,0,0,237.62,224c-2.32-1.09-3.86-2.9-6.06-5.49l-.41-.47a1.7,1.7,0,0,1,1.59-2.78,20.43,20.43,0,0,0,6.94.14,14.25,14.25,0,0,0,4.75-1.8c-.6-1.44-1.15-2.86-1.65-4.28s-1-2.89-1.43-4.34h-.14c-8,0-15.2-5-20.35-13.16-5-7.89-8.1-18.77-8.1-30.75,0-10.65,2.45-20.43,6.51-28a70.92,70.92,0,0,0-8.47-8.55,94.81,94.81,0,0,0-12.63-9.06,1.71,1.71,0,0,1-.82-1.55h0a15.89,15.89,0,0,1,2.08-6,62.51,62.51,0,0,1,9.88-13.17c4.06-4.17,8.33-7.2,11.24-7a3.88,3.88,0,0,1,1.63.44c2.45,1.3,4.1,6,5.2,11.82a163.21,163.21,0,0,1,2.23,21,23.3,23.3,0,0,1,2.27-1.38,131.54,131.54,0,0,0-3.55-27.7c-1.89-7.53-4.23-12.9-6.51-13.84-2.63-1.09-6.68.69-11.13,4Z"/><path class="cls-7" d="M74.67,216.86q-.84.36-1.68.66a22.89,22.89,0,0,1-3.12.9c7.95,8.2,19.1,15.17,30.91,20.42,14.61,6.48,30.18,10.31,42,10.52,12.68.22,31-2.53,50.07-7.82A222.69,222.69,0,0,0,237.62,224c-2.32-1.09-3.86-2.9-6.06-5.49l-.41-.47a1.7,1.7,0,0,1,1.59-2.78,20.43,20.43,0,0,0,6.94.14,14.25,14.25,0,0,0,4.75-1.8c-.6-1.44-1.15-2.86-1.65-4.28s-1-2.89-1.43-4.34h-.14c-7.33,0-14-4.21-19-11.15-.11,13-2,19-2,19-48.68,34.57-96,41-145.59,4Zm140-71.63a52.84,52.84,0,0,1,4.6-12.15,70.92,70.92,0,0,0-8.47-8.55,94.81,94.81,0,0,0-12.63-9.06l-.2-.14a115.44,115.44,0,0,1,16.7,29.9Z"/><path class="cls-3" d="M143.7,190.54c21.94.53,39.72,16.36,39.72,29s-17.78,17.26-39.72,16.72-39.72-6-39.72-18.65S121.77,190,143.7,190.54Z"/><path class="cls-8" d="M111.78,80.68a71.32,71.32,0,0,1,23.1-10.54,126.2,126.2,0,0,1,31.34-4h.13a119.25,119.25,0,0,1,25.77,4.34,57.32,57.32,0,0,1,17.44,8.16c5.07-3.52,9.91-5.27,13.55-3.77,3.36,1.4,6.37,7.64,8.52,16.17a133.5,133.5,0,0,1,3.6,27.09,19.06,19.06,0,0,1,12.24.1,20.14,20.14,0,0,1,2.21.91l-.11-.57c-3.27-15.57-13.11-62.53-81.09-68-79.93-.47-94.69,47.92-97.4,59.64a45.21,45.21,0,0,1,5.08.45A34.32,34.32,0,0,1,84.57,113l.09,0c1.55-8.28,3.78-17.38,6.62-24.28C93.85,82.53,97,78,100.79,77.1s7.63.75,11,3.58Z"/><path class="cls-9" d="M111.78,80.68a71.32,71.32,0,0,1,23.1-10.54,126.2,126.2,0,0,1,31.34-4h.13a119.25,119.25,0,0,1,25.77,4.34,57.32,57.32,0,0,1,17.44,8.16,23.4,23.4,0,0,1,9-4.17c-11.31-9.07-27.39-16.18-50.44-18.1-68-.41-86.84,37.5-92.08,54.32h.08A34.32,34.32,0,0,1,84.57,113l.09,0c1.55-8.28,3.78-17.38,6.62-24.28C93.85,82.53,97,78,100.79,77.1s7.63.75,11,3.58Zm118.56,5.86c.46,1.42.89,2.94,1.29,4.53a133.5,133.5,0,0,1,3.6,27.09,19.19,19.19,0,0,1,6-1,18.78,18.78,0,0,1,3.28.29c-2-8.39-5.85-20-14.15-30.95Z"/><path class="cls-5" d="M87.24,122.78a1.46,1.46,0,0,1-.16-.62,12.39,12.39,0,0,0-2.25-4.81,1.85,1.85,0,0,1-.36-.38,4,4,0,0,0-1.21-.81,31.54,31.54,0,0,0-7.59-2.06,42,42,0,0,0-4.2-.39c1.06,2.79,1.63,7.18,1.7,12.61a177.36,177.36,0,0,1-2.37,28.8,145.92,145.92,0,0,1-6.35,26.43,32.25,32.25,0,0,1-3.43,7.1l-.44.6A25.14,25.14,0,0,0,65,190.3a37,37,0,0,0,7.75.24c2.41-.15,5-3.95,7.41-9.71a114.12,114.12,0,0,0,6.45-24.25,121.44,121.44,0,0,0,1.69-25.88c-.1-1.59-.24-3.1-.44-4.5a1.34,1.34,0,0,1-.06-.4c-.16-1.08-.36-2.09-.58-3Z"/><path d="M87.24,122.78a1.46,1.46,0,0,1-.16-.62,12.39,12.39,0,0,0-2.25-4.81,1.85,1.85,0,0,1-.36-.38,4,4,0,0,0-1.21-.81,31.54,31.54,0,0,0-7.59-2.06,42,42,0,0,0-4.2-.39c1.06,2.79,1.63,7.18,1.7,12.61a177.36,177.36,0,0,1-2.37,28.8,145.92,145.92,0,0,1-6.35,26.43,32.25,32.25,0,0,1-3.43,7.1l-.44.6A25.14,25.14,0,0,0,65,190.3a37,37,0,0,0,7.75.24c2.41-.15,5-3.95,7.41-9.71a114.12,114.12,0,0,0,6.45-24.25,121.44,121.44,0,0,0,1.69-25.88c-.1-1.59-.24-3.1-.44-4.5a1.34,1.34,0,0,1-.06-.4c-.16-1.08-.36-2.09-.58-3Zm24.54-42.1a71.32,71.32,0,0,1,23.1-10.54,126.2,126.2,0,0,1,31.34-4h.13a119.25,119.25,0,0,1,25.77,4.34,57.32,57.32,0,0,1,17.44,8.16c5.07-3.52,9.91-5.27,13.55-3.77,3.36,1.4,6.37,7.64,8.52,16.17a133.5,133.5,0,0,1,3.6,27.09,19.06,19.06,0,0,1,12.24.1,20.14,20.14,0,0,1,2.21.91l-.11-.57c-3.27-15.57-13.11-62.53-81.09-68-79.93-.47-94.69,47.92-97.4,59.64a45.21,45.21,0,0,1,5.08.45A34.32,34.32,0,0,1,84.57,113l.09,0c1.55-8.28,3.78-17.38,6.62-24.28C93.85,82.53,97,78,100.79,77.1s7.63.75,11,3.58ZM210.68,82a1.18,1.18,0,0,1-.28.22c-.7.52-1.41,1.08-2.12,1.68a94,94,0,0,0-18.75,22,1.7,1.7,0,0,1-2.16.68,80.59,80.59,0,0,0-31.07-7.45,81.76,81.76,0,0,0-31.09,5.4,1.7,1.7,0,0,1-2.17-1c-.42-1-10.86-25.64-21.47-23.17-2.55.59-5,4.38-7.14,9.65-3,7.15-5.23,16.88-6.75,25.47.14.19.28.38.41.59a130.76,130.76,0,0,1,4.49-15.58C95,94,97.92,88.91,100.87,89.22l.24,0c5.52,1,11.36,20.57,11.38,20.63a1.7,1.7,0,0,1-1,2.07,61.58,61.58,0,0,0-11.59,6.54,49.71,49.71,0,0,0-8.59,7.79c.18,1.34.32,2.75.41,4.22A125.08,125.08,0,0,1,90,157.12a117.31,117.31,0,0,1-6.66,25c-2.91,7-6.46,11.56-10.36,11.81h-.09a51,51,0,0,1-2.39,5.3,45.37,45.37,0,0,1-3,5A15.44,15.44,0,0,0,72,208.38a28.34,28.34,0,0,0,7,2.87,1.71,1.71,0,0,1,.3,3.17,33.22,33.22,0,0,1-6.28,3.1,22.89,22.89,0,0,1-3.12.9c7.95,8.2,19.1,15.17,30.91,20.42,14.61,6.48,30.18,10.31,42,10.52,12.68.22,31-2.53,50.07-7.82A222.69,222.69,0,0,0,237.62,224c-2.32-1.09-3.86-2.9-6.06-5.49l-.41-.47a1.7,1.7,0,0,1,1.59-2.78,20.43,20.43,0,0,0,6.94.14,14.25,14.25,0,0,0,4.75-1.8c-.6-1.44-1.15-2.86-1.65-4.28s-1-2.89-1.43-4.34h-.14c-8,0-15.2-5-20.35-13.16-5-7.89-8.1-18.77-8.1-30.75,0-10.65,2.45-20.43,6.51-28a70.92,70.92,0,0,0-8.47-8.55,94.81,94.81,0,0,0-12.63-9.06,1.71,1.71,0,0,1-.82-1.55h0a15.89,15.89,0,0,1,2.08-6,62.51,62.51,0,0,1,9.88-13.17c4.06-4.17,8.33-7.2,11.24-7a3.88,3.88,0,0,1,1.63.44c2.45,1.3,4.1,6,5.2,11.82a163.21,163.21,0,0,1,2.23,21,23.3,23.3,0,0,1,2.27-1.38,131.54,131.54,0,0,0-3.55-27.7c-1.89-7.53-4.23-12.9-6.51-13.84-2.63-1.09-6.68.69-11.13,4Zm-4-1.21a55.7,55.7,0,0,0-15.56-7,115.44,115.44,0,0,0-25-4.2,122.15,122.15,0,0,0-30.39,3.86,68.34,68.34,0,0,0-21.47,9.64c5.54,5.91,9.7,14.36,11.24,17.74a84.52,84.52,0,0,1,30.86-5.06,83.26,83.26,0,0,1,31,7.14,98.41,98.41,0,0,1,18.7-21.58l.6-.49ZM67.59,110.22c2.39-10.83,16.65-63.53,101-63h.13c70.52,5.63,80.76,54.48,84.15,70.68.32,1.49.57,2.69.78,3.48,4.68,1.31,8.81,5.52,11.89,11.65,3.56,7.12,5.77,16.9,5.77,27.67s-2.21,20.55-5.77,27.67c-2.8,5.58-6.47,9.57-10.64,11.23h0a23.93,23.93,0,0,1-6.58,4,20.2,20.2,0,0,1-3.52,1q.54,1.77,1.17,3.54,1,2.72,2.14,5.39a1.7,1.7,0,0,1-.59,2.09,18.23,18.23,0,0,1-7.26,3.1,20,20,0,0,1-3.67.29,8.58,8.58,0,0,0,5.65,2.66,1.71,1.71,0,0,1,.79,3.19c-14.7,8.44-32.29,15.17-49.33,19.9-19.36,5.38-38.05,8.17-51,7.94-12.2-.21-28.26-4.15-43.27-10.81-13.35-5.93-25.91-14-34.27-23.64a1.67,1.67,0,0,1-.44-1.07,1.7,1.7,0,0,1,1.63-1.77,19,19,0,0,0,5.52-1.15,25.43,25.43,0,0,0,2.46-1,25.87,25.87,0,0,1-4.06-2,18.32,18.32,0,0,1-6.32-6.19,1.71,1.71,0,0,1,.08-1.9,41.62,41.62,0,0,0,3.46-5.53c.62-1.18,1.19-2.4,1.7-3.63a37.69,37.69,0,0,1-4.64-.36,28,28,0,0,1-7.86-2.32,2.51,2.51,0,0,1-.44-.1,3,3,0,0,1-.68-.27c-8.32-3.2-9.32-23.88-6.25-43.47a134,134,0,0,1,3.51-16.15,69.53,69.53,0,0,1,5-13.05c2.83-5.32,6.14-8.46,9.77-8.1ZM62.29,130A12.82,12.82,0,0,0,61,132.17a39.21,39.21,0,0,0-2.31,6.44c-.72,2.6-1.38,5.55-1.92,8.62-1.73,9.83-2.48,20.49-.72,23a19.67,19.67,0,0,0,1-2.58,106.4,106.4,0,0,0,3.58-15.94,132.55,132.55,0,0,0,1.62-15.86,49.25,49.25,0,0,0,0-5.84Zm-4.31.68c1.55-3.13,3.43-4.76,5.57-4.07a1.65,1.65,0,0,1,.41.18c1.33.8,1.91,4.24,1.77,9.15a136.25,136.25,0,0,1-1.67,16.28,109.16,109.16,0,0,1-3.71,16.51,19.64,19.64,0,0,1-1.5,3.53C58,173.68,57,174.31,55.78,174a2.27,2.27,0,0,1-.5-.2c-4-2-3.94-15.24-1.84-27.13.55-3.13,1.23-6.2,2-9a42.36,42.36,0,0,1,2.55-7Zm9.5-17-.11,0c-2.1-.25-4.36,2.21-6.53,6.29a65.68,65.68,0,0,0-4.75,12.38A129.88,129.88,0,0,0,52.66,148c-2.87,18.33-2.49,37.49,4.2,39.81l.26.11h.08a6.12,6.12,0,0,0,1-1.27,29.31,29.31,0,0,0,3-6.32,144.23,144.23,0,0,0,6.19-25.78,173.81,173.81,0,0,0,2.33-28.24c-.1-6.93-.78-11.66-2-12.66l-.27,0Zm23,8.34,0,.11a55,55,0,0,1,7.4-6.38,64.93,64.93,0,0,1,10.87-6.29c-1.35-4.2-5.43-16.24-8.29-16.82-1,0-2.85,4-4.71,9.11A122.76,122.76,0,0,0,91,119.1c-.21,1.12-.37,2.11-.46,2.89Zm166.58,15.32c3,0,5.51,2.86,7.2,7.48a48.17,48.17,0,0,1,2.42,15.92,48.17,48.17,0,0,1-2.42,15.92c-1.69,4.62-4.22,7.48-7.2,7.48s-5.51-2.86-7.19-7.48a53.36,53.36,0,0,1,0-31.84c1.68-4.62,4.21-7.48,7.19-7.48Zm4,8.64c-1.17-3.22-2.6-5.22-4-5.22s-2.81,2-4,5.22a44.71,44.71,0,0,0-2.21,14.76,44.71,44.71,0,0,0,2.21,14.76c1.18,3.22,2.6,5.22,4,5.22s2.82-2,4-5.22a44.71,44.71,0,0,0,2.21-14.76A44.71,44.71,0,0,0,261.07,146Zm-13.24,54.19c-4.85-1.17-9.13-5.45-12.3-11.77-3.57-7.11-5.78-16.9-5.78-27.66S232,140.16,235.53,133c2.92-5.82,6.78-9.91,11.17-11.43l-.34-.12a15.72,15.72,0,0,0-11.62.52,1.74,1.74,0,0,1-.91.42,26.58,26.58,0,0,0-10.09,9.75c-4.67,7.38-7.56,17.6-7.56,28.92s2.89,21.55,7.56,28.92c4.53,7.15,10.71,11.57,17.47,11.57a16.07,16.07,0,0,0,5.89-1.14l.73-.31Zm14.69-65.58c-3.16-6.3-7.4-10.19-12-10.19s-8.82,3.89-12,10.19c-3.33,6.66-5.4,15.9-5.4,26.15s2.07,19.49,5.4,26.14c3.16,6.3,7.41,10.2,12,10.2s8.81-3.9,12-10.2c3.34-6.65,5.4-15.89,5.4-26.14s-2.06-19.49-5.4-26.15ZM221.11,130a34.58,34.58,0,0,1,5.17-6.3A162.26,162.26,0,0,0,224,100.56c-.92-4.86-2.07-8.71-3.43-9.43a.7.7,0,0,0-.24-.06c-1.83-.1-5.17,2.48-8.61,6a58.75,58.75,0,0,0-9.3,12.39,17.15,17.15,0,0,0-1.54,3.68A97.31,97.31,0,0,1,213,121.94a75.08,75.08,0,0,1,8.1,8Z"/><path class="cls-10" d="M111.51,165.13c5.45,0,9.87,6.57,9.87,14.67s-4.42,14.67-9.87,14.67-9.88-6.57-9.88-14.67,4.42-14.67,9.88-14.67Zm90.28,61.06a1.14,1.14,0,0,0,1.46-1.75s-7.72-6.54-21.14-10.38a1.15,1.15,0,0,0-1.41.79,1.13,1.13,0,0,0,.79,1.4c12.95,3.7,20.28,9.92,20.3,9.94Zm2.5-10.75a1.13,1.13,0,0,0,1.47-.63,1.14,1.14,0,0,0-.64-1.48s-9.36-3.84-23.3-3.34a1.13,1.13,0,0,0-1.1,1.17,1.15,1.15,0,0,0,1.18,1.1c13.46-.48,22.36,3.17,22.39,3.18Zm.37-11.07a1.14,1.14,0,0,0,.22-2.26s-10.06-1.09-23.32,3.26a1.13,1.13,0,0,0-.73,1.43,1.15,1.15,0,0,0,1.44.73c12.8-4.2,22.36-3.16,22.39-3.16Zm-116,21.82a1.14,1.14,0,0,1-1.46-1.75s7.72-6.54,21.14-10.38a1.13,1.13,0,0,1,1.4.79,1.12,1.12,0,0,1-.78,1.4c-13,3.7-20.28,9.92-20.3,9.94Zm-2.5-10.75a1.13,1.13,0,1,1-.83-2.11s9.36-3.84,23.3-3.34a1.12,1.12,0,0,1,1.09,1.17,1.13,1.13,0,0,1-1.17,1.1c-13.46-.48-22.36,3.17-22.39,3.18Zm-.37-11.07a1.14,1.14,0,0,1-.22-2.26s10.06-1.09,23.32,3.26a1.14,1.14,0,1,1-.71,2.16c-12.8-4.2-22.36-3.16-22.39-3.16Zm55.56,4.68,0,6.91c2,1.39,8.35,5.08,12.71-2a1.7,1.7,0,0,1,2.9,1.79c-5.93,9.6-14.37,5.14-17.33,3.13-2.62,1.83-9.58,5.35-15.84-3.24a1.7,1.7,0,0,1,2.75-2c4.62,6.34,9.67,3.52,11.32,2.32l0-7.17c-2.21-1.64-5.81-4.78-6-8-.24-4.69,15.57-5,16.83-.47.93,3.34-4.55,7-7.44,8.73Zm36.05-42.21c5.45,0,9.87,6.57,9.87,14.67s-4.42,14.66-9.87,14.66-9.87-6.56-9.87-14.66,4.42-14.67,9.87-14.67Z"/><path class="cls-11" d="M180.1,171c1.6,0,2.89,2.2,2.89,4.91s-1.29,4.91-2.89,4.91-2.88-2.2-2.88-4.91,1.29-4.91,2.88-4.91Z"/><path class="cls-11" d="M114.21,171c1.59,0,2.88,2.2,2.88,4.91s-1.29,4.91-2.88,4.91-2.88-2.2-2.88-4.91,1.29-4.91,2.88-4.91Z"/><path class="cls-12" d="M355.76,173.87h-.44l-1.54,5.94H339V103.25H358v17.82l-.44,7.92a20.24,20.24,0,0,1,13.53-5.5c13,0,21.45,11,21.45,27.83,0,19-11.22,29.81-22.88,29.81C364.78,181.13,359.94,178.71,355.76,173.87Zm17.38-22.22c0-9-2.64-12.76-7.7-12.76-2.86,0-5.06,1.1-7.48,4v20.24a10.1,10.1,0,0,0,7,2.64C369.4,165.73,373.14,162.21,373.14,151.65Z"/><path class="cls-12" d="M399.54,164.19c0-11.44,8.8-17.82,29.92-20-.44-4-2.86-5.72-7.7-5.72-4,0-8.14,1.54-13.86,4.62l-6.6-12.32c7.7-4.62,15.62-7.26,24.2-7.26,14.3,0,22.88,7.7,22.88,25.74v30.58H433l-1.32-5.28h-.44c-4.4,4-9.24,6.6-15.18,6.6C405.7,181.13,399.54,173.21,399.54,164.19Zm29.92-1.32v-7.48c-9,1.32-11.88,4.18-11.88,7.26,0,2.53,1.76,4,5.06,4C425.72,166.61,427.48,165.07,429.46,162.87Z"/><path class="cls-12" d="M477.42,173.87H477l-1.54,5.94H460.7V103.25h18.92v17.82l-.44,7.92a20.24,20.24,0,0,1,13.53-5.5c13,0,21.45,11,21.45,27.83,0,19-11.22,29.81-22.88,29.81C486.44,181.13,481.6,178.71,477.42,173.87Zm17.38-22.22c0-9-2.64-12.76-7.7-12.76-2.86,0-5.06,1.1-7.48,4v20.24a10.1,10.1,0,0,0,7,2.64C491.06,165.73,494.8,162.21,494.8,151.65Z"/><path class="cls-12" d="M523.18,199.39l3.3-14.3a18.12,18.12,0,0,0,3.52.66c5.06,0,7.48-2.2,8.58-5.5l.66-2.42-20.9-53h18.92l6.6,21.12c1.54,5.06,2.64,10.12,4,15.62h.44c1.1-5.28,2.2-10.34,3.52-15.62l5.5-21.12h18l-18.48,54.12c-5.72,14.85-11.66,21.56-25.3,21.56A28.49,28.49,0,0,1,523.18,199.39Z"/><path class="cls-12" d="M579.06,152.31c0-18.26,13.86-28.82,29.48-28.82a24.19,24.19,0,0,1,16.06,5.72l-8.8,12.1c-2.42-2-4.18-2.64-6.16-2.64-7,0-11.22,5.28-11.22,13.64S603,166,609,166c3.08,0,6.16-1.54,8.8-3.52L625,174.75c-5.5,4.84-12.54,6.38-18.26,6.38C591.16,181.13,579.06,170.57,579.06,152.31Z"/><path class="cls-12" d="M630.53,164.19c0-11.44,8.8-17.82,29.93-20-.45-4-2.87-5.72-7.71-5.72-4,0-8.14,1.54-13.86,4.62l-6.6-12.32c7.7-4.62,15.63-7.26,24.21-7.26,14.29,0,22.88,7.7,22.88,25.74v30.58H664l-1.32-5.28h-.44c-4.4,4-9.24,6.6-15.18,6.6C636.69,181.13,630.53,173.21,630.53,164.19Zm29.93-1.32v-7.48c-9,1.32-11.89,4.18-11.89,7.26,0,2.53,1.76,4,5.06,4C656.71,166.61,658.47,165.07,660.46,162.87Z"/><path class="cls-12" d="M691.92,158.69V139.55h-7.26V125.47l8.36-.66,2.19-14.3h15.62v14.3h12.55v14.74H710.83v18.81c0,6,3.09,8,6.61,8a15.82,15.82,0,0,0,4.84-.88l2.86,13.64a41.54,41.54,0,0,1-13,2C697.86,181.13,691.92,172.11,691.92,158.69Z"/><path class="cls-12" d="M731.52,169.69c0-6.38,4.62-11.44,11-11.44s11,5.06,11,11.44-4.62,11.44-11,11.44S731.52,176.07,731.52,169.69Z"/><path class="cls-12" d="M765.4,108.53c0-5.5,4.39-9.46,10.56-9.46s10.56,4,10.56,9.46S782.12,118,776,118,765.4,114,765.4,108.53Zm1.1,16.28h18.92v55H766.5Z"/><path class="cls-12" d="M795.31,152.31c0-18.26,13.2-28.82,27.28-28.82s27.28,10.56,27.28,28.82-13.2,28.82-27.28,28.82S795.31,170.57,795.31,152.31Zm35.2,0c0-8.36-2.2-13.64-7.92-13.64s-7.92,5.28-7.92,13.64,2.2,13.64,7.92,13.64S830.51,160.67,830.51,152.31Z"/></g></svg>