<svg xmlns="http://www.w3.org/2000/svg" viewBox="0 0 1200 628"><defs><style>.cls-1{fill:#303335;}.cls-2{fill:#45b2ff;}.cls-11,.cls-3{fill:#fff;}.cls-4{fill:#ccc;}.cls-5{fill:#4d4d4d;}.cls-6{fill:#a0afba;}.cls-7{fill:#697c8a;}.cls-8{fill:#b3b3b3;}.cls-9{fill:gray;}.cls-10,.cls-11{fill-rule:evenodd;}.cls-11{stroke:#000;stroke-miterlimit:22.93;stroke-width:0.57px;}.cls-12{fill:#ededec;}</style></defs><g id="Layer_1" data-name="Layer 1"><rect class="cls-1" width="1200" height="628"/><path class="cls-2" d="M412.52,298.56c-3.16-6.3-7.4-10.19-12-10.19s-8.82,3.89-12,10.19c-3.33,6.66-5.4,15.9-5.4,26.15s2.07,19.49,5.4,26.14c3.16,6.3,7.41,10.2,12,10.2s8.81-3.9,12-10.2c3.34-6.65,5.4-15.89,5.4-26.14s-2.06-19.49-5.4-26.15Z"/><path class="cls-2" d="M217.48,277.65l-.11,0c-2.1-.25-4.36,2.21-6.53,6.29a65.68,65.68,0,0,0-4.75,12.38A129.88,129.88,0,0,0,202.66,312c-2.87,18.33-2.49,37.49,4.2,39.81l.26.11h.08a5.79,5.79,0,0,0,1-1.27,29.31,29.31,0,0,0,3-6.32,144.23,144.23,0,0,0,6.19-25.78,173.81,173.81,0,0,0,2.33-28.24c-.1-6.93-.78-11.66-2-12.66l-.27-.05Z"/><path class="cls-3" d="M371.11,294a34.58,34.58,0,0,1,5.17-6.3A162.26,162.26,0,0,0,374,264.56c-.92-4.86-2.07-8.71-3.43-9.43a.7.7,0,0,0-.24-.06c-1.83-.1-5.17,2.48-8.61,6a58.75,58.75,0,0,0-9.3,12.39,17.15,17.15,0,0,0-1.54,3.68A97.31,97.31,0,0,1,363,285.94a75.08,75.08,0,0,1,8.1,8Z"/><path class="cls-4" d="M371.11,294a36.09,36.09,0,0,1,3.12-4.16c-5.07-5.2-10.88-10.93-10.59-17,.43-9.08,9.23-13.23,9.23-13.23-.67-2.36-1.44-4-2.28-4.46a.7.7,0,0,0-.24-.06c-1.83-.1-5.17,2.48-8.61,6a58.75,58.75,0,0,0-9.3,12.39,17.15,17.15,0,0,0-1.54,3.68A97.31,97.31,0,0,1,363,285.94a75.08,75.08,0,0,1,8.1,8Z"/><path class="cls-5" d="M397.83,364.14c-4.85-1.17-9.13-5.45-12.3-11.77-3.57-7.11-5.78-16.9-5.78-27.66S382,304.16,385.53,297c2.92-5.82,6.78-9.91,11.17-11.43l-.34-.12a15.72,15.72,0,0,0-11.62.52,1.74,1.74,0,0,1-.91.42,26.58,26.58,0,0,0-10.09,9.75c-4.67,7.38-7.56,17.6-7.56,28.92s2.89,21.55,7.56,28.92c4.53,7.15,10.71,11.57,17.47,11.57a16.07,16.07,0,0,0,5.89-1.14l.73-.31Z"/><path class="cls-3" d="M411.07,310c-1.17-3.22-2.6-5.22-4-5.22s-2.81,2-4,5.22a50.39,50.39,0,0,0,0,29.52c1.18,3.22,2.6,5.22,4,5.22s2.82-2,4-5.22a50.39,50.39,0,0,0,0-29.52Z"/><path class="cls-3" d="M240.5,286l0,.11a55.61,55.61,0,0,1,7.4-6.38,64.93,64.93,0,0,1,10.87-6.29c-1.35-4.2-5.43-16.24-8.29-16.82-1-.05-2.85,4-4.71,9.11A122.76,122.76,0,0,0,241,283.1c-.21,1.12-.37,2.11-.46,2.89Z"/><path class="cls-4" d="M240.5,286l0,.11a55.61,55.61,0,0,1,7.4-6.38,64.93,64.93,0,0,1,10.87-6.29c-1.35-4.2-5.43-16.24-8.29-16.82-.59,0-1.48,1.37-2.48,3.57,1.32,2.41,3.86,8.24.81,13.18-2.38,3.87-5.43,6.88-8,10.26-.16.91-.29,1.71-.36,2.37Z"/><path class="cls-3" d="M212.29,294a12.82,12.82,0,0,0-1.26,2.19,39.21,39.21,0,0,0-2.31,6.44c-.72,2.6-1.38,5.55-1.92,8.62-1.73,9.83-2.48,20.49-.72,23a19.67,19.67,0,0,0,1-2.58,106.4,106.4,0,0,0,3.58-15.94,132.55,132.55,0,0,0,1.62-15.86,49.25,49.25,0,0,0,0-5.84Z"/><path class="cls-6" d="M360.68,246a1.18,1.18,0,0,1-.28.22c-.7.52-1.41,1.08-2.12,1.68a94,94,0,0,0-18.75,22,1.7,1.7,0,0,1-2.16.68,80.59,80.59,0,0,0-31.07-7.45,81.76,81.76,0,0,0-31.09,5.4,1.7,1.7,0,0,1-2.17-1c-.42-1-10.86-25.64-21.47-23.17-2.55.59-5,4.38-7.14,9.65-2.94,7.15-5.23,16.88-6.75,25.47.14.19.28.38.41.59a130.76,130.76,0,0,1,4.49-15.58c2.39-6.52,5.34-11.64,8.29-11.33l.24,0c5.52,1.05,11.36,20.57,11.38,20.63a1.7,1.7,0,0,1-1,2.07,61.58,61.58,0,0,0-11.59,6.54,49.71,49.71,0,0,0-8.59,7.79c.18,1.34.32,2.75.41,4.22A125.08,125.08,0,0,1,240,321.12a117.31,117.31,0,0,1-6.66,25c-2.91,6.95-6.46,11.56-10.36,11.81h-.09a51,51,0,0,1-2.39,5.3,45.37,45.37,0,0,1-3,5,15.44,15.44,0,0,0,4.56,4.13,28.34,28.34,0,0,0,7,2.87,1.71,1.71,0,0,1,.3,3.17,33.22,33.22,0,0,1-6.28,3.1,22.89,22.89,0,0,1-3.12.9c7.95,8.2,19.1,15.17,30.91,20.42,14.61,6.48,30.18,10.31,42,10.52,12.68.22,31-2.53,50.07-7.82A222.69,222.69,0,0,0,387.62,388c-2.32-1.09-3.86-2.9-6.06-5.49l-.41-.47a1.7,1.7,0,0,1,1.59-2.78,20.43,20.43,0,0,0,6.94.14,14.38,14.38,0,0,0,4.76-1.8c-.6-1.44-1.16-2.86-1.66-4.28s-1-2.89-1.43-4.34h-.14c-8,0-15.2-5-20.35-13.16-5-7.89-8.1-18.77-8.1-30.75,0-10.65,2.45-20.43,6.51-28a70.92,70.92,0,0,0-8.47-8.55,94.81,94.81,0,0,0-12.63-9.06,1.71,1.71,0,0,1-.82-1.55h0a15.89,15.89,0,0,1,2.08-6,62.51,62.51,0,0,1,9.88-13.17c4.06-4.17,8.33-7.2,11.24-7a3.88,3.88,0,0,1,1.63.44c2.45,1.3,4.1,6,5.2,11.82A163.21,163.21,0,0,1,379.6,285a23.3,23.3,0,0,1,2.27-1.38,131.54,131.54,0,0,0-3.55-27.7c-1.89-7.53-4.23-12.9-6.51-13.84-2.63-1.09-6.68.69-11.13,4Z"/><path class="cls-7" d="M224.67,380.86q-.84.36-1.68.66a22.89,22.89,0,0,1-3.12.9c7.95,8.2,19.1,15.17,30.91,20.42,14.61,6.48,30.18,10.31,42,10.52,12.68.22,31-2.53,50.07-7.82A222.69,222.69,0,0,0,387.62,388c-2.32-1.09-3.86-2.9-6.06-5.49l-.41-.47a1.7,1.7,0,0,1,1.59-2.78,20.43,20.43,0,0,0,6.94.14,14.38,14.38,0,0,0,4.76-1.8c-.6-1.44-1.16-2.86-1.66-4.28s-1-2.89-1.43-4.34h-.14c-7.33,0-14-4.21-19-11.15-.11,13-2,19-2,19-48.68,34.57-96,41-145.59,4Zm140-71.63a52.84,52.84,0,0,1,4.6-12.15,70.92,70.92,0,0,0-8.47-8.55,94.81,94.81,0,0,0-12.63-9.06l-.2-.14a115.13,115.13,0,0,1,16.7,29.9Z"/><path class="cls-3" d="M293.7,354.54c21.94.53,39.72,16.36,39.72,29s-17.78,17.26-39.72,16.72-39.72-6-39.72-18.65,17.79-27.59,39.72-27Z"/><path class="cls-8" d="M261.78,244.68a71.32,71.32,0,0,1,23.1-10.54,126.2,126.2,0,0,1,31.34-4h.13a119.25,119.25,0,0,1,25.77,4.34,57.21,57.21,0,0,1,17.44,8.16c5.07-3.52,9.91-5.27,13.55-3.77,3.36,1.4,6.37,7.64,8.52,16.17a133.5,133.5,0,0,1,3.6,27.09,19.06,19.06,0,0,1,12.24.1,20.14,20.14,0,0,1,2.21.91l-.11-.57c-3.27-15.57-13.11-62.53-81.08-68-79.94-.47-94.7,47.92-97.41,59.64a45.21,45.21,0,0,1,5.08.45,34.32,34.32,0,0,1,8.41,2.28l.09,0c1.55-8.28,3.78-17.38,6.62-24.28,2.57-6.24,5.73-10.79,9.51-11.67s7.63.75,11,3.58Z"/><path class="cls-9" d="M261.78,244.68a71.32,71.32,0,0,1,23.1-10.54,126.2,126.2,0,0,1,31.34-4h.13a119.25,119.25,0,0,1,25.77,4.34,57.21,57.21,0,0,1,17.44,8.16,23.4,23.4,0,0,1,9-4.17c-11.31-9.07-27.39-16.18-50.44-18.1-68-.41-86.84,37.5-92.08,54.32h.08a34.32,34.32,0,0,1,8.41,2.28l.09,0c1.55-8.28,3.78-17.38,6.62-24.28,2.57-6.24,5.73-10.79,9.51-11.67s7.63.75,11,3.58Zm118.56,5.86c.46,1.42.89,2.94,1.29,4.53a133.5,133.5,0,0,1,3.6,27.09,19.19,19.19,0,0,1,6-1,18.78,18.78,0,0,1,3.28.29c-2-8.39-5.85-20-14.15-31Z"/><path class="cls-5" d="M237.24,286.78a1.46,1.46,0,0,1-.16-.62,12.39,12.39,0,0,0-2.25-4.81,1.85,1.85,0,0,1-.36-.38,4,4,0,0,0-1.21-.81,31.54,31.54,0,0,0-7.59-2.06,42,42,0,0,0-4.2-.39c1.06,2.79,1.63,7.18,1.7,12.61a177.36,177.36,0,0,1-2.37,28.8,145.92,145.92,0,0,1-6.35,26.43,32.25,32.25,0,0,1-3.43,7.1c-.15.21-.29.41-.44.6A25.14,25.14,0,0,0,215,354.3a37,37,0,0,0,7.75.24c2.41-.15,5-4,7.41-9.71a114.12,114.12,0,0,0,6.45-24.25,120.79,120.79,0,0,0,1.69-25.88c-.1-1.59-.24-3.1-.44-4.5a1.34,1.34,0,0,1-.06-.4c-.16-1.08-.36-2.09-.58-3Z"/><path d="M237.24,286.78a1.46,1.46,0,0,1-.16-.62,12.39,12.39,0,0,0-2.25-4.81,1.85,1.85,0,0,1-.36-.38,4,4,0,0,0-1.21-.81,31.54,31.54,0,0,0-7.59-2.06,42,42,0,0,0-4.2-.39c1.06,2.79,1.63,7.18,1.7,12.61a177.36,177.36,0,0,1-2.37,28.8,145.92,145.92,0,0,1-6.35,26.43,32.25,32.25,0,0,1-3.43,7.1c-.15.21-.29.41-.44.6A25.14,25.14,0,0,0,215,354.3a37,37,0,0,0,7.75.24c2.41-.15,5-4,7.41-9.71a114.12,114.12,0,0,0,6.45-24.25,120.79,120.79,0,0,0,1.69-25.88c-.1-1.59-.24-3.1-.44-4.5a1.34,1.34,0,0,1-.06-.4c-.16-1.08-.36-2.09-.58-3Zm24.54-42.1a71.32,71.32,0,0,1,23.1-10.54,126.2,126.2,0,0,1,31.34-4h.13a119.25,119.25,0,0,1,25.77,4.34,57.21,57.21,0,0,1,17.44,8.16c5.07-3.52,9.91-5.27,13.55-3.77,3.36,1.4,6.37,7.64,8.52,16.17a133.5,133.5,0,0,1,3.6,27.09,19.06,19.06,0,0,1,12.24.1,20.14,20.14,0,0,1,2.21.91l-.11-.57c-3.27-15.57-13.11-62.53-81.08-68-79.94-.47-94.7,47.92-97.41,59.64a45.21,45.21,0,0,1,5.08.45,34.32,34.32,0,0,1,8.41,2.28l.09,0c1.55-8.28,3.78-17.38,6.62-24.28,2.57-6.24,5.73-10.79,9.51-11.67s7.63.75,11,3.58Zm98.9,1.36a1.18,1.18,0,0,1-.28.22c-.7.52-1.41,1.08-2.12,1.68a94,94,0,0,0-18.75,22,1.7,1.7,0,0,1-2.16.68,80.59,80.59,0,0,0-31.07-7.45,81.76,81.76,0,0,0-31.09,5.4,1.7,1.7,0,0,1-2.17-1c-.42-1-10.86-25.64-21.47-23.17-2.55.59-5,4.38-7.14,9.65-2.94,7.15-5.23,16.88-6.75,25.47.14.19.28.38.41.59a130.76,130.76,0,0,1,4.49-15.58c2.39-6.52,5.34-11.64,8.29-11.33l.24,0c5.52,1.05,11.36,20.57,11.38,20.63a1.7,1.7,0,0,1-1,2.07,61.58,61.58,0,0,0-11.59,6.54,49.71,49.71,0,0,0-8.59,7.79c.18,1.34.32,2.75.41,4.22A125.08,125.08,0,0,1,240,321.12a117.31,117.31,0,0,1-6.66,25c-2.91,6.95-6.46,11.56-10.36,11.81h-.09a51,51,0,0,1-2.39,5.3,45.37,45.37,0,0,1-3,5,15.44,15.44,0,0,0,4.56,4.13,28.34,28.34,0,0,0,7,2.87,1.71,1.71,0,0,1,.3,3.17,33.22,33.22,0,0,1-6.28,3.1,22.89,22.89,0,0,1-3.12.9c7.95,8.2,19.1,15.17,30.91,20.42,14.61,6.48,30.18,10.31,42,10.52,12.68.22,31-2.53,50.07-7.82A222.69,222.69,0,0,0,387.62,388c-2.32-1.09-3.86-2.9-6.06-5.49l-.41-.47a1.7,1.7,0,0,1,1.59-2.78,20.43,20.43,0,0,0,6.94.14,14.38,14.38,0,0,0,4.76-1.8c-.6-1.44-1.16-2.86-1.66-4.28s-1-2.89-1.43-4.34h-.14c-8,0-15.2-5-20.35-13.16-5-7.89-8.1-18.77-8.1-30.75,0-10.65,2.45-20.43,6.51-28a70.92,70.92,0,0,0-8.47-8.55,94.81,94.81,0,0,0-12.63-9.06,1.71,1.71,0,0,1-.82-1.55h0a15.89,15.89,0,0,1,2.08-6,62.51,62.51,0,0,1,9.88-13.17c4.06-4.17,8.33-7.2,11.24-7a3.88,3.88,0,0,1,1.63.44c2.45,1.3,4.1,6,5.2,11.82A163.21,163.21,0,0,1,379.6,285a23.3,23.3,0,0,1,2.27-1.38,131.54,131.54,0,0,0-3.55-27.7c-1.89-7.53-4.23-12.9-6.51-13.84-2.63-1.09-6.68.69-11.13,4Zm-4-1.21a55.76,55.76,0,0,0-15.55-7.05,115.65,115.65,0,0,0-25-4.2,122.15,122.15,0,0,0-30.39,3.86,68.34,68.34,0,0,0-21.47,9.64c5.54,5.91,9.7,14.36,11.24,17.74a84.52,84.52,0,0,1,30.86-5.06,83.26,83.26,0,0,1,31,7.14,98.41,98.41,0,0,1,18.7-21.58l.6-.49ZM217.59,274.22c2.39-10.83,16.65-63.53,101-63h.13c70.52,5.63,80.76,54.48,84.15,70.68.32,1.49.57,2.69.78,3.48,4.68,1.31,8.81,5.52,11.89,11.65,3.56,7.12,5.77,16.9,5.77,27.67s-2.21,20.55-5.77,27.67c-2.8,5.58-6.47,9.57-10.64,11.23h0a23.93,23.93,0,0,1-6.58,4,20.2,20.2,0,0,1-3.52,1c.36,1.18.75,2.36,1.18,3.54q1,2.71,2.13,5.39a1.7,1.7,0,0,1-.59,2.09,18.23,18.23,0,0,1-7.26,3.1,20,20,0,0,1-3.67.29,8.58,8.58,0,0,0,5.65,2.66,1.71,1.71,0,0,1,.79,3.19c-14.7,8.44-32.29,15.17-49.33,19.9-19.36,5.38-38.05,8.17-51,7.94-12.2-.21-28.26-4.15-43.27-10.81-13.35-5.93-25.91-14-34.27-23.64a1.67,1.67,0,0,1-.44-1.07,1.7,1.7,0,0,1,1.63-1.77,19,19,0,0,0,5.52-1.15,25.43,25.43,0,0,0,2.46-1,25.87,25.87,0,0,1-4.06-2,18.32,18.32,0,0,1-6.32-6.19,1.71,1.71,0,0,1,.08-1.9,41.62,41.62,0,0,0,3.46-5.53c.62-1.18,1.19-2.4,1.7-3.63a37.69,37.69,0,0,1-4.64-.36,28,28,0,0,1-7.86-2.32,2.51,2.51,0,0,1-.44-.1,3,3,0,0,1-.68-.27c-8.32-3.2-9.32-23.88-6.25-43.47a134,134,0,0,1,3.51-16.15,69.53,69.53,0,0,1,5-13.05c2.83-5.32,6.14-8.46,9.77-8.1ZM212.29,294a12.82,12.82,0,0,0-1.26,2.19,39.21,39.21,0,0,0-2.31,6.44c-.72,2.6-1.38,5.55-1.92,8.62-1.73,9.83-2.48,20.49-.72,23a19.67,19.67,0,0,0,1-2.58,106.4,106.4,0,0,0,3.58-15.94,132.55,132.55,0,0,0,1.62-15.86,49.25,49.25,0,0,0,0-5.84Zm-4.31.68c1.55-3.13,3.43-4.76,5.57-4.07a1.65,1.65,0,0,1,.41.18c1.33.8,1.91,4.24,1.77,9.15a136.25,136.25,0,0,1-1.67,16.28,109.16,109.16,0,0,1-3.71,16.51,19.64,19.64,0,0,1-1.5,3.53c-.85,1.44-1.88,2.07-3.07,1.74a2.48,2.48,0,0,1-.5-.2c-4-2-3.94-15.24-1.84-27.13.55-3.13,1.23-6.2,2-8.95a41.54,41.54,0,0,1,2.54-7Zm9.5-17-.11,0c-2.1-.25-4.36,2.21-6.53,6.29a65.68,65.68,0,0,0-4.75,12.38A129.88,129.88,0,0,0,202.66,312c-2.87,18.33-2.49,37.49,4.2,39.81l.26.11h.08a5.79,5.79,0,0,0,1-1.27,29.31,29.31,0,0,0,3-6.32,144.23,144.23,0,0,0,6.19-25.78,173.81,173.81,0,0,0,2.33-28.24c-.1-6.93-.78-11.66-2-12.66l-.27-.05Zm23,8.34,0,.11a55.61,55.61,0,0,1,7.4-6.38,64.93,64.93,0,0,1,10.87-6.29c-1.35-4.2-5.43-16.24-8.29-16.82-1-.05-2.85,4-4.71,9.11A122.76,122.76,0,0,0,241,283.1c-.21,1.12-.37,2.11-.46,2.89Zm166.58,15.32c3,0,5.51,2.86,7.2,7.48a53.57,53.57,0,0,1,0,31.84c-1.69,4.62-4.22,7.48-7.2,7.48s-5.51-2.86-7.19-7.48a53.36,53.36,0,0,1,0-31.84c1.68-4.62,4.21-7.48,7.19-7.48Zm4,8.64c-1.17-3.22-2.6-5.22-4-5.22s-2.81,2-4,5.22a50.39,50.39,0,0,0,0,29.52c1.18,3.22,2.6,5.22,4,5.22s2.82-2,4-5.22a50.39,50.39,0,0,0,0-29.52Zm-13.24,54.19c-4.85-1.17-9.13-5.45-12.3-11.77-3.57-7.11-5.78-16.9-5.78-27.66S382,304.16,385.53,297c2.92-5.82,6.78-9.91,11.17-11.43l-.34-.12a15.72,15.72,0,0,0-11.62.52,1.74,1.74,0,0,1-.91.42,26.58,26.58,0,0,0-10.09,9.75c-4.67,7.38-7.56,17.6-7.56,28.92s2.89,21.55,7.56,28.92c4.53,7.15,10.71,11.57,17.47,11.57a16.07,16.07,0,0,0,5.89-1.14l.73-.31Zm14.69-65.58c-3.16-6.3-7.4-10.19-12-10.19s-8.82,3.89-12,10.19c-3.33,6.66-5.4,15.9-5.4,26.15s2.07,19.49,5.4,26.14c3.16,6.3,7.41,10.2,12,10.2s8.81-3.9,12-10.2c3.34-6.65,5.4-15.89,5.4-26.14s-2.06-19.49-5.4-26.15ZM371.11,294a34.58,34.58,0,0,1,5.17-6.3A162.26,162.26,0,0,0,374,264.56c-.92-4.86-2.07-8.71-3.43-9.43a.7.7,0,0,0-.24-.06c-1.83-.1-5.17,2.48-8.61,6a58.75,58.75,0,0,0-9.3,12.39,17.15,17.15,0,0,0-1.54,3.68A97.31,97.31,0,0,1,363,285.94a75.08,75.08,0,0,1,8.1,8Z"/><path class="cls-10" d="M261.51,329.13c5.45,0,9.87,6.57,9.87,14.67s-4.42,14.67-9.87,14.67-9.88-6.57-9.88-14.67,4.42-14.67,9.88-14.67Zm90.28,61.06a1.14,1.14,0,0,0,1.46-1.75s-7.72-6.54-21.14-10.38a1.15,1.15,0,0,0-1.41.79,1.13,1.13,0,0,0,.79,1.4c12.95,3.7,20.28,9.92,20.3,9.94Zm2.5-10.75a1.13,1.13,0,1,0,.83-2.11s-9.36-3.84-23.3-3.34a1.13,1.13,0,0,0-1.1,1.17,1.15,1.15,0,0,0,1.18,1.1c13.46-.48,22.36,3.17,22.39,3.18Zm.37-11.07a1.14,1.14,0,1,0,.22-2.26s-10.06-1.09-23.32,3.26a1.14,1.14,0,1,0,.71,2.16c12.8-4.2,22.36-3.16,22.39-3.16Zm-116,21.82a1.14,1.14,0,0,1-1.46-1.75s7.72-6.54,21.14-10.38a1.13,1.13,0,0,1,1.4.79,1.12,1.12,0,0,1-.78,1.4c-13,3.7-20.28,9.92-20.3,9.94Zm-2.5-10.75a1.13,1.13,0,1,1-.83-2.11s9.36-3.84,23.3-3.34a1.12,1.12,0,0,1,1.09,1.17,1.13,1.13,0,0,1-1.17,1.1c-13.46-.48-22.36,3.17-22.39,3.18Zm-.37-11.07a1.14,1.14,0,1,1-.22-2.26s10.06-1.09,23.32,3.26a1.14,1.14,0,1,1-.71,2.16c-12.8-4.2-22.36-3.16-22.39-3.16Zm55.56,4.68,0,6.91c2,1.39,8.35,5.08,12.71-2a1.7,1.7,0,0,1,2.9,1.79c-5.93,9.6-14.37,5.14-17.33,3.13-2.62,1.83-9.58,5.35-15.84-3.24a1.7,1.7,0,0,1,2.75-2c4.62,6.34,9.67,3.52,11.32,2.32l0-7.17c-2.21-1.64-5.81-4.78-6-8-.24-4.69,15.57-5,16.83-.47.93,3.34-4.55,7-7.44,8.73Zm36.05-42.21c5.45,0,9.87,6.57,9.87,14.67s-4.42,14.66-9.87,14.66-9.87-6.56-9.87-14.66,4.42-14.67,9.87-14.67Z"/><path class="cls-11" d="M330.1,335c1.6,0,2.89,2.2,2.89,4.91s-1.29,4.91-2.89,4.91-2.88-2.2-2.88-4.91,1.29-4.91,2.88-4.91Z"/><path class="cls-11" d="M264.21,335c1.59,0,2.88,2.2,2.88,4.91s-1.29,4.91-2.88,4.91-2.88-2.2-2.88-4.91,1.29-4.91,2.88-4.91Z"/><path class="cls-12" d="M505.76,313.12h-.44l-1.54,5.94H489V242.5H508v17.82l-.44,7.92a20.24,20.24,0,0,1,13.53-5.5c13,0,21.45,11,21.45,27.83,0,19-11.22,29.81-22.88,29.81C514.78,320.38,509.94,318,505.76,313.12Zm17.38-22.22c0-9-2.64-12.76-7.7-12.76-2.86,0-5.06,1.1-7.48,4v20.24a10.1,10.1,0,0,0,7,2.64C519.4,305,523.14,301.46,523.14,290.9Z"/><path class="cls-12" d="M549.54,303.44c0-11.44,8.8-17.82,29.92-20-.44-4-2.86-5.72-7.7-5.72-4,0-8.14,1.54-13.86,4.62L551.3,270c7.7-4.62,15.62-7.26,24.2-7.26,14.3,0,22.88,7.7,22.88,25.74v30.58H583l-1.32-5.28h-.44c-4.4,4-9.24,6.6-15.18,6.6C555.7,320.38,549.54,312.46,549.54,303.44Zm29.92-1.32v-7.48c-9,1.32-11.88,4.18-11.88,7.26,0,2.53,1.76,4,5.06,4C575.72,305.86,577.48,304.32,579.46,302.12Z"/><path class="cls-12" d="M627.42,313.12H627l-1.54,5.94H610.7V242.5h18.92v17.82l-.44,7.92a20.24,20.24,0,0,1,13.53-5.5c13,0,21.45,11,21.45,27.83,0,19-11.22,29.81-22.88,29.81C636.44,320.38,631.6,318,627.42,313.12ZM644.8,290.9c0-9-2.64-12.76-7.7-12.76-2.86,0-5.06,1.1-7.48,4v20.24a10.1,10.1,0,0,0,7,2.64C641.06,305,644.8,301.46,644.8,290.9Z"/><path class="cls-12" d="M673.18,338.64l3.3-14.3A18.12,18.12,0,0,0,680,325c5.06,0,7.48-2.2,8.58-5.5l.66-2.42-20.9-53h18.92l6.6,21.12c1.54,5.06,2.64,10.12,4,15.62h.44c1.1-5.28,2.2-10.34,3.52-15.62l5.5-21.12h18l-18.48,54.12c-5.72,14.85-11.66,21.56-25.3,21.56A28.49,28.49,0,0,1,673.18,338.64Z"/><path class="cls-12" d="M729.06,291.56c0-18.26,13.86-28.82,29.48-28.82a24.19,24.19,0,0,1,16.06,5.72l-8.8,12.1c-2.42-2-4.18-2.64-6.16-2.64-7,0-11.22,5.28-11.22,13.64S753,305.2,759,305.2c3.08,0,6.16-1.54,8.8-3.52L775,314c-5.5,4.84-12.54,6.38-18.26,6.38C741.16,320.38,729.06,309.82,729.06,291.56Z"/><path class="cls-12" d="M780.53,303.44c0-11.44,8.8-17.82,29.93-20-.45-4-2.87-5.72-7.71-5.72-4,0-8.14,1.54-13.86,4.62L782.29,270c7.7-4.62,15.63-7.26,24.21-7.26,14.29,0,22.88,7.7,22.88,25.74v30.58H814l-1.32-5.28h-.44c-4.4,4-9.24,6.6-15.18,6.6C786.69,320.38,780.53,312.46,780.53,303.44Zm29.93-1.32v-7.48c-9,1.32-11.89,4.18-11.89,7.26,0,2.53,1.76,4,5.06,4C806.71,305.86,808.47,304.32,810.46,302.12Z"/><path class="cls-12" d="M841.92,297.94V278.8h-7.26V264.72l8.36-.66,2.19-14.3h15.62v14.3h12.55V278.8H860.83v18.81c0,6.05,3.09,8,6.61,8a15.82,15.82,0,0,0,4.84-.88l2.86,13.64a41.54,41.54,0,0,1-13,2C847.86,320.38,841.92,311.36,841.92,297.94Z"/><path class="cls-12" d="M881.52,308.94c0-6.38,4.62-11.44,11-11.44s11,5.06,11,11.44-4.62,11.44-11,11.44S881.52,315.32,881.52,308.94Z"/><path class="cls-12" d="M915.4,247.78c0-5.5,4.39-9.46,10.56-9.46s10.56,4,10.56,9.46-4.4,9.46-10.56,9.46S915.4,253.28,915.4,247.78Zm1.1,16.28h18.92v55H916.5Z"/><path class="cls-12" d="M945.31,291.56c0-18.26,13.2-28.82,27.28-28.82s27.28,10.56,27.28,28.82-13.2,28.82-27.28,28.82S945.31,309.82,945.31,291.56Zm35.2,0c0-8.36-2.2-13.64-7.92-13.64s-7.92,5.28-7.92,13.64,2.2,13.64,7.92,13.64S980.51,299.92,980.51,291.56Z"/><path class="cls-12" d="M534.42,362.47h3.77l8.88,26.25h-3.54L539,374.06c-1-2.94-1.79-5.82-2.63-8.85h-.16c-.81,3.05-1.65,5.91-2.6,8.85l-4.63,14.66h-3.4Zm-4.21,15.59H542.3v2.66H530.21Z"/><path class="cls-12" d="M550,381.59V369.28h3.29v11.89c0,3.62,1.09,5.17,3.67,5.17,2,0,3.36-1,5.2-3.27V369.28h3.29v19.44h-2.72l-.28-3.05h-.1c-1.81,2.13-3.75,3.53-6.42,3.53C551.82,389.2,550,386.55,550,381.59Z"/><path class="cls-12" d="M570.61,379c0-6.3,4-10.22,8.41-10.22a8,8,0,0,1,5.45,2.25l-.14-3.34v-7.48h3.29v28.49h-2.71l-.28-2.3h-.11a8.61,8.61,0,0,1-5.9,2.78C573.76,389.2,570.61,385.5,570.61,379Zm13.72,4.76V373.59a6.83,6.83,0,0,0-4.74-2c-3.11,0-5.58,3-5.58,7.42,0,4.66,1.93,7.44,5.34,7.44C581.15,386.43,582.7,385.55,584.33,383.78Z"/><path class="cls-12" d="M593.6,363.16a2.27,2.27,0,0,1,4.54,0,2.28,2.28,0,0,1-4.54,0Zm.6,6.12h3.29v19.44H594.2Z"/><path class="cls-12" d="M602.59,379c0-6.48,4.25-10.22,9-10.22s9,3.74,9,10.22-4.24,10.18-9,10.18S602.59,385.46,602.59,379Zm14.62,0c0-4.45-2.26-7.48-5.61-7.48s-5.61,3-5.61,7.48,2.27,7.44,5.61,7.44S617.21,383.48,617.21,379Z"/><path class="cls-12" d="M632.35,383.67c0-4.23,3.66-6.35,11.94-7.25,0-2.5-.83-4.91-4-4.91a10.73,10.73,0,0,0-5.8,2.08l-1.28-2.25a14.17,14.17,0,0,1,7.63-2.54c4.75,0,6.75,3.15,6.75,8v11.93h-2.71l-.28-2.33h-.11a10.34,10.34,0,0,1-6.43,2.81C634.8,389.2,632.35,387.18,632.35,383.67Zm11.94.3v-5.39c-6.51.78-8.71,2.37-8.71,4.86,0,2.21,1.5,3.11,3.4,3.11S642.41,385.63,644.29,384Z"/><path class="cls-12" d="M653.72,369.28h2.72l.27,2.8h.11c1.85-1.82,3.85-3.28,6.52-3.28,4.1,0,5.94,2.64,5.94,7.6v12.32H666V376.83c0-3.63-1.1-5.18-3.67-5.18-2,0-3.36,1-5.31,3v14.08h-3.29Z"/><path class="cls-12" d="M674.39,383.67c0-4.23,3.66-6.35,11.94-7.25,0-2.5-.83-4.91-4-4.91a10.73,10.73,0,0,0-5.8,2.08l-1.28-2.25a14.17,14.17,0,0,1,7.63-2.54c4.75,0,6.75,3.15,6.75,8v11.93H686.9l-.27-2.33h-.11a10.34,10.34,0,0,1-6.43,2.81C676.83,389.2,674.39,387.18,674.39,383.67Zm11.94.3v-5.39c-6.51.78-8.71,2.37-8.71,4.86,0,2.21,1.49,3.11,3.4,3.11S684.45,385.63,686.33,384Z"/><path class="cls-12" d="M695.76,384.81V360.23h3.29v24.82c0,1,.43,1.41.91,1.41a2.83,2.83,0,0,0,.72-.08l.45,2.51a5.24,5.24,0,0,1-1.89.31C696.77,389.2,695.76,387.62,695.76,384.81Z"/><path class="cls-12" d="M704,396.7l.64-2.62a5.12,5.12,0,0,0,1.48.29c2.2,0,3.58-1.76,4.39-4.18l.44-1.43-7.8-19.48h3.39l4,10.76c.61,1.69,1.27,3.68,1.9,5.48h.16c.55-1.77,1.1-3.76,1.63-5.48l3.47-10.76h3.22l-7.33,21c-1.37,3.86-3.37,6.78-7.27,6.78A6.25,6.25,0,0,1,704,396.7Z"/><path class="cls-12" d="M722.48,386.5l1.63-2.17a8.74,8.74,0,0,0,5.73,2.31c2.56,0,3.82-1.36,3.82-3,0-2-2.29-2.89-4.44-3.69-2.73-1-5.8-2.34-5.8-5.61,0-3.11,2.49-5.52,6.71-5.52a9.87,9.87,0,0,1,6,2.18l-1.57,2.11a7.34,7.34,0,0,0-4.44-1.73c-2.45,0-3.58,1.31-3.58,2.79,0,1.85,2.12,2.55,4.32,3.37,2.8,1.06,5.93,2.2,5.93,5.9,0,3.15-2.51,5.78-7.1,5.78A11.66,11.66,0,0,1,722.48,386.5Z"/><path class="cls-12" d="M740.79,363.16a2.28,2.28,0,1,1,2.28,2.12A2.15,2.15,0,0,1,740.79,363.16Zm.61,6.12h3.29v19.44H741.4Z"/><path class="cls-12" d="M749.08,386.5l1.62-2.17a8.78,8.78,0,0,0,5.74,2.31c2.55,0,3.82-1.36,3.82-3,0-2-2.29-2.89-4.44-3.69-2.73-1-5.8-2.34-5.8-5.61,0-3.11,2.49-5.52,6.7-5.52a9.9,9.9,0,0,1,6,2.18l-1.57,2.11a7.34,7.34,0,0,0-4.44-1.73c-2.45,0-3.58,1.31-3.58,2.79,0,1.85,2.12,2.55,4.32,3.37,2.8,1.06,5.93,2.2,5.93,5.9,0,3.15-2.51,5.78-7.1,5.78A11.66,11.66,0,0,1,749.08,386.5Z"/><path class="cls-12" d="M776,369.28h2.71l.28,2.82h.11c1.7-1.84,3.73-3.3,6-3.3a5.13,5.13,0,0,1,5.37,3.7c2-2.18,4-3.7,6.41-3.7,4,0,5.91,2.64,5.91,7.6v12.32h-3.29V376.83c0-3.63-1.14-5.18-3.61-5.18-1.51,0-3.08,1-4.88,3v14.08h-3.29V376.83c0-3.63-1.14-5.18-3.61-5.18-1.46,0-3.08,1-4.87,3v14.08H776Z"/><path class="cls-12" d="M808,383.67c0-4.23,3.66-6.35,11.94-7.25,0-2.5-.84-4.91-4-4.91a10.7,10.7,0,0,0-5.8,2.08l-1.29-2.25a14.23,14.23,0,0,1,7.64-2.54c4.74,0,6.75,3.15,6.75,8v11.93h-2.72l-.28-2.33h-.1a10.37,10.37,0,0,1-6.43,2.81C810.39,389.2,808,387.18,808,383.67Zm11.94.3v-5.39c-6.51.78-8.72,2.37-8.72,4.86,0,2.21,1.5,3.11,3.41,3.11S818,385.63,819.89,384Z"/><path class="cls-12" d="M827.93,379c0-6.3,4-10.22,8.41-10.22a8,8,0,0,1,5.45,2.25l-.14-3.34v-7.48h3.29v28.49h-2.72l-.28-2.3h-.11a8.6,8.6,0,0,1-5.89,2.78C831.08,389.2,827.93,385.5,827.93,379Zm13.72,4.76V373.59a6.83,6.83,0,0,0-4.74-2c-3.11,0-5.58,3-5.58,7.42,0,4.66,1.93,7.44,5.33,7.44C838.46,386.43,840,385.55,841.65,383.78Z"/><path class="cls-12" d="M850.07,379c0-6.32,4.26-10.22,8.74-10.22,5,0,7.76,3.56,7.76,9.12a11,11,0,0,1-.15,1.87h-13.1c.24,4.12,2.76,6.79,6.46,6.79a8.51,8.51,0,0,0,4.84-1.56l1.18,2.16a11.42,11.42,0,0,1-6.42,2C854.2,389.2,850.07,385.41,850.07,379Zm13.59-1.59c0-3.89-1.75-6-4.79-6-2.73,0-5.18,2.19-5.58,6Z"/><path class="cls-12" d="M877.91,379c0-6.32,4.26-10.22,8.74-10.22,5,0,7.76,3.56,7.76,9.12a10,10,0,0,1-.16,1.87H881.16c.24,4.12,2.76,6.79,6.46,6.79a8.51,8.51,0,0,0,4.84-1.56l1.18,2.16a11.42,11.42,0,0,1-6.42,2C882,389.2,877.91,385.41,877.91,379Zm13.59-1.59c0-3.89-1.75-6-4.79-6-2.74,0-5.18,2.19-5.58,6Z"/><path class="cls-12" d="M897.43,383.67c0-4.23,3.65-6.35,11.94-7.25,0-2.5-.84-4.91-4-4.91a10.7,10.7,0,0,0-5.8,2.08l-1.29-2.25a14.23,14.23,0,0,1,7.64-2.54c4.74,0,6.75,3.15,6.75,8v11.93h-2.72l-.28-2.33h-.11a10.32,10.32,0,0,1-6.42,2.81C899.87,389.2,897.43,387.18,897.43,383.67Zm11.94.3v-5.39c-6.51.78-8.72,2.37-8.72,4.86,0,2.21,1.5,3.11,3.41,3.11S907.49,385.63,909.37,384Z"/><path class="cls-12" d="M916.64,386.5l1.62-2.17a8.78,8.78,0,0,0,5.74,2.31c2.55,0,3.82-1.36,3.82-3,0-2-2.29-2.89-4.45-3.69-2.72-1-5.79-2.34-5.79-5.61,0-3.11,2.49-5.52,6.7-5.52a9.9,9.9,0,0,1,6.05,2.18l-1.58,2.11a7.31,7.31,0,0,0-4.43-1.73c-2.45,0-3.58,1.31-3.58,2.79,0,1.85,2.11,2.55,4.32,3.37,2.8,1.06,5.92,2.2,5.92,5.9,0,3.15-2.5,5.78-7.09,5.78A11.64,11.64,0,0,1,916.64,386.5Z"/><path class="cls-12" d="M933.6,396.7l.65-2.62a5.05,5.05,0,0,0,1.48.29c2.19,0,3.58-1.76,4.38-4.18l.44-1.43-7.8-19.48h3.39l4,10.76c.61,1.69,1.26,3.68,1.9,5.48h.16c.55-1.77,1.1-3.76,1.63-5.48l3.46-10.76h3.23l-7.33,21c-1.37,3.86-3.38,6.78-7.28,6.78A6.33,6.33,0,0,1,933.6,396.7Z"/><path class="cls-12" d="M952.16,386.71a2.38,2.38,0,1,1,2.38,2.49A2.4,2.4,0,0,1,952.16,386.71Z"/></g></svg>