<?xml version="1.0" encoding="utf-8"?>
<!-- Generator: Adobe Illustrator 23.0.3, SVG Export Plug-In . SVG Version: 6.00 Build 0)  -->
<svg version="1.1" id="Layer_1" xmlns="http://www.w3.org/2000/svg" xmlns:xlink="http://www.w3.org/1999/xlink" x="0px" y="0px"
	 viewBox="0 0 1920 1920" style="enable-background:new 0 0 1920 1920;" xml:space="preserve">
<style type="text/css">
	.st0{fill:#FFFFFF;}
	.st1{fill:#F9662B;}
</style>
<g>
	<g>
		<path class="st0" d="M415.96,909.59l-86.9-70.69c-2.76-2.25-6.92-0.28-6.92,3.26v147.97l-32.76,18.52
			c-8.27,4.67-13.39,13.45-13.39,22.96v47c0,2.48,2.7,4.11,4.9,2.87l41.26-23.36l20.37-11.54c8.27-4.67,13.4-13.45,13.4-23.02V971
			V904.3l68.33,55.61v-32.98C424.24,920.23,421.2,913.81,415.96,909.59z"/>
		<path class="st1" d="M567.59,838.34l-41.25,23.36l-20.37,11.54c-8.27,4.67-13.39,13.51-13.39,23.02v52.57v66.69l-68.33-55.61
			v32.98c0,6.7,3.04,13.11,8.27,17.34l86.9,70.69c2.81,2.25,6.92,0.28,6.92-3.26V929.69l32.76-18.52
			c8.33-4.67,13.45-13.45,13.45-22.96v-47C572.54,838.73,569.78,837.1,567.59,838.34z"/>
	</g>
	<g>
		<path class="st0" d="M724.45,903.18c-4.96,0-9,4.11-9,9.16v83.05l-60.02-86.68c-2.78-3.57-6.44-5.54-10.29-5.54h-2.13
			c-6.77,0-12.27,5.58-12.27,12.43v97.62c0,4.96,4.04,9,9,9c5.05,0,9.16-4.04,9.16-9v-83.21l60.33,87.14
			c2.42,3.22,6.05,5.07,9.98,5.07h1.96c6.86,0,12.43-5.5,12.43-12.27v-97.62C733.61,907.37,729.42,903.18,724.45,903.18z"/>
		<path class="st0" d="M862.81,921.17c4.86,0,8.67-3.74,8.67-8.51c0-4.86-3.81-8.67-8.67-8.67h-65.57c-4.96,0-9,4.11-9,9.16v99.26
			c0,4.96,4.04,9,9,9h65.57c4.86,0,8.67-3.74,8.67-8.51c0-4.86-3.81-8.67-8.67-8.67H806.4v-33.02h50.52c4.86,0,8.67-3.74,8.67-8.51
			c0-4.86-3.81-8.67-8.67-8.67H806.4v-32.86H862.81z"/>
		<path class="st0" d="M969.76,902.36c-34.62,0-58.34,24.24-59.04,60.38c0.69,36.07,24.42,60.31,59.04,60.31
			c34.62,0,58.35-24.24,59.04-60.31v-0.06C1028.11,926.6,1004.39,902.36,969.76,902.36z M969.76,1005.87
			c-24.45,0-40.87-17.35-40.87-43.16c0-25.82,16.43-43.17,40.87-43.17c24.45,0,40.87,17.35,40.87,43.17
			C1010.64,988.52,994.21,1005.87,969.76,1005.87z"/>
		<path class="st0" d="M1130.03,919.87c12.42,0,20.64,3,29.19,7.51c1.49,0.75,3.07,0.83,3.68,0.83c2.37,0,4.52-0.88,6.04-2.48
			c1.46-1.53,2.24-3.64,2.14-5.79c-0.18-3.4-1.6-5.71-4.43-7.23c-9.06-5.12-20.68-10.35-38.09-10.35
			c-35.21,0-58.87,24.25-58.87,60.34c0,36.09,23.66,60.34,58.87,60.34c17.41,0,29.02-5.23,38.06-10.33
			c2.86-1.54,4.28-3.85,4.46-7.25v-0.01c0.1-2.14-0.68-4.24-2.14-5.78c-1.52-1.6-3.67-2.48-6.04-2.48c-0.61,0-2.18,0.08-3.71,0.84
			c-8.52,4.5-16.74,7.5-29.16,7.5c-26.02,0-42.18-16.41-42.18-42.84C1087.85,936.28,1104.01,919.87,1130.03,919.87z"/>
		<path class="st0" d="M1319.74,938.83c0-22.14-16.81-34.84-46.12-34.84h-38.1c-4.96,0-9,4.11-9,9.16v100.08c0,4.96,4.04,9,9,9
			c5.05,0,9.16-4.04,9.16-9v-36.3h32.21c21.01,0,23.7,16.78,23.7,31.39v4.9c0,5.38,3.68,9,9.16,9c4.96,0,9-4.04,9-9v-7.52
			c0-7.21-1.34-29.89-17.5-37.38C1312.76,962.8,1319.74,951.84,1319.74,938.83z M1301.58,939.97c0,12.28-10.82,19.62-28.94,19.62
			h-27.96v-38.25h27.14C1298.2,921.34,1301.58,931.3,1301.58,939.97z"/>
		<path class="st0" d="M1461.53,903.18c-3.26,0-5.92,1.51-7.9,4.48l-32.82,47.73L1388,907.67c-1.98-2.98-4.64-4.49-7.91-4.49
			c-2.46,0-4.72,0.95-6.38,2.68c-1.68,1.75-2.55,4.07-2.45,6.48c0,1.85,0.53,3.63,1.61,5.37l38.78,54.35v41.17c0,4.96,4.11,9,9.16,9
			c4.96,0,9-4.04,9-9v-41.17l39-54.44c1.03-1.65,1.56-3.43,1.56-5.22c0.1-2.48-0.77-4.8-2.45-6.55
			C1466.25,904.13,1463.98,903.18,1461.53,903.18z"/>
		<path class="st0" d="M1630.3,903.18h-5.4c-4.91,0-9.52,3.16-11.5,7.9l-35.6,88.76l-35.61-88.78c-1.96-4.71-6.58-7.88-11.49-7.88
			h-5.39c-6.77,0-12.27,5.58-12.27,12.43v97.62c0,4.96,4.04,9,9,9c5.05,0,9.16-4.04,9.16-9v-84.45l34.63,85.6
			c2.13,4.84,6.71,7.85,11.97,7.85c5.25,0,9.83-3.01,11.99-7.89l34.61-85.56v84.45c0,4.96,4.11,9,9.16,9c4.96,0,9-4.04,9-9v-97.62
			C1642.57,908.75,1637.06,903.18,1630.3,903.18z"/>
	</g>
</g>
</svg>
