<svg id="Layer_1" data-name="Layer 1" xmlns="http://www.w3.org/2000/svg" viewBox="0 0 1300 310"><defs><style>.cls-1{fill:#012e68;}.cls-1,.cls-2,.cls-3{fill-rule:evenodd;}.cls-2{fill:#015895;}.cls-3{fill:#fff;}</style></defs><path class="cls-1" d="M295.1,197.93V161.05l-74.19-42.83-21.29,12.29,74.19,42.83v12.3L220.6,216.36,103.84,148.94V222.5L220.75,290l116.92-67.5V185.63l-21.3-12.29q0,18.45,0,36.87l-95.78,55.3-95.48-55.12V185.81l95.48,55.12,74.5-43Z"/><path class="cls-2" d="M146.41,112.07v36.87l74.19,42.84,21.28-12.29-74.19-42.83v-12.3L220.9,93.64l116.77,67.42V87.5L220.75,20,103.84,87.5v36.87l21.3,12.29q0-18.45,0-36.87l95.78-55.3,95.48,55.12v24.58L220.9,69.07l-74.49,43Z"/><path class="cls-3" d="M480.56,123c-2.15-6.92-6.77-12.76-13.68-17.22-6.92-4.62-15.23-6.92-24.61-6.92-10.76,0-19.52,3.07-26.44,9.07q-10.15,9-10.15,23.53c0,10.91,5.23,19.22,15.53,24.75,4.46,2.31,13.07,5.38,26,9.23,4.16,1.38,4.77,1.38,8.61,3.22a21.41,21.41,0,0,1,4.46,2.62c1.85,1.69,3.85,4.46,3.85,7.53,0,7.38-8.46,12.46-19.38,12.46-11.22,0-19.83-5.69-21.52-12.46L402.6,185c2.31,7.54,7.23,13.69,14.76,18.76,7.54,4.92,16.77,7.38,27.37,7.38,11.84,0,21.38-3.07,28.76-9.22,7.53-6.31,11.22-14.61,11.22-24.91,0-8.46-3.54-15.69-7.23-19.53a28.34,28.34,0,0,0-7.68-5.69c-6.61-3.54-9.38-4.15-16-6-8.92-2.61-14.77-4.45-17.69-5.68-6.61-2.77-9.84-6.16-9.84-10.15,0-6.31,7.23-11.38,16.3-11.38,8.61,0,15.68,4.77,17.38,10.46l20.6-6Zm95.64,30c-6.15-16-21.22-26.45-39.52-26.45-12.14,0-22.14,4-30.29,12.15-8,8-12,18-12,30.14s4,22.14,12,30.29c8.15,8,18.15,12,30.29,12,18.3,0,33.37-10.45,39.52-26.44L557,179a21.68,21.68,0,0,1-20.3,12.91,21.36,21.36,0,0,1-16-6.61,24.17,24.17,0,0,1,0-32.9,21.36,21.36,0,0,1,16-6.62A21.69,21.69,0,0,1,557,158.69L576.2,153ZM624,126.55a36.26,36.26,0,0,0-27.83,12.15c-7.38,8-11.07,18-11.07,30.14s3.69,22.14,11.07,30.29a36.67,36.67,0,0,0,27.83,12,37.84,37.84,0,0,0,24.29-8.61v6.31h19.07v-80H648.31v6.31A37.85,37.85,0,0,0,624,126.55Zm17.68,25.84a24.63,24.63,0,0,1,0,32.9,19.92,19.92,0,0,1-15.22,6.61,20.25,20.25,0,0,1-15.38-6.61c-4.15-4.46-6.15-9.84-6.15-16.45s2-12,6.15-16.45a20.26,20.26,0,0,1,15.38-6.62,19.93,19.93,0,0,1,15.22,6.62Zm61.2,56.43V99H683.68V208.82Zm52.28-82.27a36.26,36.26,0,0,0-27.83,12.15c-7.38,8-11.07,18-11.07,30.14S720,191,727.35,199.13a36.67,36.67,0,0,0,27.83,12,37.84,37.84,0,0,0,24.29-8.61v6.31h19.07v-80H779.47v6.31a37.85,37.85,0,0,0-24.29-8.62Zm17.68,25.84a24.63,24.63,0,0,1,0,32.9,19.93,19.93,0,0,1-15.22,6.61,20.25,20.25,0,0,1-15.38-6.61c-4.15-4.46-6.15-9.84-6.15-16.45s2-12,6.15-16.45a20.26,20.26,0,0,1,15.38-6.62,19.94,19.94,0,0,1,15.22,6.62Zm61.2-23.53H814.83v80h19.23v-44c0-10.61,7.84-18.6,18.45-18.6a19.33,19.33,0,0,1,7.84,1.69V126.55c-12,0-20.76,4-26.29,12.15v-9.84ZM946.45,123c-2.15-6.92-6.76-12.76-13.68-17.22-6.92-4.62-15.22-6.92-24.6-6.92-10.77,0-19.53,3.07-26.45,9.07q-10.14,9-10.15,23.53c0,10.91,5.23,19.22,15.53,24.75,4.46,2.31,13.07,5.38,26,9.23a52.65,52.65,0,0,1,8.61,3.22,21.41,21.41,0,0,1,4.46,2.62C928,173,930,175.76,930,178.83c0,7.38-8.46,12.46-19.37,12.46-11.23,0-19.84-5.69-21.53-12.46L868.5,185c2.3,7.54,7.23,13.69,14.76,18.76,7.53,4.92,16.76,7.38,27.37,7.38,11.84,0,21.37-3.07,28.75-9.22,7.54-6.31,11.23-14.61,11.23-24.91,0-8.46-3.54-15.69-7.23-19.53a28.56,28.56,0,0,0-7.69-5.69c-6.61-3.54-9.38-4.15-16-6-8.92-2.61-14.76-4.45-17.68-5.68-6.61-2.77-9.84-6.16-9.84-10.15,0-6.31,7.22-11.38,16.29-11.38,8.62,0,15.69,4.77,17.38,10.46l20.6-6Zm10,22.6h11.38v38a23.3,23.3,0,0,0,7.84,18A27.72,27.72,0,0,0,995,208.82h11.84v-18.3h-10a9.5,9.5,0,0,1-9.84-9.69V145.62h19.83V128.86H987.05V113.18H967.83v15.68H956.45v16.76Zm71.34,53.51c8.15,8,18.15,12,30.29,12s22.14-4,30.3-12c8.15-8.15,12.14-18.14,12.14-30.29s-4-22.14-12.14-30.14-18.15-12.15-30.3-12.15-22.14,4-30.29,12.15c-8,8-12,18-12,30.14s4,22.14,12,30.29Zm14.3-46.74a22.63,22.63,0,0,1,32,0,24.2,24.2,0,0,1,0,32.9,22.66,22.66,0,0,1-32,0,24.2,24.2,0,0,1,0-32.9Zm90.87,91v-40.9a37.46,37.46,0,0,0,24.15,8.61,36.68,36.68,0,0,0,27.83-12c7.53-8.15,11.22-18.14,11.22-30.29s-3.69-22.14-11.22-30.14a36.27,36.27,0,0,0-27.83-12.15,37.47,37.47,0,0,0-24.15,8.62v-6.31h-19.22V243.41Zm36.91-91a24.63,24.63,0,0,1,0,32.9,20.84,20.84,0,0,1-30.45,0c-4.15-4.46-6.15-9.84-6.15-16.45s2-12,6.15-16.45a20.82,20.82,0,0,1,30.45,0Z"/></svg>