<svg id="Layer_1" data-name="Layer 1" xmlns="http://www.w3.org/2000/svg" viewBox="0 0 370 370"><defs><style>.cls-1{fill:#fff;}</style></defs><rect class="cls-1" width="370" height="370"/><path d="M260.52,118.15h-.45a12,12,0,0,1,0-24h.45a12,12,0,0,1,0,24Z"/><path d="M217.87,118.15H109.93a12,12,0,0,1,0-24H217.87a12,12,0,1,1,0,24Z"/><path d="M199.38,320.42H119.25V189.66A55.75,55.75,0,0,1,174.94,134h87.35a28.72,28.72,0,0,0,0-57.43H107.71A28.74,28.74,0,0,0,79,105.26H52a55.75,55.75,0,0,1,55.69-55.68H262.29a55.69,55.69,0,1,1,0,111.37H174.94a28.75,28.75,0,0,0-28.72,28.71V293.45H172.4v-110h27Z"/></svg>