<svg id="Layer_1" data-name="Layer 1" xmlns="http://www.w3.org/2000/svg" viewBox="0 0 1300 370"><defs><style>.cls-1{fill:#fff;}.cls-2{fill:#2869e6;}</style></defs><rect class="cls-1" x="0.05" y="-0.22" width="1300" height="370"/><path class="cls-2" d="M466.9,215.56H422.09v46.62H392.21V103.75c24.9,0,49.79-.23,74.69-.23C544.31,103.52,544.53,215.56,466.9,215.56Zm-44.81-27.39H466.9c38.25,0,38-56.13,0-56.13H422.09Z"/><path class="cls-2" d="M569.42,150.6l2,12.9c8.6-13.81,20.15-15.84,31.46-15.84,11.55,0,22.64,4.52,28.75,10.63l-12.45,24c-5.66-4.76-10.87-7.25-19.92-7.25-14.48,0-27.84,7.7-27.84,28.3v58.84H543.85V150.6Z"/><path class="cls-2" d="M752.3,206.5c0,32.14-21.95,58.17-58.17,58.17s-57.94-26-57.94-58.17c0-31.91,22.18-58.16,57.72-58.16S752.3,174.59,752.3,206.5Zm-88.5,0c0,17,10.19,32.82,30.33,32.82s30.33-15.84,30.33-32.82c0-16.75-11.77-33-30.33-33C674.21,173.46,663.8,189.75,663.8,206.5Z"/><path class="cls-2" d="M887,150.37,839.44,262.64H809.56L761.8,150.37h30.1l15.39,36.9,17.21,47.07,17-46.62,15.39-37.35Z"/><path class="cls-2" d="M1008.73,206.5c0,32.14-22,58.17-58.17,58.17s-57.94-26-57.94-58.17c0-31.91,22.18-58.16,57.71-58.16S1008.73,174.59,1008.73,206.5Zm-88.5,0c0,17,10.18,32.82,30.33,32.82s30.33-15.84,30.33-32.82c0-16.75-11.77-33-30.33-33C930.64,173.46,920.23,189.75,920.23,206.5Z"/><path class="cls-2" d="M1100.61,180.25c-7.92-7.47-17-10-27.61-10-13.13,0-20.37,4.07-20.37,11.09,0,7.24,6.56,11.32,20.82,12.22,21,1.36,47.76,6.11,47.76,35.76,0,19.7-16.07,36.67-48,36.67-17.66,0-35.31-2.94-51.61-19.92l13.58-19.69c7.92,8.83,26,15.39,38.48,15.62,10.41.22,20.14-5.21,20.14-13.36,0-7.69-6.33-10.86-22.18-11.76-21.05-1.59-46.17-9.29-46.17-34.63,0-25.81,26.71-34.86,47.08-34.86,17.43,0,30.55,3.39,43.45,14.71Z"/><path class="cls-2" d="M1162.4,216.24c1.81,13.8,13.81,23.76,33.27,23.76,10.18,0,23.54-3.85,29.88-10.41L1243.2,247c-11.77,12.22-31,18.11-48,18.11-38.48,0-61.34-23.77-61.34-59.53,0-33.95,23.09-58.4,59.3-58.4,37.34,0,60.66,23.09,56.36,69Zm60.66-22.86c-1.81-14.49-13.13-21.73-29-21.73-14.94,0-27.17,7.24-31.24,21.73Z"/><path class="cls-2" d="M258.54,117.92h-.44a12,12,0,1,1,0-24h.44a12,12,0,1,1,0,24Z"/><path class="cls-2" d="M215.9,117.92H108a12,12,0,1,1,0-24H215.9a12,12,0,0,1,0,24Z"/><path class="cls-2" d="M197.4,320.2H117.27V189.44A55.76,55.76,0,0,1,173,133.75h87.35a28.71,28.71,0,0,0,0-57.42H105.73A28.74,28.74,0,0,0,77,105h-27a55.75,55.75,0,0,1,55.68-55.69H260.32a55.69,55.69,0,0,1,0,111.38H173a28.75,28.75,0,0,0-28.72,28.71V293.22h26.18v-110h27Z"/></svg>