<svg id="Layer_1" data-name="Layer 1" xmlns="http://www.w3.org/2000/svg" viewBox="0 0 1200 628"><defs><style>.cls-1{fill:#2869e6;}.cls-2,.cls-3{fill:#fff;}.cls-3{font-size:40px;font-family:Verdana-Bold, Verdana;font-weight:700;}</style></defs><rect class="cls-1" width="1200" height="628"/><path class="cls-2" d="M477.9,239.79H448v31.09H428.11V165.25c16.6,0,33.19-.15,49.79-.15C529.51,165.1,529.66,239.79,477.9,239.79ZM448,221.53H477.9c25.5,0,25.35-37.42,0-37.42H448Z"/><path class="cls-2" d="M546.25,196.49l1.36,8.6c5.73-9.21,13.43-10.57,21-10.57,7.7,0,15.09,3,19.17,7.1l-8.3,16a18.38,18.38,0,0,0-13.28-4.83c-9.66,0-18.56,5.13-18.56,18.86v39.24H529.2V196.49Z"/><path class="cls-2" d="M668.17,233.76c0,21.42-14.64,38.77-38.78,38.77s-38.63-17.35-38.63-38.77S605.55,195,629.24,195,668.17,212.48,668.17,233.76Zm-59,0c0,11.31,6.79,21.88,20.22,21.88s20.22-10.57,20.22-21.88-7.85-22-20.22-22C616.11,211.73,609.17,222.59,609.17,233.76Z"/><path class="cls-2" d="M758,196.34l-31.69,74.84H706.34L674.5,196.34h20.07l10.26,24.59,11.47,31.39,11.32-31.09,10.26-24.89Z"/><path class="cls-2" d="M839.12,233.76c0,21.42-14.64,38.77-38.78,38.77s-38.63-17.35-38.63-38.77S776.5,195,800.19,195,839.12,212.48,839.12,233.76Zm-59,0c0,11.31,6.79,21.88,20.22,21.88s20.22-10.57,20.22-21.88-7.85-22-20.22-22C787.06,211.73,780.12,222.59,780.12,233.76Z"/><path class="cls-2" d="M900.38,216.25c-5.28-5-11.32-6.64-18.41-6.64-8.75,0-13.58,2.72-13.58,7.4,0,4.83,4.37,7.54,13.88,8.15,14,.9,31.84,4.07,31.84,23.84,0,13.12-10.72,24.44-32,24.44-11.77,0-23.54-2-34.4-13.28l9-13.12c5.28,5.88,17.35,10.26,25.65,10.41,6.94.15,13.43-3.47,13.43-8.91,0-5.13-4.22-7.24-14.79-7.84-14-1.06-30.78-6.19-30.78-23.09,0-17.2,17.81-23.24,31.39-23.24,11.62,0,20.37,2.27,29,9.81Z"/><path class="cls-2" d="M941.57,240.24c1.21,9.21,9.2,15.85,22.18,15.85,6.79,0,15.69-2.57,19.92-6.94l11.77,11.62c-7.85,8.14-20.68,12.07-32,12.07-25.66,0-40.89-15.85-40.89-39.69,0-22.63,15.39-38.93,39.53-38.93,24.9,0,40.44,15.39,37.57,46ZM982,225c-1.21-9.66-8.75-14.49-19.32-14.49-10,0-18.1,4.83-20.82,14.49Z"/><path class="cls-2" d="M339,174.7h-.3a8,8,0,1,1,0-16h.3a8,8,0,1,1,0,16Z"/><path class="cls-2" d="M310.57,174.7h-72a8,8,0,1,1,0-16h72a8,8,0,0,1,0,16Z"/><path class="cls-2" d="M298.24,309.55H244.82V222.38A37.16,37.16,0,0,1,282,185.26h58.23a19.15,19.15,0,0,0,0-38.29H237.12A19.17,19.17,0,0,0,218,166.11H200A37.16,37.16,0,0,1,237.12,129H340.18a37.13,37.13,0,1,1,0,74.25H282a19.17,19.17,0,0,0-19.15,19.14v69.19h17.45V218.24h18Z"/><text class="cls-3" transform="translate(298.21 390.88)">the easiest way to manage<tspan x="-3.63" y="48">your Amazon Web Services</tspan><tspan x="145.44" y="96">infrastructure</tspan></text></svg>