<svg id="Layer_1" data-name="Layer 1" xmlns="http://www.w3.org/2000/svg" viewBox="0 0 1300 370"><path d="M466.85,215.78H422v46.63H392.16V104c24.9,0,49.8-.22,74.69-.22C544.26,103.75,544.49,215.78,466.85,215.78ZM422,188.39h44.81c38.25,0,38-56.13,0-56.13H422Z"/><path d="M569.38,150.82l2,12.9c8.6-13.8,20.14-15.84,31.46-15.84,11.54,0,22.63,4.53,28.74,10.64l-12.45,24c-5.66-4.75-10.86-7.24-19.92-7.24-14.48,0-27.83,7.69-27.83,28.29v58.85H543.8V150.82Z"/><path d="M752.25,206.73c0,32.14-22,58.17-58.16,58.17s-58-26-58-58.17c0-31.92,22.18-58.17,57.72-58.17S752.25,174.81,752.25,206.73Zm-88.49,0c0,17,10.18,32.82,30.33,32.82s30.32-15.85,30.32-32.82c0-16.75-11.77-33-30.32-33C674.17,173.68,663.76,190,663.76,206.73Z"/><path d="M886.92,150.6,839.39,262.86H809.51L761.75,150.6h30.11l15.39,36.89,17.2,47.08,17-46.63,15.39-37.34Z"/><path d="M1008.68,206.73c0,32.14-21.95,58.17-58.17,58.17s-57.94-26-57.94-58.17c0-31.92,22.18-58.17,57.72-58.17S1008.68,174.81,1008.68,206.73Zm-88.5,0c0,17,10.19,32.82,30.33,32.82s30.33-15.85,30.33-32.82c0-16.75-11.77-33-30.33-33C930.59,173.68,920.18,190,920.18,206.73Z"/><path d="M1100.57,180.47c-7.93-7.47-17-10-27.61-10-13.13,0-20.38,4.08-20.38,11.1,0,7.24,6.57,11.31,20.83,12.22,21,1.35,47.75,6.11,47.75,35.76,0,19.69-16.07,36.66-48,36.66-17.65,0-35.31-2.94-51.6-19.91l13.58-19.69c7.92,8.82,26,15.39,38.47,15.61,10.41.23,20.14-5.2,20.14-13.35,0-7.7-6.33-10.87-22.17-11.77-21-1.58-46.17-9.28-46.17-34.63,0-25.8,26.7-34.86,47.07-34.86,17.43,0,30.56,3.4,43.46,14.72Z"/><path d="M1162.35,216.46c1.81,13.81,13.81,23.76,33.27,23.76,10.19,0,23.54-3.84,29.88-10.41l17.65,17.43c-11.77,12.22-31,18.11-48,18.11-38.48,0-61.34-23.77-61.34-59.53,0-33.95,23.09-58.39,59.3-58.39,37.35,0,60.66,23.08,56.36,69ZM1223,193.6c-1.81-14.48-13.13-21.73-29-21.73-14.94,0-27.16,7.25-31.24,21.73Z"/><path d="M258.5,118.15h-.45a12,12,0,0,1,0-24h.45a12,12,0,0,1,0,24Z"/><path d="M215.86,118.15h-108a12,12,0,0,1,0-24h108a12,12,0,0,1,0,24Z"/><path d="M197.36,320.42H117.23V189.66A55.75,55.75,0,0,1,172.92,134h87.35a28.72,28.72,0,1,0,0-57.43H105.69A28.74,28.74,0,0,0,77,105.26H50a55.75,55.75,0,0,1,55.69-55.68H260.27a55.69,55.69,0,1,1,0,111.37H172.92a28.75,28.75,0,0,0-28.72,28.71V293.45h26.18v-110h27Z"/></svg>