<?xml version="1.0" encoding="UTF-8"?>
<svg width="100px" height="100px" viewBox="0 0 100 100" version="1.1" xmlns="http://www.w3.org/2000/svg" xmlns:xlink="http://www.w3.org/1999/xlink">
    <!-- Generator: Sketch 41 (35326) - http://www.bohemiancoding.com/sketch -->
    <title>Artboard 2</title>
    <desc>Created with Sketch.</desc>
    <defs>
        <polygon id="path-1" points="0.000734471259 48.3563778 38.9318689 48.3563778 38.9318689 0.0609183707 0.000734471259 0.0609183707"></polygon>
    </defs>
    <g id="Setup-New" stroke="none" stroke-width="1" fill="none" fill-rule="evenodd">
        <g id="Artboard-2">
            <rect id="Rectangle-9" fill="#3F5762" x="0" y="0" width="100" height="100"></rect>
            <g id="Cat-Dog-Icon" transform="translate(19.000000, 17.742402)">
                <g id="Group-3" transform="translate(0.000000, 13.140695)">
                    <mask id="mask-2" fill="white">
                        <use xlink:href="#path-1"></use>
                    </mask>
                    <g id="Clip-2"></g>
                    <path d="M8.01470978,41.820218 C7.83788757,43.1048445 7.3922956,44.3158603 6.90898156,45.5078798 C6.479893,46.571674 5.89755852,47.4858722 5.26807146,48.3573286 L24.3790158,48.3573286 C23.0705315,46.7616373 22.0756119,44.9807317 21.8870015,42.7415398 C21.8280608,42.0244285 21.7809082,39.0657508 22.5872174,38.5908426 C32.6542952,32.6663635 28.1747993,25.9416642 28.1747993,25.9416642 C27.979116,24.8398773 26.4277958,21.9310649 26.4254382,21.9263159 C26.3240601,21.7411017 27.2270322,19.8319709 27.3024764,19.5850187 C27.7433531,18.1579197 28.1653687,16.7094499 28.5001521,15.256231 C28.7005506,14.3895236 29.2003681,12.8508212 28.1535806,12.3592913 C26.8639573,11.7490343 24.5134007,13.4966963 23.5467726,14.1520695 C22.4174681,14.9190462 21.5003503,15.7002701 20.7435512,16.8068061 C14.165765,12.138459 8.93418526,16.8068061 8.93418526,16.8068061 C7.88739779,15.4509433 4.05153466,13.043159 4.05153466,13.043159 C0.812151788,11.0865375 1.01019266,13.043159 1.01019266,13.043159 C0.710773722,16.8068061 3.25229828,22.6790453 3.25229828,22.6790453 L1.3096116,25.9915296 C-3.7734375,34.1243315 7.58797884,38.640708 7.58797884,38.640708 C8.32591686,38.9327765 8.08779629,41.2788227 8.01470978,41.820218 Z" id="Fill-1" fill="#586F7D" mask="url(#mask-2)"></path>
                </g>
                <path d="M12.7533092,12.4889276 C13.123457,14.2009715 13.2531267,15.9605061 13.2979216,17.7105426 C13.3380013,19.2017542 13.276703,20.6977149 13.2743453,22.1865519 C13.2743453,22.7730635 13.2932064,23.3477023 13.4723862,23.9104685 C13.4959625,23.9840792 13.6492084,24.4542383 13.7859509,24.7154378 L13.7835933,24.7154378 C13.7835933,24.7154378 13.7930238,24.729685 13.8024543,24.7486813 C13.804812,24.7534304 13.8071696,24.755805 13.8071696,24.7581795 C13.9486274,25.019379 14.8539571,26.4607252 16.7872132,24.6560743 L16.7848556,24.6536997 C18.9255831,23.1387427 20.0761063,19.5033209 20.0761063,19.5033209 C21.172404,21.4100771 20.5759238,23.9199666 20.5759238,23.9199666 C20.3731676,24.7130632 20.2340675,25.4444218 20.1562657,26.1187913 C20.7598189,25.5797706 21.3539415,25.1499787 21.8773352,24.7937976 L22.1083829,24.6347034 C23.704498,23.535291 25.5717406,22.3598934 27.5356459,22.3598934 C28.2099279,22.3622679 28.8441303,22.4999913 29.4217495,22.7730635 C31.5247549,23.7656215 32.2131827,25.810101 31.4658142,28.8542622 C31.4469532,28.9349966 31.4280921,29.0086074 31.4115887,29.0774691 C31.0272951,30.7420221 30.5392658,32.3780807 30.1596875,33.6175909 C30.086601,33.8502959 29.9946534,34.0616301 29.8107583,34.4866728 C29.7730363,34.5721563 29.7211684,34.6908833 29.6669429,34.8214831 C30.1243231,35.7451794 30.678366,36.9561952 30.9659968,37.9297569 C31.5577618,39.0410419 32.66349,41.7100257 31.899618,45.0700008 C31.1333885,48.4228523 28.7828319,51.3696574 24.9045314,53.8368052 C24.8432331,54.380575 24.8267297,55.1689225 24.8644517,55.6272089 C25.0554197,57.8877717 26.5737331,59.6259355 28.4692672,61.4970736 L59.9813425,61.4970736 C58.5361156,54.6014073 53.2668138,51.1227051 53.2668138,51.1227051 C46.0901897,45.1008699 46.4886291,39.6797934 46.4886291,39.6797934 C46.2905882,36.8683372 48.1837647,34.5602836 48.1837647,34.5602836 C55.1599902,29.9418019 51.6730563,23.7181307 51.6730563,23.7181307 C49.7775222,19.8048876 51.1732388,16.8937006 51.1732388,16.8937006 C51.3736373,21.8113745 55.3603887,24.119428 55.3603887,24.119428 C58.4488833,25.5251562 57.751025,20.3059156 57.751025,20.3059156 C57.751025,16.2905673 59.1467417,11.8739215 59.1467417,11.8739215 C59.945978,5.74998102 52.769354,3.44192744 52.769354,3.44192744 C49.7775222,2.03619933 48.1837647,4.84765555 48.1837647,4.84765555 C44.2960337,0.428635264 35.3276113,0.730201936 35.3276113,0.730201936 C29.049244,0.530740515 22.9689177,4.84765555 22.9689177,4.84765555 L22.0706608,4.2445222 C20.9908665,2.86966313 18.3149571,3.7838613 16.2213821,4.8215356 C16.2213821,4.8215356 11.7041641,7.06785112 12.303002,10.8837381 C12.3878767,11.4156352 12.6377854,11.9570305 12.7533092,12.4889276" id="Fill-4" fill="#586F7D"></path>
            </g>
        </g>
    </g>
</svg>