<svg id="Layer_1" data-name="Layer 1" xmlns="http://www.w3.org/2000/svg" viewBox="0 0 370 370"><defs><style>.cls-1{fill:#2869e6;}.cls-2{fill:#fff;}</style></defs><rect class="cls-1" width="370" height="370"/><path class="cls-2" d="M258.5,118.15h-.45a12,12,0,0,1,0-24h.45a12,12,0,0,1,0,24Z"/><path class="cls-2" d="M215.86,118.15h-108a12,12,0,0,1,0-24h108a12,12,0,0,1,0,24Z"/><path class="cls-2" d="M197.36,320.42H117.23V189.66A55.75,55.75,0,0,1,172.92,134h87.35a28.72,28.72,0,1,0,0-57.43H105.69A28.74,28.74,0,0,0,77,105.26H50a55.75,55.75,0,0,1,55.69-55.68H260.27a55.69,55.69,0,1,1,0,111.37H172.92a28.75,28.75,0,0,0-28.72,28.71V293.45h26.18v-110h27Z"/></svg>