<svg xmlns="http://www.w3.org/2000/svg" viewBox="0 0 491.15 165.15"><defs><style>.cls-1{fill:#108498;}.cls-2{fill:#fff;}.cls-3{fill:#2feded;opacity:0.65;}</style></defs><g id="Capa_2" data-name="Capa 2"><g id="Capa_1-2" data-name="Capa 1"><rect class="cls-1" width="491.15" height="165.15" rx="15.91"/><path class="cls-2" d="M342.67,83.7a19.2,19.2,0,0,1,3.69,6.17,17.86,17.86,0,0,1-.2,12.17,17.63,17.63,0,0,1-9,9.68,17.61,17.61,0,0,1-19.26,16.74,17.41,17.41,0,0,1-12.19-6.59,18.5,18.5,0,0,1-3.75-10.68,25.26,25.26,0,0,0-12.64,2.38c-5.6,2.66-10.25,6.84-14.83,10.93a17.92,17.92,0,0,1-7.21,4.31,12.86,12.86,0,0,1-8.11-.19,14.13,14.13,0,0,1-8.47-9A14.35,14.35,0,0,1,239.6,113c-1-1.75-1.87-4-1.09-6a83.37,83.37,0,0,0,3-12.77c.73-5.16,1.24-10.44.45-15.62a15.79,15.79,0,0,1-13.78,0,15.57,15.57,0,0,1,2-28.71A10.52,10.52,0,0,1,232.64,44,10.34,10.34,0,0,1,239,40.61a19.45,19.45,0,0,1,26.33-9,23.3,23.3,0,0,1,26.91,7A22.37,22.37,0,0,1,310,35.69,21.69,21.69,0,0,1,322,44c.17.38.61.33.94.39A26.28,26.28,0,0,1,342.67,83.7Zm-6-26.89A21.38,21.38,0,0,0,321.36,49a2.81,2.81,0,0,1-2.66-1.37A16.79,16.79,0,0,0,308,40.05a17.5,17.5,0,0,0-13.35,2.5,23.11,23.11,0,0,1,2.47,11.16,15.59,15.59,0,0,1,9.3,19.69,17.39,17.39,0,0,1-2.22,4.25,16,16,0,0,1,.9,10.41c.69,1,.39,2.21.31,3.33a5.93,5.93,0,0,0,2.39,5.42c1,.87,2.51,1.06,3.09,2.32a2.41,2.41,0,0,1-.65,2.82,12.93,12.93,0,0,0-3.46,10.92,12.77,12.77,0,0,0,6.26,9.25,13,13,0,0,0,12.53.21,12.87,12.87,0,0,0,6.82-11.19,3.41,3.41,0,0,1,.64-2.64,10.38,10.38,0,0,1,2.43-1.26,12.91,12.91,0,0,0,3.42-20.59c-.67-.68-1.59-1.32-1.63-2.37a3.69,3.69,0,0,1,.93-2.34,21.52,21.52,0,0,0-1.57-25.13Zm-67.09-21.7a34.67,34.67,0,0,0-3.86,1.37,2.92,2.92,0,0,1-2.35-.57,14.39,14.39,0,0,0-13-.37A14.07,14.07,0,0,0,243,43.09a3.53,3.53,0,0,1-1.12,1.77c-.91.62-2.08.29-3.09.6a5.26,5.26,0,0,0-3.93,4.78c0,.95.27,2-.38,2.84-.75,1.05-2.16,1-3.25,1.43a10.85,10.85,0,1,0,14,13.84,2.37,2.37,0,0,1,2.43-1.73c1,0,1.62.84,2.32,1.39a10.74,10.74,0,0,0,11.55,1.37c.86-.4,1.75-1.09,2.76-.79s1.88,1,2.88,1.3a7.82,7.82,0,0,1,2,.94,3.86,3.86,0,0,1,.92,2,6.66,6.66,0,0,0,6.33,4.9,3.58,3.58,0,0,1,2.32.48,2.36,2.36,0,0,1,.8,2.74,10.6,10.6,0,0,0,.76,8.11,11.27,11.27,0,0,0,5.77,5.18,11,11,0,0,0,11.18-2.1,10.9,10.9,0,0,0,3-11.36c-.29-1-.9-1.94-1.26-2.94a2.9,2.9,0,0,1,1-2.68,10.81,10.81,0,0,0-5-17.18,4.39,4.39,0,0,1-2.25-1.08,2.79,2.79,0,0,1-.5-2.28,18.34,18.34,0,0,0-22.79-19.54Zm31.58,60a15.83,15.83,0,0,1-11.47,4.62,15.59,15.59,0,0,1-12.9-7.48,26.11,26.11,0,0,0-8.85,6.09,39.89,39.89,0,0,0-7.82,13.21,19.6,19.6,0,0,1-2.31,4.87,9.9,9.9,0,0,1-2.5,2.24,10.33,10.33,0,0,0,3.34,4.49c1.8,2.06,3.55,1.9,4.44,1.6a11.13,11.13,0,0,0,7.63-3.14,91.24,91.24,0,0,1,12.56-10,32.16,32.16,0,0,1,11.27-4.59,30.8,30.8,0,0,1,8-.42,18.67,18.67,0,0,1,2.7-5.79A11.3,11.3,0,0,1,301.13,95.06ZM274.55,82.3a11.89,11.89,0,0,1-4.55-2,63.56,63.56,0,0,0-9.78,7.9c-.86.81-1.46,1.85-2.31,2.67a2.37,2.37,0,0,1-3.39-.71c-.7-1.11-.06-2.43-.07-3.63.17-4.17-.69-8.57-3.26-12-.64-1-1.81-1.33-2.75-1.94a24.33,24.33,0,0,1-2.32,3c1.26,5.27,1,10.76.45,16.1a90.25,90.25,0,0,1-3.49,16.44,2.52,2.52,0,0,0,.38,2.07,9.34,9.34,0,0,0,2.73,3c1.09,1.3,1.17,2.49,4.43,1.7a4.31,4.31,0,0,0,2.69-.75c1.12-.84,1.51-2.24,2-3.47A46.12,46.12,0,0,1,263.62,96a31.68,31.68,0,0,1,11.32-8.17A17.92,17.92,0,0,1,274.55,82.3Zm-8.88-7.92c-.78-.3-1.62-1.11-2.48-.56A15.82,15.82,0,0,1,257,75.2a25.71,25.71,0,0,1,2.06,7.67,75.18,75.18,0,0,1,7.71-6.05A24.34,24.34,0,0,1,265.67,74.38Z"/><path class="cls-3" d="M332.14,59.94c-2.19-2.89-5.22-5.38-8.84-6.12a2.45,2.45,0,0,0-2.83,1.24,2.33,2.33,0,0,0,1.28,3.22,10.84,10.84,0,0,1,3,1.15,14.5,14.5,0,0,1,6.29,9.38,7.87,7.87,0,0,1-2.08,7c-.66.68-1.65,1.21-1.79,2.24a2.37,2.37,0,0,0,2.3,2.78,3.53,3.53,0,0,0,2.43-1.31,12.07,12.07,0,0,0,3.89-7.65A17.21,17.21,0,0,0,332.14,59.94Z"/><path class="cls-3" d="M285.15,44.82a13.73,13.73,0,0,0-11.55-5.06,7.26,7.26,0,0,0-2.83.72,2.37,2.37,0,0,0,.15,3.93c1.07.72,2.31,0,3.47,0,3.91-.05,8,2.74,8.57,6.79a12.69,12.69,0,0,1-.27,3.88,2.36,2.36,0,0,0,3.36,2.12c1.15-.49,1.37-1.82,1.53-2.92A12.21,12.21,0,0,0,285.15,44.82Z"/><path class="cls-1" d="M214.7,117.43,206.45,103l-17.86-8.93L184.46,76.2l4.81-4.81-11.33-6.53-1.72-16.49,6.87-6.53-1-16.83,12.37-10,13.4-.35L218.48,24l3.78,2.4L237,32.57l2.06,14.08L236,54.56l11.68,5.84,1.38,10.31L244.25,90,246,106.09S227.41,115,226.38,115,214.7,117.43,214.7,117.43Z"/><path class="cls-2" d="M250.35,78.39A24,24,0,0,0,252,75.14a16.75,16.75,0,0,0,.23-11,17.52,17.52,0,0,0-8.83-10.45,17,17,0,0,0-4.85-1.61,17.51,17.51,0,0,0,3.5-8.75,17.37,17.37,0,0,0-10.32-17.83,17.14,17.14,0,0,0-7.51-1.46c-3.14-.18-3.84-.71-5-2.8a21.78,21.78,0,0,0-12.42-9.49,22.36,22.36,0,0,0-13.51.42,23.34,23.34,0,0,0-6.34,3.61,21.53,21.53,0,0,0-7.83,14.65,22.55,22.55,0,0,0,.32,6.35c.37,2.17,1.09,3.68-1.83,5.51a17.62,17.62,0,0,0-5.4,8.73,17,17,0,0,0,.9,11.28,17.42,17.42,0,0,0,8.66,8.89,18.37,18.37,0,0,0,4.34,1.35,17.68,17.68,0,0,0-3.58,11.3,17.43,17.43,0,0,0,8.43,14.29,20.07,20.07,0,0,0,4.5,1.83c.69.22,1.39.44,2.06.69.22.09.43.2.65.3l-1-5.71-.19-.06a14.15,14.15,0,0,1-3.81-1.53,12.5,12.5,0,0,1-3.67-17.26,20.82,20.82,0,0,1,3-3.45c.3-.29.59-.57.87-.86a3.07,3.07,0,0,0,1-1.61,2.39,2.39,0,0,0-.44-1.91,2.42,2.42,0,0,0-1.67-1h-.38a9.51,9.51,0,0,0-1.31.11l-.73.08a12.4,12.4,0,0,1-13.2-12.85,12.58,12.58,0,0,1,6.92-10.61l.47-.22a3.23,3.23,0,0,0,2-1.67,3.39,3.39,0,0,0-.37-2.76l-.12-.28a16.63,16.63,0,0,1,18-23.21,16.66,16.66,0,0,1,11,7.21A17.6,17.6,0,0,1,216,26c.12.25.23.5.35.73a3.59,3.59,0,0,0,2,1.64q.38.18.75.39a4,4,0,0,0,2.72.65,12.68,12.68,0,0,1,9.95,1.87,12.22,12.22,0,0,1,5,7.11,12.4,12.4,0,0,1-4.57,13l-.43.31a3.44,3.44,0,0,0-1.61,1.9,2.36,2.36,0,0,0,.35,2,2.33,2.33,0,0,0,1.73,1.07c.74.07,1.49.1,2.22.13a19.22,19.22,0,0,1,4.2.45A12.54,12.54,0,0,1,246.76,64a12,12,0,0,1,.65,9,15.15,15.15,0,0,1-1.38,2.8c-.25.43-.5.86-.73,1.31a32.2,32.2,0,0,0-2.93,21.17,31.69,31.69,0,0,0,1.92,6.11l.13.32-4.14,1.62q-3.54,1.37-7.07,2.76l-3.11-8q-2.76-7.09-5.54-14.19,3.19-7.78,6.4-15.55l2.47-6a2.88,2.88,0,0,0,.21-1.93,2.45,2.45,0,0,0-1.17-1.5,2.4,2.4,0,0,0-1.85-.24,2.7,2.7,0,0,0-1.85,1.82l-.87,2.12-6,14.54q-2.49-6.39-5-12.75l-1.67-4.29c1.68-4.12,3.38-8.23,5.07-12.34q1.91-4.62,3.8-9.24a2.7,2.7,0,0,0,0-2.42,2.49,2.49,0,0,0-3.36-1,2.92,2.92,0,0,0-1.31,1.61q-3.42,8.32-6.86,16.66l-1.36-3.48c-2.34-6-5.7-14.59-7.19-18.48-.11-.26-.22-.54-.34-.78a2.53,2.53,0,0,0-.42-.64,2.36,2.36,0,0,0-1.45-.85,2.19,2.19,0,0,0-1.52.22,2.15,2.15,0,0,0-1,.93l0,.09.33.17-.38-.08a2.44,2.44,0,0,0-.25,1.26c0,.09,0,.17,0,.31a4.13,4.13,0,0,0,.24.85l5.34,13.68L208,58.19l-16.33-7.62a2.68,2.68,0,0,0-2.54-.1,2.35,2.35,0,0,0-1.24,1.44,2.43,2.43,0,0,0,.14,1.88,2.94,2.94,0,0,0,1.47,1.3l8.09,3.77q6.52,3,13,6.09,1.85,4.76,3.71,9.51L217.25,82l-7.81-3.64-8.66-4a2.67,2.67,0,0,0-2.43,0,2.47,2.47,0,0,0-1.21,1.45,2.45,2.45,0,0,0,.15,1.87,3,3,0,0,0,1.46,1.29l8.91,4.15,12.23,5.71,8.65,22.17-5,2-6.17,2.41a32.4,32.4,0,0,0-7-11.71L210,105l-3.35,2.08a27.56,27.56,0,0,1,3.69,4.88c2.74,6.37,1.78,3.6,3.59,8.3a3.37,3.37,0,0,0,2.06.8,2.78,2.78,0,0,0,.75-.11l32-12.51a2.76,2.76,0,0,0,1.36-1.71c1.11-4.15-.71-2.4-2.8-9.14A27.3,27.3,0,0,1,249,80.94,27.88,27.88,0,0,1,250.35,78.39ZM199.59,33.57Z"/><path class="cls-2" d="M136.83,66.23C138.61,74,146.21,79.64,154,79.64a16,16,0,0,0,3.15-.32c.38-.11.79-.2,1.21-.29,1.57-.34,3.36-.73,4.25-2.25l0-.17c.54-7.8-5.43-15.62-13.32-17.43a17.41,17.41,0,0,0-12.07,1.47c-1.45,1.17-1,3-.7,4.49C136.69,65.51,136.77,65.87,136.83,66.23Zm4.83-1.86a12.57,12.57,0,0,1,11,1.94A12.86,12.86,0,0,1,157.49,74a13,13,0,0,1-10.17-1.5A13.18,13.18,0,0,1,141.66,64.37Z"/><path class="cls-2" d="M198.92,99.49c-1.35-7.58-5.79-14-11.88-17.29a19.48,19.48,0,0,0-12.74-2.12,48,48,0,0,0-5.17,1.2c-1.31.36-2.65.73-4,1a19.31,19.31,0,0,1,3-10.68v0c.08-.14.18-.28.27-.43.56-.86,1.19-1.83.77-3a2.55,2.55,0,0,0-2.06-1.69,2.34,2.34,0,0,0-2.33.87,24.88,24.88,0,0,0-4.91,14.9c-1.45-.28-2.9-.68-4.31-1.06a30.39,30.39,0,0,0-8.54-1.5,20.14,20.14,0,0,0-14.75,6.51,27,27,0,0,0-7.07,17.38c-.35,6.37,1.08,13.23,4.38,21,2.55,6,6,12.6,11.89,16.83a19.22,19.22,0,0,0,11.11,3.8h.31a34.42,34.42,0,0,0,5.48-.6l1.85-.29a20.66,20.66,0,0,1,6.42.37,30,30,0,0,0,5,.51c4.71.13,9.73-2,13.72-5.84,4.46-4.26,7.18-9.81,9.59-15.12C199,115.14,200.3,106.83,198.92,99.49Zm-10.44,26.39c-2.55,5.08-6.28,11.2-12.59,13.43-2.71,1.08-5.63.61-8.45.15-1.06-.17-2.15-.35-3.21-.44a27.05,27.05,0,0,0-7.63.54c-.72.12-1.44.24-2.17.34a14,14,0,0,1-10.54-3.23c-4.47-3.54-7.17-8.79-9.41-13.94-3.54-8.14-4.77-15.23-3.78-21.67,1-6.24,4.39-11.57,9.11-14.26h0a14.35,14.35,0,0,1,7.28-2,13.27,13.27,0,0,1,2.81.29c1.44.28,2.9.67,4.3,1a29.43,29.43,0,0,0,9.4,1.47,33.56,33.56,0,0,0,7.62-1.45c1.23-.33,2.5-.68,3.77-.94a14.59,14.59,0,0,1,13.09,4.08,21.55,21.55,0,0,1,6.16,15.34C194.48,112.69,191.29,120.22,188.48,125.88Z"/><path class="cls-1" d="M190.48,126.88c-2.55,5.08-6.28,11.2-12.59,13.43-2.71,1.08-5.63.61-8.45.15-1.06-.17-2.15-.35-3.21-.44a27.05,27.05,0,0,0-7.63.54c-.72.12-1.44.24-2.17.34a14,14,0,0,1-10.54-3.23c-4.47-3.54-7.17-8.79-9.41-13.94-3.54-8.14-4.77-15.23-3.78-21.67,1-6.24,4.39-11.57,9.11-14.26h0a14.35,14.35,0,0,1,7.28-2,13.27,13.27,0,0,1,2.81.29c1.44.28,2.9.67,4.3,1a29.43,29.43,0,0,0,9.4,1.47,33.56,33.56,0,0,0,7.62-1.45c1.23-.33,2.5-.68,3.77-.94a14.59,14.59,0,0,1,13.09,4.08,21.55,21.55,0,0,1,6.16,15.34C196.48,113.69,193.29,121.22,190.48,126.88Z"/><path class="cls-1" d="M141.66,64.37a12.57,12.57,0,0,1,11,1.94A12.86,12.86,0,0,1,157.49,74a13,13,0,0,1-10.17-1.5A13.18,13.18,0,0,1,141.66,64.37Z"/><path class="cls-3" d="M144.52,91l0,0a2.39,2.39,0,0,1,2.57,0,2.51,2.51,0,0,1,1.3,2.35,2.62,2.62,0,0,1-1,1.93c-.14.14-.29.29-.44.47a13.71,13.71,0,0,0-3.77,12.48c0,.22.07.45.11.68a2.86,2.86,0,0,1-.31,2.58,2.43,2.43,0,0,1-2.06,1.06l-.3,0a2.45,2.45,0,0,1-2.07-1.52A18.82,18.82,0,0,1,144.52,91Z"/><path class="cls-2" d="M279.55,126.51a47.23,47.23,0,0,0-7.15-9l-5.91-5.28a78.87,78.87,0,0,0-9.45-6.48c-7.84-4.58-20.21-10-34.65-10h-.11a61.82,61.82,0,0,0-11.85,1.07l-5.94,1.29c-20.8,5.39-36.49,18.63-42.3,28.71l-2.45,5.87a13.22,13.22,0,0,0-.39,3.19,8.5,8.5,0,0,0,3.48,7c2.17,1.59,5.25,2.4,9.17,2.4h98c7.19,0,10.24-2.71,11.53-5C282.9,137.85,283.69,133.48,279.55,126.51Zm-80.77-20.74c-.83,6.72-2.92,10.34-4.47,10.34-1.15,0-2.87-2.2-3.91-7l-.08-.38.34-.17a76.62,76.62,0,0,1,7.44-3.3l.78-.29Zm23.49,12.59a1.49,1.49,0,0,1-2.56,0c-2.27-2.45-3.72-9.43-3.53-17l0-.45.44,0c1.53-.14,5.37-.27,5.74-.27,1,0,1.92,0,2.93.08l.46,0,0,.46C226,108.82,224.57,115.87,222.27,118.36Zm29.37-9.56c-1,5-2.79,7.31-4,7.31-1.62,0-3.75-4-4.52-10.75l-.09-.82.77.3a73.63,73.63,0,0,1,7.55,3.42l.33.18Zm-35.55,12.92a6.38,6.38,0,0,0,9.81,0c3.73-4,4.94-12.88,4.83-19.81v-.59l.59.09h0a62.2,62.2,0,0,1,6.35,1.4l.34.1,0,.35c.26,4.18,1.71,17.8,9.65,17.8,3.78,0,6.75-3.33,8.36-9.38l.17-.65.58.36a71.18,71.18,0,0,1,11.27,8.77,43.66,43.66,0,0,1,7.27,8.88c2.22,3.74,2.93,7,1.91,8.84-.93,1.63-3.44,2.49-7.25,2.49H172c-5.1,0-7.7-1.53-7.72-4.55-.05-4.65,5-13,16.42-21.22,1.44-1,3-2,4.56-3l.56-.35.18.64c1.62,5.93,4.57,9.19,8.31,9.19,3.23,0,5.84-2.37,7.54-6.84a37.68,37.68,0,0,0,2.07-10.55l0-.35.34-.09c2.1-.59,4.24-1.09,6.36-1.47l.6-.11v.6C211.18,109.05,212.42,117.76,216.09,121.72Z"/><path class="cls-1" d="M198.78,105.77c-.83,6.72-2.92,10.34-4.47,10.34-1.15,0-2.87-2.2-3.91-7l-.08-.38.34-.17a76.62,76.62,0,0,1,7.44-3.3l.78-.29Z"/><path class="cls-1" d="M222.27,118.36a1.49,1.49,0,0,1-2.56,0c-2.27-2.45-3.72-9.43-3.53-17l0-.45.44,0c1.53-.14,5.37-.27,5.74-.27,1,0,1.92,0,2.93.08l.46,0,0,.46C226,108.82,224.57,115.87,222.27,118.36Z"/><path class="cls-1" d="M251.64,108.8c-1,5-2.79,7.31-4,7.31-1.62,0-3.75-4-4.52-10.75l-.09-.82.77.3a73.63,73.63,0,0,1,7.55,3.42l.33.18Z"/><path class="cls-1" d="M216.09,121.72a6.38,6.38,0,0,0,9.81,0c3.73-4,4.94-12.88,4.83-19.81v-.59l.59.09h0a62.2,62.2,0,0,1,6.35,1.4l.34.1,0,.35c.26,4.18,1.71,17.8,9.65,17.8,3.78,0,6.75-3.33,8.36-9.38l.17-.65.58.36a71.18,71.18,0,0,1,11.27,8.77,43.66,43.66,0,0,1,7.27,8.88c2.22,3.74,2.93,7,1.91,8.84-.93,1.63-3.44,2.49-7.25,2.49H172c-5.1,0-7.7-1.53-7.72-4.55-.05-4.65,5-13,16.42-21.22,1.44-1,3-2,4.56-3l.56-.35.18.64c1.62,5.93,4.57,9.19,8.31,9.19,3.23,0,5.84-2.37,7.54-6.84a37.68,37.68,0,0,0,2.07-10.55l0-.35.34-.09c2.1-.59,4.24-1.09,6.36-1.47l.6-.11v.6C211.18,109.05,212.42,117.76,216.09,121.72Z"/><path class="cls-2" d="M373.83,107.54h0a9.17,9.17,0,0,0-10.46-5.73l-1.32.26.28-1.31A9.11,9.11,0,0,0,356,90.09a9,9,0,0,0-7.26,1,9.77,9.77,0,0,0-3.06,3.08c-.89,1.36-1.77,2.73-2.66,4.1l-2.21,3.41-.75-.6a24.85,24.85,0,0,0-18.9-5.18,65,65,0,0,0-11.46,3.31l-1.87.66q-6.71,2.52-13.22,5.31c-7.7,3.29-15.16,6.82-22.29,10.57a143.1,143.1,0,0,0-15,9c-3,2.22-6,4.51-8.12,7.51l-.38.61a6.26,6.26,0,0,0,2.62,9.19c3.2,1.88,6.91,2.68,10.44,3.33l1.76.26c1.47.23,3.14.48,4.76.61a226.82,226.82,0,0,0,24.8.82c10.89-.22,20.46-.82,29.26-1.82,4-.49,8.18-1,11.92-2.6a19.38,19.38,0,0,0,2.09-1,25,25,0,0,0,10.46-11.18l.41-.86.82.48c.95.56,1.89,1.13,2.83,1.7,1.41.85,3,1.82,4.57,2.69a9,9,0,0,0,7.59.61,9.37,9.37,0,0,0,4.56-3.68l.19-.29A9.32,9.32,0,0,0,367,120.9l-.87-1.06,1.32-.35a9.35,9.35,0,0,0,5.16-3.51A9.14,9.14,0,0,0,373.83,107.54Zm-12.66-.21,2.45-.57a5.47,5.47,0,0,1,2.5-.19h0a4.14,4.14,0,0,1,3.34,3.68,4.21,4.21,0,0,1-3.35,4.54l-3.63.85-2.18.5a4.22,4.22,0,0,0-2.42,1.07,2.35,2.35,0,0,0-.57,1.77,2.26,2.26,0,0,0,.83,1.64,22.35,22.35,0,0,0,2.18,1.36,24,24,0,0,1,2.24,1.39,4.18,4.18,0,0,1-4.63,6.92c-1.76-1-3.53-2.09-5.09-3l-.19-.11-3.42-2.05-.52-.3.1-.59a24.74,24.74,0,0,0-4.26-18.34l-.35-.48,2.61-4c.92-1.43,1.85-2.86,2.76-4.29a5.23,5.23,0,0,1,1.68-1.83,4.24,4.24,0,0,1,5.09.53,4.19,4.19,0,0,1,.77,5c-.38.66-.8,1.3-1.22,1.91v0c-.47.7-.92,1.36-1.3,2.05a2.43,2.43,0,0,0,.64,2.93,2.52,2.52,0,0,0,2.25.47Zm-38,10.53a2.47,2.47,0,0,0,.39-2.06c-.75-3.25-1.51-6.5-2.26-9.74L320.15,101l.91-.16a19.66,19.66,0,0,1,7.26,38.64c-3.56.71-7.2,1.09-10.72,1.45l-.16,0a325.37,325.37,0,0,1-36.26,1.25c-4.59-.13-9.06-.41-13.3-.84l-.46-.06a53.63,53.63,0,0,1-11.08-2.23,9.7,9.7,0,0,1-3.49-2l-.44-.42.24-.56a13.18,13.18,0,0,1,3.53-4.3,79.3,79.3,0,0,1,11.43-7.89c2.82-1.65,5.89-3.32,9.66-5.28l1-.52.26,1.09c.23,1,.45,1.9.67,2.85l0,.07c.32,1.39.61,2.65.93,3.95a2.38,2.38,0,0,0,1.12,1.46,2.34,2.34,0,0,0,1.85.26,2.42,2.42,0,0,0,1.77-1.93,3.62,3.62,0,0,0-.12-1.45q-.69-2.91-1.36-5.82l-.63-2.71.64-.3c3.79-1.79,8.1-3.82,12.36-5.62l1-.4.22,1c.47,2.11,1,4.26,1.47,6.34l0,.13c.33,1.4.66,2.81,1,4.26a2.52,2.52,0,0,0,2,2,2.43,2.43,0,0,0,2.67-1.42,2.61,2.61,0,0,0,.1-1.74c-.36-1.52-.71-3.05-1.07-4.58l-.1-.46c-.52-2.21-1-4.5-1.58-6.74l-.18-.73.7-.29c4.63-1.86,8.75-3.4,12.58-4.71l.92-.31.22.94c.49,2.12,1,4.23,1.48,6.35l.06.26c.51,2.2,1,4.4,1.55,6.66a2.73,2.73,0,0,0,1.49,2.07A2.43,2.43,0,0,0,323.21,117.86Z"/><path class="cls-1" d="M343.94,124.33a19.76,19.76,0,0,1-15.6,15.27c-3.56.71-7.2,1.09-10.73,1.46h-.16a323.32,323.32,0,0,1-36.27,1.25c-4.59-.13-9.06-.41-13.31-.84l-.47-.06a53.28,53.28,0,0,1-11.11-2.24,9.64,9.64,0,0,1-3.53-2l-.5-.48.27-.64a13.46,13.46,0,0,1,3.57-4.35,80.36,80.36,0,0,1,11.45-7.9c2.81-1.64,5.88-3.32,9.66-5.29l1.14-.59.29,1.25c.24,1,.46,2,.69,2.92.3,1.31.61,2.63.93,3.95a2.24,2.24,0,0,0,1.07,1.38,2.19,2.19,0,0,0,1.74.25,2.32,2.32,0,0,0,1.69-1.83,3.25,3.25,0,0,0-.13-1.4l-1.35-5.82-.65-2.81.72-.34c3.51-1.66,7.45-3.52,11.41-5.22l1-.4,1.11-.47.26,1.18c.47,2.16,1,4.31,1.49,6.47.33,1.4.67,2.81,1,4.26a2.37,2.37,0,0,0,1.86,1.89,2.33,2.33,0,0,0,2.54-1.34,2.56,2.56,0,0,0,.09-1.66c-.36-1.53-.71-3.06-1.07-4.58-.56-2.41-1.11-4.81-1.69-7.2l-.2-.84.8-.32c4.64-1.86,8.75-3.4,12.59-4.72l1.05-.35.25,1.07q.76,3.32,1.54,6.61c.51,2.2,1,4.4,1.55,6.66a2.61,2.61,0,0,0,1.42,2,2.32,2.32,0,0,0,3.17-2.7q-1.25-5.37-2.5-10.74l-1-4.19,1-.19a19.78,19.78,0,0,1,22.91,23.62Z"/></g></g></svg>