<svg xmlns="http://www.w3.org/2000/svg" viewBox="0 0 600 600"><defs><style>.cls-1{fill:#45b2ff;}.cls-10,.cls-2{fill:#fff;}.cls-3{fill:#ccc;}.cls-4{fill:#4d4d4d;}.cls-5{fill:#a0afba;}.cls-6{fill:#697c8a;}.cls-7{fill:#b3b3b3;}.cls-8{fill:gray;}.cls-10,.cls-9{fill-rule:evenodd;}.cls-10{stroke:#000;stroke-miterlimit:22.93;stroke-width:0.57px;}</style></defs><g id="Layer_1" data-name="Layer 1"><path class="cls-1" d="M510.72,268.42c-6.46-12.89-15.14-20.86-24.49-20.86s-18,8-24.5,20.86c-6.83,13.62-11.06,32.52-11.06,53.49s4.23,39.87,11.06,53.49c6.46,12.89,15.14,20.86,24.5,20.86s18-8,24.49-20.86c6.83-13.62,11.06-32.52,11.06-53.49s-4.23-39.87-11.06-53.49Z"/><path class="cls-1" d="M111.69,225.62l-.22,0c-4.3-.5-8.93,4.52-13.37,12.87a134.05,134.05,0,0,0-9.71,25.34,268.09,268.09,0,0,0-7,32.2c-5.87,37.49-5.09,76.7,8.59,81.44a3.54,3.54,0,0,1,.53.23h.17a11.71,11.71,0,0,0,2.1-2.58c2-2.79,4-7.2,6.18-12.94,4.67-12.64,9.26-31.22,12.66-52.75s5-42.13,4.77-57.76c-.2-14.18-1.59-23.87-4.14-25.9a5.23,5.23,0,0,0-.54-.12Z"/><path class="cls-2" d="M426,259a71.72,71.72,0,0,1,10.59-12.89c-.23-9.88-1.51-31-4.62-47.28-1.89-9.94-4.25-17.82-7-19.3a1.23,1.23,0,0,0-.48-.1c-3.74-.21-10.58,5.07-17.62,12.29-7.46,7.65-14.8,17.35-19,25.35a35,35,0,0,0-3.13,7.53,200,200,0,0,1,24.78,18A155,155,0,0,1,426,259Z"/><path class="cls-3" d="M426,259a74.83,74.83,0,0,1,6.39-8.5c-10.37-10.65-22.25-22.37-21.67-34.77.88-18.57,18.9-27.07,18.9-27.07-1.39-4.82-3-8.21-4.68-9.13a1.23,1.23,0,0,0-.48-.1c-3.74-.21-10.58,5.07-17.62,12.29-7.46,7.65-14.8,17.35-19,25.35a35,35,0,0,0-3.13,7.53,200,200,0,0,1,24.78,18A155,155,0,0,1,426,259Z"/><path class="cls-4" d="M480.66,402.59c-9.93-2.41-18.68-11.16-25.16-24.08-7.3-14.56-11.82-34.58-11.82-56.6s4.52-42,11.82-56.6c6-11.91,13.87-20.28,22.85-23.4l-.7-.24a32.43,32.43,0,0,0-10.53-1.78,32.86,32.86,0,0,0-13.24,2.84,3.47,3.47,0,0,1-1.85.87c-7.83,3.94-14.89,10.87-20.64,20-9.56,15.09-15.48,36-15.48,59.17s5.92,44.08,15.48,59.17c9.26,14.61,21.9,23.65,35.73,23.65a32.65,32.65,0,0,0,12-2.33c.5-.19,1-.4,1.5-.62Z"/><path class="cls-2" d="M507.76,291.72c-2.41-6.6-5.32-10.69-8.17-10.69s-5.75,4.09-8.16,10.69c-2.8,7.66-4.52,18.33-4.52,30.19s1.72,22.53,4.52,30.19c2.41,6.6,5.32,10.69,8.16,10.69s5.76-4.09,8.17-10.69c2.79-7.66,4.52-18.33,4.52-30.19s-1.73-22.53-4.52-30.19Z"/><path class="cls-2" d="M158.78,242.7l.05.21a112.48,112.48,0,0,1,15.14-13A132.45,132.45,0,0,1,196.2,217c-2.75-8.59-11.11-33.23-16.95-34.42-2.06-.09-5.83,8.2-9.65,18.63a250.33,250.33,0,0,0-9.87,35.57c-.44,2.3-.77,4.31-.95,5.92Z"/><path class="cls-3" d="M158.78,242.7l.05.21a112.48,112.48,0,0,1,15.14-13A132.45,132.45,0,0,1,196.2,217c-2.75-8.59-11.11-33.23-16.95-34.42-1.21-.05-3,2.81-5.09,7.3,2.71,4.94,7.9,16.86,1.67,27-4.88,7.91-11.12,14.08-16.3,21-.34,1.86-.59,3.5-.75,4.86Z"/><path class="cls-2" d="M101.07,259a26.24,26.24,0,0,0-2.57,4.49,79.24,79.24,0,0,0-4.74,13.17C92.28,282,91,288.06,89.84,294.34c-3.54,20.1-5.07,41.92-1.47,47a39.15,39.15,0,0,0,2.12-5.27c2.49-7.37,5.17-19,7.32-32.63A271.15,271.15,0,0,0,101.14,271a99.87,99.87,0,0,0-.07-11.95Z"/><path class="cls-5" d="M404.67,161a3,3,0,0,1-.58.43q-2.14,1.62-4.34,3.44c-14.56,12.1-29.6,30.33-38.36,45a3.5,3.5,0,0,1-4.42,1.39c-21.22-9.62-42.41-14.62-63.57-15.24s-42.38,3.14-63.59,11a3.5,3.5,0,0,1-4.46-2c-.85-2-22.22-52.47-43.92-47.41-5.21,1.21-10.17,8.95-14.61,19.73-6,14.65-10.7,34.55-13.81,52.11.29.39.57.79.85,1.21a261.46,261.46,0,0,1,9.19-31.86C167.93,185.49,174,175,180,175.65l.5.07c11.29,2.15,23.24,42.08,23.27,42.19a3.48,3.48,0,0,1-2,4.24A127.19,127.19,0,0,0,178,235.52a102.71,102.71,0,0,0-17.59,16q.57,4.11.85,8.63c1,15.91-.44,35.48-3.55,54.46s-7.91,37.48-13.63,51.18c-6,14.23-13.22,23.66-21.21,24.16h-.18a102.58,102.58,0,0,1-4.88,10.84A94,94,0,0,1,111.63,411a31.37,31.37,0,0,0,9.33,8.45,58.58,58.58,0,0,0,14.24,5.88,3.49,3.49,0,0,1,.61,6.48A68.57,68.57,0,0,1,123,438.15a51.18,51.18,0,0,1-6.39,1.84c16.27,16.76,39.08,31,63.24,41.76,29.89,13.27,61.74,21.1,85.84,21.52,25.94.45,63.46-5.17,102.44-16,31.41-8.72,63.73-20.82,91.68-35.83-4.76-2.21-7.91-5.92-12.41-11.22l-.82-1a3.49,3.49,0,0,1,3.24-5.69,41.27,41.27,0,0,0,14.21.28,28.89,28.89,0,0,0,9.72-3.68c-1.23-2.93-2.35-5.85-3.39-8.75s-2-5.92-2.92-8.89h-.29c-16.39,0-31.1-10.29-41.63-26.91-10.24-16.16-16.57-38.4-16.57-62.91,0-21.8,5-41.81,13.32-57.34a144.83,144.83,0,0,0-17.34-17.5,195.33,195.33,0,0,0-25.84-18.53,3.47,3.47,0,0,1-1.67-3.17h0c.18-3.35,1.75-7.65,4.24-12.34,4.54-8.56,12.33-18.88,20.21-27,8.31-8.53,17.05-14.73,23-14.4a8.06,8.06,0,0,1,3.35.9c5,2.65,8.38,12.35,10.63,24.18,2.7,14.16,4.06,31.83,4.55,43.06A48.81,48.81,0,0,1,448,237.8c-.47-20.13-3.22-40.6-7.26-56.66-3.88-15.41-8.65-26.4-13.32-28.33-5.38-2.23-13.67,1.43-22.76,8.16Z"/><path class="cls-6" d="M126.39,436.79c-1.14.49-2.28.95-3.42,1.36a51.18,51.18,0,0,1-6.39,1.84c16.27,16.76,39.08,31,63.24,41.76,29.89,13.27,61.74,21.1,85.84,21.52,25.94.45,63.46-5.17,102.44-16,31.41-8.72,63.73-20.82,91.68-35.83-4.76-2.21-7.91-5.92-12.41-11.22l-.82-1a3.49,3.49,0,0,1,3.24-5.69,41.27,41.27,0,0,0,14.21.28,28.89,28.89,0,0,0,9.72-3.68c-1.23-2.93-2.35-5.85-3.39-8.75s-2-5.92-2.92-8.89h-.29c-15,0-28.58-8.61-38.85-22.8-.22,26.51-4,38.83-4,38.83-99.6,70.72-196.33,83.84-297.87,8.22ZM412.82,290.24a108.19,108.19,0,0,1,9.42-24.86,144.83,144.83,0,0,0-17.34-17.5,195.33,195.33,0,0,0-25.84-18.53l-.4-.28c4.08,5.07,21.56,27.89,34.16,61.17Z"/><path class="cls-2" d="M267.63,382.93c44.88,1.09,81.26,33.48,81.26,59.3s-36.38,35.31-81.26,34.21-81.26-12.34-81.26-38.17,36.38-56.43,81.26-55.34Z"/><path class="cls-7" d="M202.31,158.18c11.74-8.38,27.13-16.1,47.27-21.56,17.48-4.74,38.61-7.79,64.12-8.12H314c20.23,1.36,37.87,4.44,52.72,8.87,14.62,4.37,26.59,10,35.69,16.71,10.36-7.22,20.26-10.8,27.7-7.72,6.88,2.85,13.05,15.62,17.44,33.08a274,274,0,0,1,7.37,55.42,39.07,39.07,0,0,1,25,.2,44.19,44.19,0,0,1,4.54,1.86l-.24-1.15c-6.68-31.86-26.82-128-165.89-139.06C154.8,95.76,124.6,194.77,119,218.73a97,97,0,0,1,10.41.92,71.35,71.35,0,0,1,17.2,4.68l.19.08c3.16-16.95,7.73-35.56,13.54-49.68,5.25-12.77,11.72-22.08,19.46-23.88,8-1.86,15.61,1.53,22.47,7.33Z"/><path class="cls-8" d="M202.31,158.18c11.74-8.38,27.13-16.1,47.27-21.56,17.48-4.74,38.61-7.79,64.12-8.12H314c20.23,1.36,37.87,4.44,52.72,8.87,14.62,4.37,26.59,10,35.69,16.71,6.51-4.54,12.83-7.63,18.48-8.55-23.13-18.56-56-33.09-103.19-37-139-.84-177.66,76.72-188.39,111.12l.17,0a71.35,71.35,0,0,1,17.2,4.68l.19.08c3.16-16.95,7.73-35.56,13.54-49.68,5.25-12.77,11.72-22.08,19.46-23.88,8-1.86,15.61,1.53,22.47,7.33Zm242.57,12c.94,2.9,1.82,6,2.64,9.26a274,274,0,0,1,7.37,55.42,39.43,39.43,0,0,1,12.23-2,38.6,38.6,0,0,1,6.72.59c-4.18-17.17-12-41-29-63.31Z"/><path class="cls-4" d="M152.11,244.31a3.41,3.41,0,0,1-.33-1.27c-1.15-4.26-2.67-7.63-4.59-9.84a3.52,3.52,0,0,1-.75-.79,8.21,8.21,0,0,0-2.46-1.64,64.55,64.55,0,0,0-15.54-4.21,84.7,84.7,0,0,0-8.58-.81c2.16,5.71,3.32,14.69,3.48,25.81.22,16-1.38,36.88-4.86,58.91s-8.19,41.11-13,54.09a66.29,66.29,0,0,1-7,14.52c-.3.43-.6.84-.91,1.22a52.79,52.79,0,0,0,9.1,2.15,77.19,77.19,0,0,0,15.84.5c4.94-.31,10.24-8.08,15.17-19.88,5.53-13.22,10.17-31.14,13.2-49.62s4.43-37.52,3.46-52.93c-.2-3.26-.5-6.35-.91-9.22a3.6,3.6,0,0,1-.12-.8c-.33-2.21-.73-4.28-1.19-6.19Z"/><path d="M152.11,244.31a3.41,3.41,0,0,1-.33-1.27c-1.15-4.26-2.67-7.63-4.59-9.84a3.52,3.52,0,0,1-.75-.79,8.21,8.21,0,0,0-2.46-1.64,64.55,64.55,0,0,0-15.54-4.21,84.7,84.7,0,0,0-8.58-.81c2.16,5.71,3.32,14.69,3.48,25.81.22,16-1.38,36.88-4.86,58.91s-8.19,41.11-13,54.09a66.29,66.29,0,0,1-7,14.52c-.3.43-.6.84-.91,1.22a52.79,52.79,0,0,0,9.1,2.15,77.19,77.19,0,0,0,15.84.5c4.94-.31,10.24-8.08,15.17-19.88,5.53-13.22,10.17-31.14,13.2-49.62s4.43-37.52,3.46-52.93c-.2-3.26-.5-6.35-.91-9.22a3.6,3.6,0,0,1-.12-.8c-.33-2.21-.73-4.28-1.19-6.19Zm50.2-86.13c11.74-8.38,27.13-16.1,47.27-21.56,17.48-4.74,38.61-7.79,64.12-8.12H314c20.23,1.36,37.87,4.44,52.72,8.87,14.62,4.37,26.59,10,35.69,16.71,10.36-7.22,20.26-10.8,27.7-7.72,6.88,2.85,13.05,15.62,17.44,33.08a274,274,0,0,1,7.37,55.42,39.07,39.07,0,0,1,25,.2,44.19,44.19,0,0,1,4.54,1.86l-.24-1.15c-6.68-31.86-26.82-128-165.89-139.06C154.8,95.76,124.6,194.77,119,218.73a97,97,0,0,1,10.41.92,71.35,71.35,0,0,1,17.2,4.68l.19.08c3.16-16.95,7.73-35.56,13.54-49.68,5.25-12.77,11.72-22.08,19.46-23.88,8-1.86,15.61,1.53,22.47,7.33ZM404.67,161a3,3,0,0,1-.58.43q-2.14,1.62-4.34,3.44c-14.56,12.1-29.6,30.33-38.36,45a3.5,3.5,0,0,1-4.42,1.39c-21.22-9.62-42.41-14.62-63.57-15.24s-42.38,3.14-63.59,11a3.5,3.5,0,0,1-4.46-2c-.85-2-22.22-52.47-43.92-47.41-5.21,1.21-10.17,8.95-14.61,19.73-6,14.65-10.7,34.55-13.81,52.11.29.39.57.79.85,1.21a261.46,261.46,0,0,1,9.19-31.86C167.93,185.49,174,175,180,175.65l.5.07c11.29,2.15,23.24,42.08,23.27,42.19a3.48,3.48,0,0,1-2,4.24A127.19,127.19,0,0,0,178,235.52a102.71,102.71,0,0,0-17.59,16q.57,4.11.85,8.63c1,15.91-.44,35.48-3.55,54.46s-7.91,37.48-13.63,51.18c-6,14.23-13.22,23.66-21.21,24.16h-.18a102.58,102.58,0,0,1-4.88,10.84A94,94,0,0,1,111.63,411a31.37,31.37,0,0,0,9.33,8.45,58.58,58.58,0,0,0,14.24,5.88,3.49,3.49,0,0,1,.61,6.48A68.57,68.57,0,0,1,123,438.15a51.18,51.18,0,0,1-6.39,1.84c16.27,16.76,39.08,31,63.24,41.76,29.89,13.27,61.74,21.1,85.84,21.52,25.94.45,63.46-5.17,102.44-16,31.41-8.72,63.73-20.82,91.68-35.83-4.76-2.21-7.91-5.92-12.41-11.22l-.82-1a3.49,3.49,0,0,1,3.24-5.69,41.27,41.27,0,0,0,14.21.28,28.89,28.89,0,0,0,9.72-3.68c-1.23-2.93-2.35-5.85-3.39-8.75s-2-5.92-2.92-8.89h-.29c-16.39,0-31.1-10.29-41.63-26.91-10.24-16.16-16.57-38.4-16.57-62.91,0-21.8,5-41.81,13.32-57.34a144.83,144.83,0,0,0-17.34-17.5,195.33,195.33,0,0,0-25.84-18.53,3.47,3.47,0,0,1-1.67-3.17h0c.18-3.35,1.75-7.65,4.24-12.34,4.54-8.56,12.33-18.88,20.21-27,8.31-8.53,17.05-14.73,23-14.4a8.06,8.06,0,0,1,3.35.9c5,2.65,8.38,12.35,10.63,24.18,2.7,14.16,4.06,31.83,4.55,43.06A48.81,48.81,0,0,1,448,237.8c-.47-20.13-3.22-40.6-7.26-56.66-3.88-15.41-8.65-26.4-13.32-28.33-5.38-2.23-13.67,1.43-22.76,8.16Zm-8.15-2.48c-8.24-5.67-18.9-10.57-31.83-14.42-14.36-4.29-31.47-7.28-51.13-8.6-24.73.33-45.22,3.3-62.17,7.9-18.66,5-33,12.08-43.94,19.72,11.34,12.08,19.86,29.38,23,36.3A172.91,172.91,0,0,1,293.59,189,170.55,170.55,0,0,1,357,203.63c9.26-14.74,24-32.26,38.27-44.14l1.22-1Zm-284.6,60.12c4.88-22.14,34.06-130,206.69-128.86h.26c144.28,11.52,165.23,111.46,172.18,144.6.63,3,1.15,5.49,1.59,7.11,9.58,2.68,18,11.3,24.31,23.85,7.3,14.56,11.82,34.57,11.82,56.6s-4.52,42-11.82,56.6c-5.73,11.42-13.23,19.59-21.75,23l0,0a48.19,48.19,0,0,1-13.46,8.19,40.91,40.91,0,0,1-7.2,2.12c.75,2.4,1.55,4.82,2.41,7.24,1.32,3.7,2.77,7.38,4.38,11a3.49,3.49,0,0,1-1.22,4.27,37.19,37.19,0,0,1-14.84,6.34,39.44,39.44,0,0,1-7.52.6,17.61,17.61,0,0,0,11.56,5.44,3.49,3.49,0,0,1,1.62,6.52C440.8,470.54,404.82,484.32,370,494c-39.6,11-77.84,16.7-104.41,16.23-25-.43-57.83-8.48-88.54-22.12-27.3-12.12-53-28.7-70.11-48.35a3.41,3.41,0,0,1-.9-2.19,3.48,3.48,0,0,1,3.33-3.63,38.4,38.4,0,0,0,11.29-2.35,53.65,53.65,0,0,0,5-2.12,54.68,54.68,0,0,1-8.31-4.08,37.53,37.53,0,0,1-12.93-12.67,3.46,3.46,0,0,1,.18-3.89,85.65,85.65,0,0,0,7.08-11.3c1.27-2.42,2.42-4.9,3.47-7.43a73.15,73.15,0,0,1-9.5-.75,56.46,56.46,0,0,1-16.07-4.74,6.15,6.15,0,0,1-.91-.19,6.34,6.34,0,0,1-1.38-.56c-17-6.54-19.08-48.86-12.8-88.93a276.85,276.85,0,0,1,7.18-33.05,142.46,142.46,0,0,1,10.25-26.7c5.79-10.87,12.58-17.3,20-16.57ZM101.07,259a26.24,26.24,0,0,0-2.57,4.49,79.24,79.24,0,0,0-4.74,13.17C92.28,282,91,288.06,89.84,294.34c-3.54,20.1-5.07,41.92-1.47,47a39.15,39.15,0,0,0,2.12-5.27c2.49-7.37,5.17-19,7.32-32.63A271.15,271.15,0,0,0,101.14,271a99.87,99.87,0,0,0-.07-11.95Zm-8.82,1.4c3.17-6.41,7-9.76,11.41-8.33a3.3,3.3,0,0,1,.82.36c2.73,1.65,3.92,8.68,3.62,18.72a275.82,275.82,0,0,1-3.41,33.31c-2.21,14-5,26.09-7.59,33.77A40.26,40.26,0,0,1,94,345.5c-1.75,3-3.85,4.24-6.29,3.57a4.86,4.86,0,0,1-1-.42c-8.22-4.06-8.06-31.17-3.77-55.51,1.13-6.4,2.52-12.68,4.09-18.3a84.92,84.92,0,0,1,5.2-14.4Zm19.44-34.82-.22,0c-4.3-.5-8.93,4.52-13.37,12.87a134.05,134.05,0,0,0-9.71,25.34,268.09,268.09,0,0,0-7,32.2c-5.87,37.49-5.09,76.7,8.59,81.44a3.54,3.54,0,0,1,.53.23h.17a11.71,11.71,0,0,0,2.1-2.58c2-2.79,4-7.2,6.18-12.94,4.67-12.64,9.26-31.22,12.66-52.75s5-42.13,4.77-57.76c-.2-14.18-1.59-23.87-4.14-25.9a5.23,5.23,0,0,0-.54-.12Zm47.09,17.08.05.21a112.48,112.48,0,0,1,15.14-13A132.45,132.45,0,0,1,196.2,217c-2.75-8.59-11.11-33.23-16.95-34.42-2.06-.09-5.83,8.2-9.65,18.63a250.33,250.33,0,0,0-9.87,35.57c-.44,2.3-.77,4.31-.95,5.92ZM499.59,274c6.1,0,11.28,5.85,14.73,15.3,3.06,8.4,5,19.92,5,32.57s-1.9,24.16-5,32.56c-3.45,9.46-8.63,15.31-14.73,15.31s-11.27-5.85-14.72-15.31c-3.06-8.39-5-19.91-5-32.56s1.9-24.17,5-32.57c3.45-9.45,8.63-15.3,14.72-15.3Zm8.17,17.68c-2.41-6.6-5.32-10.69-8.17-10.69s-5.75,4.09-8.16,10.69c-2.8,7.66-4.52,18.33-4.52,30.19s1.72,22.53,4.52,30.19c2.41,6.6,5.32,10.69,8.16,10.69s5.76-4.09,8.17-10.69c2.79-7.66,4.52-18.33,4.52-30.19s-1.73-22.53-4.52-30.19Zm-27.1,110.87c-9.93-2.41-18.68-11.16-25.16-24.08-7.3-14.56-11.82-34.58-11.82-56.6s4.52-42,11.82-56.6c6-11.91,13.87-20.28,22.85-23.4l-.7-.24a32.43,32.43,0,0,0-10.53-1.78,32.86,32.86,0,0,0-13.24,2.84,3.47,3.47,0,0,1-1.85.87c-7.83,3.94-14.89,10.87-20.64,20-9.56,15.09-15.48,36-15.48,59.17s5.92,44.08,15.48,59.17c9.26,14.61,21.9,23.65,35.73,23.65a32.65,32.65,0,0,0,12-2.33c.5-.19,1-.4,1.5-.62Zm30.06-134.17c-6.46-12.89-15.14-20.86-24.49-20.86s-18,8-24.5,20.86c-6.83,13.62-11.06,32.52-11.06,53.49s4.23,39.87,11.06,53.49c6.46,12.89,15.14,20.86,24.5,20.86s18-8,24.49-20.86c6.83-13.62,11.06-32.52,11.06-53.49s-4.23-39.87-11.06-53.49ZM426,259a71.72,71.72,0,0,1,10.59-12.89c-.23-9.88-1.51-31-4.62-47.28-1.89-9.94-4.25-17.82-7-19.3a1.23,1.23,0,0,0-.48-.1c-3.74-.21-10.58,5.07-17.62,12.29-7.46,7.65-14.8,17.35-19,25.35a35,35,0,0,0-3.13,7.53,200,200,0,0,1,24.78,18A155,155,0,0,1,426,259Z"/><path class="cls-9" d="M201.76,331c11.16,0,20.2,13.43,20.2,30s-9,30-20.2,30-20.19-13.43-20.19-30,9-30,20.19-30ZM386.47,455.87a2.33,2.33,0,0,0,3-3.57s-15.8-13.39-43.25-21.23a2.33,2.33,0,0,0-1.28,4.48c26.5,7.56,41.5,20.29,41.54,20.32Zm5.11-22a2.32,2.32,0,0,0,1.71-4.32c-.05,0-19.15-7.86-47.68-6.85a2.33,2.33,0,1,0,.17,4.65c27.54-1,45.75,6.5,45.8,6.52Zm.76-22.65a2.32,2.32,0,1,0,.45-4.62c-.06,0-20.58-2.24-47.7,6.65a2.33,2.33,0,0,0,1.44,4.43c26.19-8.59,45.75-6.46,45.81-6.46ZM155,455.87a2.33,2.33,0,0,1-3-3.57s15.8-13.39,43.25-21.23a2.33,2.33,0,1,1,1.27,4.48C170,443.11,155,455.84,155,455.87Zm-5.1-22a2.32,2.32,0,0,1-1.71-4.32c.05,0,19.15-7.86,47.67-6.85a2.33,2.33,0,0,1-.16,4.65c-27.54-1-45.75,6.5-45.8,6.52Zm-.76-22.65a2.32,2.32,0,0,1-.46-4.62c.06,0,20.59-2.24,47.71,6.65a2.33,2.33,0,0,1-1.44,4.43c-26.19-8.59-45.75-6.46-45.81-6.46Zm113.66,9.57.08,14.13c4,2.86,17.1,10.41,26-4a3.48,3.48,0,0,1,5.93,3.66c-12.13,19.64-29.4,10.52-35.45,6.41-5.36,3.73-19.61,10.93-32.41-6.63a3.48,3.48,0,1,1,5.62-4.1c9.46,13,19.79,7.21,23.17,4.74l.08-14.66c-4.53-3.35-11.89-9.79-12.23-16.42-.49-9.61,31.85-10.16,34.43-1,1.91,6.82-9.3,14.39-15.23,17.85Zm73.76-86.35c11.16,0,20.2,13.43,20.2,30s-9,30-20.2,30-20.19-13.44-20.19-30,9-30,20.19-30Z"/><path class="cls-10" d="M342.1,342.92c3.26,0,5.9,4.5,5.9,10.05s-2.64,10-5.9,10-5.89-4.5-5.89-10,2.64-10.05,5.89-10.05Z"/><path class="cls-10" d="M207.29,342.92c3.26,0,5.9,4.5,5.9,10.05s-2.64,10-5.9,10-5.89-4.5-5.89-10,2.64-10.05,5.89-10.05Z"/></g></svg>