<?xml version="1.0" encoding="utf-8"?>
<!-- Generator: Adobe Illustrator 23.0.3, SVG Export Plug-In . SVG Version: 6.00 Build 0)  -->
<svg version="1.1" id="Layer_1" xmlns="http://www.w3.org/2000/svg" xmlns:xlink="http://www.w3.org/1999/xlink" x="0px" y="0px"
	 viewBox="0 0 1920 1920" style="enable-background:new 0 0 1920 1920;" xml:space="preserve">
<style type="text/css">
	.st0{fill:#FFFFFF;}
	.st1{fill:#F9662B;}
</style>
<g>
	<g>
		<path class="st0" d="M950.01,813.13L847.1,729.41c-3.27-2.67-8.2-0.33-8.2,3.87v175.23l-38.79,21.93
			c-9.8,5.53-15.86,15.93-15.86,27.2v55.66c0,2.93,3.2,4.87,5.8,3.4l48.86-27.66l24.13-13.66c9.8-5.53,15.86-15.93,15.86-27.26
			v-62.25v-78.99l80.92,65.85v-39.06C959.81,825.72,956.21,818.12,950.01,813.13z"/>
		<path class="st1" d="M1129.58,728.74l-48.86,27.66l-24.13,13.66c-9.8,5.53-15.86,16-15.86,27.26v62.25v78.98l-80.92-65.85v39.06
			c0,7.93,3.6,15.53,9.8,20.53l102.91,83.72c3.33,2.67,8.2,0.33,8.2-3.87V836.92l38.79-21.93c9.86-5.53,15.93-15.93,15.93-27.19
			v-55.66C1135.45,729.21,1132.18,727.28,1129.58,728.74z"/>
	</g>
	<g>
		<path class="st0" d="M547.64,1073.47c-4.96,0-9,4.11-9,9.16v83.05l-60.02-86.68c-2.78-3.57-6.44-5.54-10.29-5.54h-2.13
			c-6.77,0-12.27,5.58-12.27,12.43v97.62c0,4.96,4.04,9,9,9c5.05,0,9.16-4.04,9.16-9v-83.21l60.33,87.14
			c2.42,3.22,6.05,5.07,9.98,5.07h1.96c6.86,0,12.43-5.5,12.43-12.27v-97.62C556.8,1077.67,552.61,1073.47,547.64,1073.47z"/>
		<path class="st0" d="M686,1091.47c4.86,0,8.67-3.74,8.67-8.51c0-4.86-3.81-8.67-8.67-8.67h-65.57c-4.96,0-9,4.11-9,9.16v99.26
			c0,4.96,4.04,9,9,9H686c4.86,0,8.67-3.74,8.67-8.51c0-4.86-3.81-8.67-8.67-8.67h-56.41v-33.02h50.52c4.86,0,8.67-3.74,8.67-8.51
			c0-4.86-3.81-8.67-8.67-8.67h-50.52v-32.86H686z"/>
		<path class="st0" d="M792.95,1072.65c-34.62,0-58.34,24.24-59.04,60.38c0.69,36.07,24.42,60.31,59.04,60.31
			c34.62,0,58.35-24.24,59.04-60.31v-0.06C851.3,1096.89,827.58,1072.65,792.95,1072.65z M792.95,1176.16
			c-24.45,0-40.87-17.35-40.87-43.16c0-25.82,16.43-43.17,40.87-43.17c24.45,0,40.87,17.35,40.87,43.17
			C833.83,1158.81,817.4,1176.16,792.95,1176.16z"/>
		<path class="st0" d="M953.22,1090.16c12.42,0,20.64,3,29.19,7.51c1.49,0.75,3.07,0.83,3.68,0.83c2.37,0,4.52-0.88,6.04-2.48
			c1.46-1.53,2.24-3.64,2.14-5.79c-0.18-3.4-1.6-5.71-4.43-7.23c-9.06-5.12-20.68-10.35-38.09-10.35
			c-35.21,0-58.87,24.25-58.87,60.34c0,36.09,23.66,60.34,58.87,60.34c17.41,0,29.02-5.23,38.06-10.33
			c2.86-1.54,4.28-3.85,4.46-7.25v-0.01c0.1-2.14-0.68-4.24-2.14-5.78c-1.52-1.6-3.67-2.48-6.04-2.48c-0.61,0-2.18,0.08-3.71,0.84
			c-8.52,4.5-16.74,7.5-29.16,7.5c-26.02,0-42.18-16.41-42.18-42.84C911.04,1106.57,927.2,1090.16,953.22,1090.16z"/>
		<path class="st0" d="M1142.93,1109.12c0-22.14-16.81-34.84-46.12-34.84h-38.1c-4.96,0-9,4.11-9,9.16v100.08c0,4.96,4.04,9,9,9
			c5.05,0,9.16-4.04,9.16-9v-36.3h32.21c21.01,0,23.7,16.78,23.7,31.39v4.9c0,5.38,3.68,9,9.16,9c4.96,0,9-4.04,9-9V1176
			c0-7.21-1.34-29.89-17.5-37.38C1135.95,1133.1,1142.93,1122.14,1142.93,1109.12z M1124.77,1110.27
			c0,12.28-10.82,19.62-28.94,19.62h-27.96v-38.25h27.14C1121.39,1091.63,1124.77,1101.59,1124.77,1110.27z"/>
		<path class="st0" d="M1284.72,1073.47c-3.26,0-5.92,1.51-7.9,4.48l-32.82,47.73l-32.81-47.72c-1.98-2.98-4.64-4.49-7.91-4.49
			c-2.46,0-4.72,0.95-6.38,2.68c-1.68,1.75-2.55,4.07-2.45,6.48c0,1.85,0.53,3.63,1.61,5.37l38.78,54.35v41.17c0,4.96,4.11,9,9.16,9
			c4.96,0,9-4.04,9-9v-41.17l39-54.44c1.03-1.65,1.56-3.43,1.56-5.22c0.1-2.48-0.77-4.8-2.45-6.55
			C1289.44,1074.42,1287.17,1073.47,1284.72,1073.47z"/>
		<path class="st0" d="M1453.49,1073.47h-5.4c-4.91,0-9.52,3.16-11.5,7.9l-35.6,88.76l-35.61-88.78c-1.96-4.71-6.58-7.88-11.49-7.88
			h-5.39c-6.77,0-12.27,5.58-12.27,12.43v97.62c0,4.96,4.04,9,9,9c5.05,0,9.16-4.04,9.16-9v-84.45l34.63,85.6
			c2.13,4.84,6.71,7.85,11.97,7.85c5.25,0,9.83-3.01,11.99-7.89l34.61-85.56v84.45c0,4.96,4.11,9,9.16,9c4.96,0,9-4.04,9-9v-97.62
			C1465.76,1079.05,1460.25,1073.47,1453.49,1073.47z"/>
	</g>
</g>
</svg>
